<svg width="351" height="232" viewBox="0 0 351 232" fill="none" xmlns="http://www.w3.org/2000/svg">
<path opacity="0.1" d="M1.43366 108.45H33.946V152.808H3.81387C3.73378 153.263 3.6569 153.722 3.5736 154.181H33.946V189.954C33.8916 189.938 33.8435 189.919 33.7923 189.9C32.9337 189.56 32.0816 189.201 31.2295 188.816L30.6849 188.569C29.8306 188.165 28.9763 187.737 28.1221 187.286C27.8241 187.129 27.5262 186.966 27.2315 186.799C22.489 184.14 18.1806 180.77 14.4559 176.807C14.347 176.701 14.2445 176.589 14.1356 176.486C13.6166 175.922 13.1072 175.351 12.6139 174.768L12.0693 174.126C11.4863 173.411 10.9224 172.677 10.3746 171.933C10.2946 171.824 10.2177 171.715 10.1344 171.612C7.90649 168.52 6.05664 165.172 4.62435 161.639C4.5795 161.534 4.54106 161.418 4.49942 161.319C4.05947 160.186 3.66971 159.042 3.33014 157.888C3.18278 157.403 3.04182 156.926 2.92009 156.422C2.87524 156.275 2.8368 156.13 2.80156 155.986C0.981968 148.877 0.767334 141.492 0.767334 134.158C0.767334 133.302 0.767334 132.442 0.767334 131.593C0.767334 128.627 0.802573 125.641 0.853829 122.659C0.853829 121.886 0.885863 121.116 0.901881 120.34C0.94673 118.372 1.0108 116.403 1.09409 114.434C1.11331 113.885 1.13894 113.34 1.16777 112.795C1.16777 112.481 1.18379 112.167 1.21583 111.852C1.29271 110.711 1.35678 109.579 1.43366 108.45Z" fill="#6C63FF"/>
<path opacity="0.1" d="M33.946 59.0607H16.1121C19.0111 54.5187 22.1786 50.1541 25.5977 45.9903C28.247 42.7323 31.0437 39.5577 33.946 36.4985V59.0607Z" fill="#6C63FF"/>
<path opacity="0.1" d="M33.946 60.4332V107.078H1.53616C1.53616 106.943 1.55859 106.805 1.5682 106.67C1.59703 106.302 1.62586 105.933 1.6579 105.567C1.69313 105.138 1.73158 104.705 1.77322 104.285C1.81487 103.865 1.85972 103.351 1.90777 102.887C1.95582 102.422 2.00067 101.95 2.05513 101.485C2.10959 101.02 2.15764 100.555 2.21531 100.093C2.27297 99.6317 2.32423 99.1636 2.38509 98.7018C2.43314 98.317 2.4844 97.9354 2.53565 97.5506C2.60934 97.0087 2.68622 96.4635 2.76951 95.9248C2.76951 95.8446 2.79194 95.7613 2.80475 95.6843C3.38945 91.7406 4.18614 87.8313 5.19136 83.9735C6.24358 79.9266 7.58723 75.9613 9.21176 72.1088C10.9383 68.0785 12.9599 64.1814 15.26 60.4493L33.946 60.4332Z" fill="#6C63FF"/>
<path opacity="0.1" d="M41.7081 108.447V152.808H111.15V108.447H41.7081ZM41.7081 154.177V192.273C42.1053 192.356 42.4994 192.436 42.8902 192.504C43.422 192.606 43.9506 192.699 44.4919 192.779C44.5945 192.795 44.7002 192.812 44.8123 192.821C45.0237 192.856 45.2416 192.885 45.453 192.914C45.988 192.988 46.5198 193.049 47.0547 193.097C47.3078 193.123 47.5641 193.145 47.8204 193.164L48.4387 193.212C48.775 193.238 49.1082 193.257 49.4381 193.267C49.6432 193.267 49.8482 193.286 50.0596 193.292C50.2198 193.292 50.38 193.292 50.5466 193.292C50.7131 193.292 50.9502 193.292 51.152 193.292C51.4275 193.292 51.703 193.292 51.9753 193.292H52.3437C52.6192 193.292 52.8947 193.293 53.167 193.267H53.1863C53.3753 193.267 53.5675 193.267 53.7597 193.241C53.813 193.244 53.8665 193.244 53.9199 193.241C54.08 193.241 54.2402 193.241 54.394 193.219H54.5061L55.5793 193.135C55.9317 193.103 56.2872 193.062 56.646 193.023L57.3764 192.937C60.3479 192.52 63.2864 191.894 66.1701 191.064C72.6475 189.255 78.9841 186.725 85.4583 184.872C93.8291 182.483 103.078 181.309 111.166 184.23V154.177H41.7081ZM111.15 59.0607V0.00319948C103.548 -0.079252 95.9656 0.810861 88.5882 2.65192C71.0041 7.07394 55.2269 16.6651 41.7081 28.9147V59.0575H45.1935V60.4268H41.7081V107.078H111.15V60.43H59.5036V59.0607H111.15ZM200.346 39.1119C195.995 38.958 191.671 37.5791 187.759 35.4499C180.279 31.3774 174.304 25.0891 167.628 19.782C153.757 8.72859 136.554 2.05868 118.906 0.404035V59.0607H218.039L218.285 58.801L200.346 39.1119ZM209.376 37.5086L218.952 48.0265V34.7508C215.745 35.1485 212.935 36.0944 209.389 37.4958L209.376 37.5086ZM218.952 201.732V154.177H198.548C198.494 153.975 198.439 153.77 198.375 153.565C198.436 153.77 198.488 153.975 198.545 154.177H118.919V188.569C119.675 189.13 120.421 189.72 121.161 190.32C121.959 190.961 122.747 191.638 123.538 192.302L124.336 192.962C124.717 193.283 125.102 193.604 125.489 193.905C126.258 194.529 127.034 195.145 127.818 195.752C128.206 196.073 128.603 196.361 128.997 196.663C135.253 201.45 141.852 205.771 148.74 209.589C150.284 210.444 151.842 211.279 153.414 212.093C154.462 212.629 155.516 213.161 156.573 213.677C158.162 214.453 159.764 215.202 161.378 215.922C176.264 222.611 192.004 227.2 208.149 229.56C211.735 230.09 215.335 230.507 218.948 230.811V201.729H219.269L218.952 201.732ZM118.919 60.43V107.078H218.964V60.43H118.919ZM118.919 108.447V152.808H218.964V108.447H118.919ZM226.73 34.6931V49.5016L238.951 36.0784C234.902 35.4242 230.828 34.9571 226.73 34.6771V34.6931ZM226.73 108.463V152.808H324.036V108.447L226.73 108.463ZM323.68 205.253L324.023 154.177H226.73V231.321C232.997 231.584 239.275 231.509 245.534 231.096H245.643C248.633 230.908 251.609 230.634 254.571 230.275H254.639C270.442 228.434 285.894 224.307 300.513 218.022L323.68 205.253ZM342.799 115.752C342.434 114.889 342.053 114.033 341.665 113.186C340.941 111.583 340.175 110.025 339.387 108.466H331.795V152.808H350.99C350.981 140.251 347.806 127.424 342.809 115.736L342.799 115.752ZM331.795 154.193V198.125C337.202 192.937 341.771 187.001 345.061 180.216C349.017 172.045 350.827 163.198 350.974 154.187L331.795 154.193ZM331.795 95.5367V107.081H338.676C336.594 103.107 334.301 99.2479 331.805 95.5207L331.795 95.5367ZM265.803 43.3961C265.297 43.2037 264.79 43.008 264.281 42.8189C258.909 40.833 253.42 39.1817 247.844 37.8741L229.142 58.4194L228.783 58.801L229.023 59.0639H295.586C286.315 52.6764 276.321 47.4116 265.812 43.38L265.803 43.3961ZM297.537 60.446H228.094L226.73 61.6966V107.078H238.692H238.711H324.049V85.0958C316.329 75.7501 307.419 67.4576 297.546 60.43L297.537 60.446Z" fill="#6C63FF"/>
<path opacity="0.1" d="M33.946 83.9606V107.078H1.53616C1.53616 106.943 1.55859 106.805 1.5682 106.67C1.59703 106.302 1.62586 105.933 1.6579 105.567C1.69313 105.138 1.73158 104.705 1.77322 104.285C1.81487 103.864 1.85972 103.351 1.90777 102.886C1.95582 102.421 2.00067 101.95 2.05513 101.485C2.10959 101.02 2.15764 100.555 2.21531 100.093C2.27297 99.6316 2.32423 99.1635 2.38509 98.7017C2.43314 98.3169 2.4844 97.9353 2.53565 97.5505C2.60934 97.0086 2.68622 96.4634 2.76951 95.9247C2.76951 95.8445 2.79194 95.7612 2.80475 95.6842C3.38945 91.7405 4.18614 87.8312 5.19136 83.9734L33.946 83.9606Z" fill="#6C63FF"/>
<path opacity="0.1" d="M1.43366 108.45H33.946V152.808H3.81387C3.73378 153.263 3.6569 153.722 3.5736 154.181H33.946V189.954C33.8916 189.938 33.8435 189.919 33.7923 189.9C32.9337 189.56 32.0816 189.201 31.2295 188.816L30.6849 188.569C29.8306 188.165 28.9763 187.737 28.1221 187.286C27.8241 187.129 27.5262 186.966 27.2315 186.799C22.489 184.14 18.1806 180.77 14.4559 176.807C14.347 176.701 14.2445 176.589 14.1356 176.486C13.6166 175.922 13.1072 175.351 12.6139 174.768L12.0693 174.126C11.4863 173.411 10.9224 172.677 10.3746 171.933C10.2946 171.824 10.2177 171.715 10.1344 171.612C7.90649 168.52 6.05664 165.172 4.62435 161.639C4.5795 161.534 4.54106 161.418 4.49942 161.319C4.05947 160.186 3.66971 159.042 3.33014 157.888C3.18278 157.403 3.04182 156.926 2.92009 156.422C2.87524 156.275 2.8368 156.13 2.80156 155.986C0.981968 148.877 0.767334 141.492 0.767334 134.158C0.767334 133.302 0.767334 132.442 0.767334 131.593C0.767334 128.627 0.802573 125.641 0.853829 122.659C0.853829 121.886 0.885863 121.116 0.901881 120.34C0.94673 118.372 1.0108 116.403 1.09409 114.434C1.11331 113.885 1.13894 113.34 1.16777 112.795C1.16777 112.481 1.18379 112.167 1.21583 111.852C1.29271 110.711 1.35678 109.579 1.43366 108.45Z" fill="#6C63FF"/>
<path opacity="0.1" d="M66.154 67.1095V107.078H41.7081V67.1095H45.1935V53.5773H59.5004V67.1095H66.154Z" fill="#6C63FF"/>
<path opacity="0.1" d="M66.154 108.447H41.7113V152.805H66.154V108.447Z" fill="#6C63FF"/>
<path opacity="0.1" d="M41.7081 154.181H66.154V191.057C63.2704 191.887 60.3319 192.512 57.3604 192.927L56.63 193.017C56.2712 193.058 55.9156 193.094 55.5633 193.129C55.2109 193.164 54.8457 193.19 54.4901 193.212H54.378C54.2242 193.212 54.0576 193.232 53.907 193.235H53.7437C53.5514 193.235 53.3592 193.254 53.167 193.26C52.8947 193.276 52.6224 193.28 52.3437 193.283C52.2252 193.283 52.1131 193.283 51.9945 193.283C51.719 193.283 51.4467 193.283 51.1712 193.283H50.5658C50.4024 193.283 50.2454 193.283 50.0756 193.283L49.4574 193.26C49.137 193.26 48.791 193.225 48.4579 193.203L47.8428 193.158L47.0772 193.087C46.539 193.039 46.004 192.978 45.4754 192.905L44.8347 192.815L44.5144 192.77C43.9794 192.686 43.4508 192.597 42.9126 192.494C42.5186 192.427 42.1278 192.343 41.7305 192.263L41.7081 154.181Z" fill="#6C63FF"/>
<path opacity="0.1" d="M218.964 62.3892H198.808V107.074H218.964V62.3892Z" fill="#6C63FF"/>
<path opacity="0.1" d="M218.968 108.447V152.808H118.919V133.674H172.209V144.961H198.808V108.447H218.968Z" fill="#6C63FF"/>
<path opacity="0.1" d="M219.285 201.742H218.964V230.843C215.355 230.537 211.756 230.121 208.169 229.595C192.015 227.228 176.268 222.629 161.378 215.929C157.079 213.992 152.868 211.877 148.744 209.586C141.855 205.766 135.255 201.445 128.997 196.66C127.425 195.454 125.874 194.22 124.342 192.959C123.282 192.084 122.228 191.186 121.161 190.314C120.421 189.714 119.675 189.124 118.919 188.56V154.181H198.542C198.488 153.975 198.433 153.77 198.375 153.568C198.436 153.77 198.494 153.975 198.548 154.181H218.964V201.723C219.073 201.726 219.179 201.736 219.285 201.742Z" fill="#6C63FF"/>
<path opacity="0.1" d="M271.534 59.0607H258.4V54.9754H264.288V42.8061C264.798 42.992 265.306 43.1834 265.812 43.3801V54.9754H271.534V59.0607Z" fill="#6C63FF"/>
<path opacity="0.1" d="M303.178 107.078H238.698C238.698 107.078 238.698 107.078 238.72 107.094L238.692 107.078H226.73V62.3925H230.119V95.4214H245.608V75.8606H258.403V60.4332H271.537V75.8734H284.332V95.4342H303.178V107.078Z" fill="#6C63FF"/>
<path opacity="0.1" d="M226.73 108.447V152.808H303.178V108.447H226.73ZM323.93 205.026L324.036 169.913H303.178V154.2H226.73V231.321C232.997 231.584 239.275 231.509 245.534 231.096H245.643C248.633 230.908 251.609 230.634 254.571 230.275H254.639C270.442 228.434 285.894 224.307 300.513 218.022" fill="#6C63FF"/>
<path opacity="0.1" d="M333.153 154.181H350.987C350.83 163.188 349.023 172.035 345.07 180.206C341.78 186.995 337.209 192.93 331.808 198.115V169.897H333.153V154.181Z" fill="#6C63FF"/>
<path opacity="0.1" d="M350.997 152.808H333.153V115.736H342.809C347.806 127.424 350.981 140.251 350.997 152.808Z" fill="#6C63FF"/>
<path opacity="0.1" d="M218.968 74.812H208.169V88.8219H218.968V74.812Z" fill="#6C63FF"/>
<path opacity="0.1" d="M218.968 103.852H208.169V107.078H218.968V103.852Z" fill="#6C63FF"/>
<path opacity="0.1" d="M218.968 108.447H208.169V117.858H218.968V108.447Z" fill="#6C63FF"/>
<path opacity="0.1" d="M218.968 132.891H208.169V146.901H218.968V132.891Z" fill="#6C63FF"/>
<path opacity="0.1" d="M218.968 161.931H208.169V175.941H218.968V161.931Z" fill="#6C63FF"/>
<path opacity="0.1" d="M218.964 201.723C219.073 201.723 219.179 201.723 219.285 201.742H218.964V204.997H208.169V190.971H218.964V201.723Z" fill="#6C63FF"/>
<path opacity="0.1" d="M218.964 220.004V230.827C215.355 230.521 211.756 230.105 208.169 229.579V220.004H218.964Z" fill="#6C63FF"/>
<path opacity="0.1" d="M165.2 151.779H118.919V152.808H165.2V151.779Z" fill="#6C63FF"/>
<path opacity="0.1" d="M165.2 154.177H118.919V158.122H165.2V154.177Z" fill="#6C63FF"/>
<path opacity="0.1" d="M165.2 171.051H118.919V177.394H165.2V171.051Z" fill="#6C63FF"/>
<path opacity="0.1" d="M165.197 190.323V196.666H128.997C127.425 195.465 125.873 194.231 124.339 192.965C123.279 192.09 122.228 191.192 121.158 190.323H165.197Z" fill="#6C63FF"/>
<path opacity="0.1" d="M165.197 209.592V215.929H161.375C157.08 213.99 152.87 211.874 148.744 209.583L165.197 209.592Z" fill="#6C63FF"/>
<path opacity="0.1" d="M254.648 112.747H245.537V121.867H254.648V112.747Z" fill="#6C63FF"/>
<path opacity="0.1" d="M57.3828 70.2551H48.2721V79.3749H57.3828V70.2551Z" fill="#6C63FF"/>
<path opacity="0.1" d="M57.3828 91.4386H48.2721V100.558H57.3828V91.4386Z" fill="#6C63FF"/>
<path opacity="0.1" d="M57.3828 112.622H48.2721V121.742H57.3828V112.622Z" fill="#6C63FF"/>
<path opacity="0.1" d="M57.3828 133.802H48.2721V142.922H57.3828V133.802Z" fill="#6C63FF"/>
<path opacity="0.1" d="M57.3828 154.985H48.2721V164.105H57.3828V154.985Z" fill="#6C63FF"/>
<path opacity="0.1" d="M57.3828 176.169H48.2721V185.289H57.3828V176.169Z" fill="#6C63FF"/>
<path opacity="0.1" d="M289.429 112.747H280.318V121.867H289.429V112.747Z" fill="#6C63FF"/>
<path opacity="0.1" d="M254.648 135.242H245.537V144.362H254.648V135.242Z" fill="#6C63FF"/>
<path opacity="0.1" d="M289.429 135.242H280.318V144.362H289.429V135.242Z" fill="#6C63FF"/>
<path opacity="0.1" d="M254.648 157.734H245.537V166.853H254.648V157.734Z" fill="#6C63FF"/>
<path opacity="0.1" d="M289.429 157.734H280.318V166.853H289.429V157.734Z" fill="#6C63FF"/>
<path opacity="0.1" d="M254.648 180.229H245.537V189.348H254.648V180.229Z" fill="#6C63FF"/>
<path opacity="0.1" d="M289.429 180.229H280.318V189.348H289.429V180.229Z" fill="#6C63FF"/>
<path opacity="0.1" d="M254.648 202.723H245.537V211.843H254.648V202.723Z" fill="#6C63FF"/>
<path opacity="0.1" d="M289.429 202.723H280.318V211.843H289.429V202.723Z" fill="#6C63FF"/>
<path opacity="0.1" d="M245.537 231.096V225.215H254.645V230.259L245.537 231.096Z" fill="#6C63FF"/>
<path opacity="0.1" d="M2.7663 95.6778V100.895H33.946V95.6778H2.7663ZM5.8737 100.568H3.33011V95.9985H5.89292L5.8737 100.568ZM8.97789 100.568H6.41509V95.9985H8.97789V100.568ZM12.0757 100.568H9.51288V95.9985H12.0757V100.568ZM15.1799 100.568H12.6203V95.9985H15.1831L15.1799 100.568ZM18.2809 100.568H15.7181V95.9985H18.2809V100.568ZM21.3851 100.568H18.8223V95.9985H21.3851V100.568ZM24.4893 100.568H21.9265V95.9985H24.4893V100.568ZM27.5902 100.568H25.0274V95.9985H27.5902V100.568ZM30.6912 100.568H28.1284V95.9985H30.6912V100.568ZM33.7922 100.568H31.2294V95.9985H33.7922V100.568Z" fill="#6C63FF"/>
<path opacity="0.1" d="M2.7663 110.858V116.076H33.946V110.858H2.7663ZM5.8737 115.745H3.33011V111.189H5.89292L5.8737 115.745ZM8.97789 115.745H6.41509V111.189H8.97789V115.745ZM12.0757 115.745H9.51288V111.189H12.0757V115.745ZM15.1799 115.745H12.6203V111.189H15.1831L15.1799 115.745ZM18.2809 115.745H15.7181V111.189H18.2809V115.745ZM21.3851 115.745H18.8223V111.189H21.3851V115.745ZM24.4893 115.745H21.9265V111.189H24.4893V115.745ZM27.5902 115.745H25.0274V111.189H27.5902V115.745ZM30.6912 115.745H28.1284V111.189H30.6912V115.745ZM33.7922 115.745H31.2294V111.189H33.7922V115.745Z" fill="#6C63FF"/>
<path opacity="0.1" d="M2.7663 126.045V131.272H33.946V126.045H2.7663ZM5.8737 130.932H3.33011V126.372H5.89292L5.8737 130.932ZM8.97789 130.932H6.41509V126.372H8.97789V130.932ZM12.0757 130.932H9.51288V126.372H12.0757V130.932ZM15.1799 130.932H12.6203V126.372H15.1831L15.1799 130.932ZM18.2809 130.932H15.7181V126.372H18.2809V130.932ZM21.3851 130.932H18.8223V126.372H21.3851V130.932ZM24.4893 130.932H21.9265V126.372H24.4893V130.932ZM27.5902 130.932H25.0274V126.372H27.5902V130.932ZM30.6912 130.932H28.1284V126.372H30.6912V130.932ZM33.7922 130.932H31.2294V126.372H33.7922V130.932Z" fill="#6C63FF"/>
<path opacity="0.1" d="M2.7663 141.232V146.443H33.946V141.232H2.7663ZM5.8737 146.119H3.33011V141.556H5.89292L5.8737 146.119ZM8.97789 146.119H6.41509V141.556H8.97789V146.119ZM12.0757 146.119H9.51288V141.556H12.0757V146.119ZM15.1799 146.119H12.6203V141.556H15.1831L15.1799 146.119ZM18.2809 146.119H15.7181V141.556H18.2809V146.119ZM21.3851 146.119H18.8223V141.556H21.3851V146.119ZM24.4893 146.119H21.9265V141.556H24.4893V146.119ZM27.5902 146.119H25.0274V141.556H27.5902V146.119ZM30.6912 146.119H28.1284V141.556H30.6912V146.119ZM33.7922 146.119H31.2294V141.556H33.7922V146.119Z" fill="#6C63FF"/>
<path opacity="0.1" d="M2.90088 156.416C3.02582 156.906 3.16677 157.397 3.31413 157.881V156.743H5.87693V161.303H4.50583C4.54748 161.408 4.58912 161.524 4.63077 161.623H33.946V156.416H2.90088ZM8.98753 161.303H6.42473V156.743H8.98753V161.303ZM12.0853 161.303H9.52252V156.743H12.0853V161.303ZM15.1895 161.303H12.6203V156.743H15.1831L15.1895 161.303ZM18.2905 161.303H15.7277V156.743H18.2905V161.303ZM21.3947 161.303H18.8319V156.743H21.3947V161.303ZM24.4989 161.303H21.9361V156.743H24.4989V161.303ZM27.5999 161.303H25.0371V156.743H27.5999V161.303ZM30.7009 161.303H28.1381V156.743H30.7009V161.303ZM33.8019 161.303H31.2391V156.743H33.8019V161.303Z" fill="#6C63FF"/>
<path opacity="0.1" d="M10.1408 171.602C10.2209 171.705 10.2977 171.82 10.381 171.923H12.0757V174.113C12.2583 174.331 12.4377 174.549 12.6235 174.755V171.91H15.1863V176.486H14.1484C14.2509 176.592 14.3502 176.704 14.4687 176.807H33.9556V171.602H10.1408ZM18.2809 176.486H15.7181V171.929H18.2809V176.486ZM21.3851 176.486H18.8223V171.929H21.3851V176.486ZM24.4893 176.486H21.9265V171.929H24.4893V176.486ZM27.5903 176.486H25.0275V171.929H27.5903V176.486ZM30.6913 176.486H28.1285V171.929H30.6913V176.486ZM33.7922 176.486H31.2294V171.929H33.7922V176.486Z" fill="#6C63FF"/>
<path opacity="0.1" d="M27.2443 186.786C27.5358 186.953 27.8337 187.107 28.1349 187.273V187.113H30.6977V188.556L31.2423 188.81V187.113H33.8051V189.887C33.8542 189.911 33.9057 189.931 33.9588 189.945V186.786H27.2443Z" fill="#6C63FF"/>
<path opacity="0.1" d="M238.698 107.078H238.717H238.698ZM218.964 201.72H219.285H218.964ZM198.375 153.565C198.436 153.77 198.488 153.975 198.545 154.177C198.494 153.975 198.44 153.77 198.375 153.565ZM238.698 107.068H238.717H238.698ZM45.2063 59.0511V60.4204H59.5164V59.0511H45.2063ZM218.964 201.72H219.285H218.964ZM198.375 153.565C198.436 153.77 198.488 153.975 198.545 154.177C198.494 153.975 198.44 153.77 198.375 153.565ZM238.698 107.068H238.717H238.698ZM218.964 201.71H219.285H218.964ZM198.375 153.565C198.436 153.77 198.488 153.975 198.545 154.177C198.494 153.975 198.44 153.77 198.375 153.565Z" fill="#6C63FF"/>
</svg>
