<svg width="70" height="200" viewBox="0 0 70 200" fill="none" xmlns="http://www.w3.org/2000/svg">
<path opacity="0.1" d="M38.6903 199.859C55.9298 199.859 69.9053 197.612 69.9053 194.84C69.9053 192.069 55.9298 189.822 38.6903 189.822C21.4508 189.822 7.47537 192.069 7.47537 194.84C7.47537 197.612 21.4508 199.859 38.6903 199.859Z" fill="#6C63FF"/>
<path d="M68.8737 70.7482C68.8737 70.7482 67.6115 70.5719 67.6115 68.7312C67.6115 66.8906 66.7082 63.453 66.7082 63.453C66.7082 63.437 65.9265 57.4662 64.8469 56.517C63.7673 55.5678 62.3802 49.9946 62.3802 49.9946C62.3802 49.9946 62.1432 46.9707 61.6594 46.3197C61.1757 45.6688 60.5222 44.0751 59.5579 41.8015C58.5937 39.528 54.5733 37.9535 54.5733 37.9535C54.5733 37.9535 47.3045 33.7335 45.2447 32.3578C45.0574 32.2448 44.8825 32.1126 44.7225 31.9634C44.3637 31.492 42.8004 31.4824 42.8004 31.4824C42.637 30.4499 42.4801 29.2634 42.4288 28.1891C42.4288 28.0737 42.4288 27.9583 42.4128 27.8428C44.7097 26.4838 46.4397 24.341 47.2853 21.8078C47.3238 21.686 47.3558 21.5577 47.391 21.4359C47.5287 21.3905 47.6553 21.3168 47.7629 21.2197C47.8704 21.1225 47.9566 21.0039 48.0157 20.8715C48.2015 20.4578 48.2047 19.9736 48.4354 19.5888C48.7045 19.1335 49.217 18.8898 49.6207 18.5466C50.6394 17.6808 50.9021 16.2218 50.854 14.8942C50.822 13.82 50.649 12.7361 50.7163 11.6683L50.7355 11.3989C50.7547 11.2386 50.7771 11.0783 50.806 10.9243C50.9629 10.1291 51.3057 9.37873 51.4979 8.58988C51.6901 7.80104 51.7093 6.91278 51.2609 6.23297C50.6041 5.23569 49.2362 5.03687 48.0349 4.93426C46.6734 4.81882 45.4561 4.96953 44.5848 3.83757C44.1769 3.24595 43.7182 2.69121 43.2137 2.17972C43.0343 2.01297 41.2915 0.948352 41.2915 0.877805C39.5907 0.0892532 37.6627 -0.0587605 35.8616 0.460935C34.9582 0.723883 34.1061 1.15358 33.1899 1.36843C31.2133 1.8366 28.9388 1.32995 27.2602 2.46191C26.3248 3.10324 25.7642 4.12297 25.2388 5.11704C24.8117 5.93582 24.3781 6.75352 23.9382 7.57015C23.2302 8.91375 22.5094 10.2798 22.2115 11.7677C22.1488 12.0915 22.1103 12.4195 22.0962 12.7489V12.765C22.0962 12.8836 22.0962 13.0023 22.0962 13.1209V13.2716C22.0962 13.3839 22.0962 13.4929 22.1154 13.5923C22.1346 13.6917 22.1314 13.7238 22.141 13.7911C22.1506 13.8585 22.1666 14.0092 22.1859 14.1118C22.2051 14.2144 22.2435 14.394 22.282 14.5351C22.298 14.596 22.3204 14.6537 22.3396 14.7114C22.3717 14.8205 22.4101 14.9263 22.4517 15.0321C22.4742 15.0866 22.4966 15.1443 22.5222 15.1989C22.5703 15.3111 22.6279 15.4201 22.6856 15.5195C22.7112 15.5644 22.7304 15.6061 22.7561 15.6478C22.8455 15.7969 22.9439 15.9404 23.0508 16.0775C23.7363 16.9337 24.7455 17.4788 25.4919 18.2805C25.4919 18.3125 25.4919 18.3446 25.4919 18.3735C25.4919 18.4633 25.4919 18.5498 25.4919 18.6396C25.5315 20.4275 26.0069 22.1787 26.8767 23.7407C27.7466 25.3027 28.9845 26.6284 30.4829 27.6023C30.4829 27.7242 30.4989 27.8492 30.5054 27.9711C30.5678 28.9229 30.556 29.8782 30.4701 30.8282C30.3397 30.6744 30.1764 30.5519 29.9923 30.4698C29.8082 30.3877 29.608 30.348 29.4066 30.3536C29.2689 30.3469 29.131 30.3588 28.9965 30.3889L28.9677 30.3665V30.3953C28.2629 30.5685 27.3947 31.3028 26.565 33.3904C26.565 33.3904 24.0407 36.2379 22.1186 36.1193C20.1965 36.0006 15.3304 39.0822 15.3304 39.0822C15.3304 39.0822 10.5828 42.1671 9.56405 45.3096C8.99463 47.0916 8.31196 48.8353 7.52021 50.5301L1.65139 62.6353L0.568604 72.2394C0.568604 72.2394 1.16766 76.5107 1.04913 77.1616C0.9306 77.8126 3.51262 83.684 3.51262 83.684C3.51262 83.684 12.0436 98.6881 15.529 99.4577L15.7788 99.2813C15.928 99.3593 16.0861 99.4185 16.2498 99.4577L16.9673 98.951C17.0104 99.5157 16.9922 100.083 16.9129 100.644C16.4324 102.126 17.0923 111.794 17.9316 113.689C18.7709 115.584 18.473 140.433 18.473 140.433L18.3545 142.626C18.3545 142.626 18.3545 142.697 18.3833 142.818L18.3545 143.338L18.441 143.383C18.5308 144.079 18.5015 144.785 18.3545 145.47C18.0533 146.432 17.9316 149.152 17.9316 149.152C17.9316 149.152 15.5322 164.505 16.6694 167.59C17.8067 170.675 18.7741 174.055 18.7741 174.055C18.7741 174.055 19.9754 177.903 18.8318 178.56C17.6881 179.218 14.4366 180.321 15.1061 181.924C15.7148 183.405 18.0245 187.375 18.3673 187.956L18.3384 188.26L17.8675 193.369C17.9438 194.043 18.1265 194.701 18.4089 195.318C18.9247 196.431 19.9274 197.585 21.8335 197.46C22.1538 197.438 22.5254 197.399 22.8842 197.351C26.3728 196.883 30.6687 195.325 30.6687 195.325C30.4457 195.183 30.2412 195.014 30.0601 194.821C29.8886 194.655 29.7527 194.456 29.6607 194.235C29.5688 194.015 29.5226 193.778 29.5251 193.539C29.5763 192.609 27.8368 188.177 27.4044 187.087C27.3371 186.93 27.3019 186.84 27.3019 186.84C27.3019 186.84 31.2678 182.69 30.6079 179.012C30.6079 179.012 26.2191 176.447 27.6638 175.039C29.1086 173.632 31.6906 169.588 31.6906 169.588C31.6906 169.588 31.8092 154.468 31.6906 152.211C31.567 150.644 31.6413 149.068 31.9117 147.519C31.9597 147.285 32.0174 147.058 32.0783 146.833C34.0764 147.132 36.0935 147.285 38.1137 147.292C38.8505 147.292 39.6001 147.292 40.3561 147.247C40.3561 147.461 40.3657 147.692 40.385 147.94C40.5515 151.685 40.8623 158.252 41.1154 160.693C41.4742 164.191 43.4571 173.619 43.4571 173.619C43.4571 173.619 39.6738 176.049 44.117 182.039C44.117 182.039 44.1171 184.21 43.8223 184.525C43.5077 185.552 43.2542 186.597 43.0631 187.654C42.8773 188.783 42.8004 189.925 43.1015 190.518C43.8223 191.935 48.1471 191.82 48.1471 191.82L48.2528 191.801C49.0692 191.716 49.8943 191.795 50.6802 192.032C51.466 192.269 52.1969 192.66 52.8306 193.183C54.474 194.504 60.7112 193.923 64.0877 193.503C65.4107 193.337 66.2949 193.183 66.2949 193.183C66.3378 193.033 66.353 192.876 66.3398 192.721C66.3045 191.89 65.6542 190.069 61.2462 188.443C61.2462 188.443 57.1008 185.653 57.1585 183.223H57.072H56.5915C56.9407 183.203 57.1649 183.223 57.1649 183.223C57.1649 183.223 55.5407 177.29 56.2039 176.809C56.867 176.328 54.8808 169.755 54.8808 169.755C54.8808 169.755 53.7436 158.724 53.6827 157.951C53.6853 157.288 53.7856 156.629 53.9806 155.995L53.6827 149.947C53.6827 149.947 53.625 147.936 53.6827 147.282C53.673 146.714 53.627 146.148 53.545 145.586C53.5161 145.361 53.4873 145.127 53.4553 144.896C55.009 144.502 56.0181 144.136 56.0181 144.136L55.8387 123.085C57.1585 120.519 57.402 114.891 57.3956 110.899C57.3956 108.334 57.2802 106.435 57.2802 106.435L59.0838 103.488C59.0838 103.488 59.5003 99.9611 58.8403 99.1883C58.5488 98.8388 58.6802 98.4764 58.9204 98.1782C59.0452 98.0792 59.1769 97.9892 59.3145 97.9089C59.3145 97.9089 59.2952 97.88 59.2728 97.8383C59.3988 97.733 59.5326 97.6376 59.6733 97.5529C59.6733 97.5529 59.0326 96.5588 59.606 96.1388C60.1442 96.5043 60.6247 96.7801 60.9899 97.0046C60.9643 97.2387 60.9386 97.3734 60.9386 97.3734L61.0924 97.0527C61.4448 97.2515 61.6594 97.3734 61.6594 97.3734C61.6594 97.3734 64.4849 91.7392 64.4241 90.9087C64.3632 90.0781 66.3462 86.5797 66.3462 86.5797C66.3462 86.5797 66.5864 84.7422 67.6692 83.9726C68.752 83.203 68.5085 77.6266 68.5085 77.6266C68.5085 77.6266 68.8097 74.7213 69.5304 73.5349C70.2512 72.3484 68.8737 70.7482 68.8737 70.7482ZM14.8114 68.2759L14.8658 69.6195C14.5455 69.1032 14.3148 68.7312 14.3148 68.7312L14.8114 68.2759Z" fill="url(#paint0_linear)"/>
<path d="M61.8132 94.9395L61.1213 97.8896C61.1213 97.8896 55.5792 95.0581 54.5797 91.4602C53.5802 87.8623 56.2519 86.4963 56.2519 86.4963L61.416 88.6864L61.8132 94.9395Z" fill="white"/>
<path opacity="0.1" d="M61.8132 94.9395L61.1213 97.8896C61.1213 97.8896 55.5792 95.0581 54.5797 91.4602C53.5802 87.8623 56.2519 86.4963 56.2519 86.4963L61.416 88.6864L61.8132 94.9395Z" fill="black"/>
<path d="M30.7104 195.344C30.7104 195.344 25.5848 197.229 22.0609 197.467C20.1901 197.592 19.2066 196.444 18.7005 195.337C18.4239 194.722 18.2456 194.068 18.1719 193.397L18.63 188.315L18.8734 185.608L26.36 183.662L27.4204 186.907L27.5197 187.154C27.9458 188.238 29.6532 192.647 29.602 193.567C29.5999 193.803 29.6453 194.037 29.7356 194.254C29.8259 194.472 29.9591 194.669 30.1274 194.834C30.2993 195.028 30.4952 195.199 30.7104 195.344Z" fill="white"/>
<path d="M65.7215 192.759C65.7343 192.914 65.7191 193.069 65.6767 193.218C65.6767 193.218 54.7143 195.049 52.4718 193.218C51.8396 192.683 51.1026 192.286 50.3082 192.053C49.5138 191.82 48.6794 191.756 47.8588 191.865C47.8588 191.865 43.6173 191.98 42.9094 190.582C42.6146 189.995 42.6915 188.857 42.8741 187.734C43.0604 186.683 43.3086 185.643 43.6173 184.621L43.7871 184.486L44.7962 183.675L56.6107 183.325H56.7004C56.6428 185.743 60.7112 188.517 60.7112 188.517C65.0328 190.12 65.6703 191.932 65.7215 192.759Z" fill="white"/>
<path opacity="0.1" d="M65.7215 192.759C65.7327 192.914 65.7165 193.069 65.6735 193.218C65.6735 193.218 54.7143 195.049 52.4718 193.218C51.84 192.683 51.1035 192.287 50.3097 192.054C49.5158 191.821 48.6821 191.756 47.862 191.865C47.862 191.865 43.6173 191.98 42.9126 190.582C42.6178 189.992 42.6915 188.857 42.8741 187.734C44.5079 187.898 47.0867 188.305 48.099 189.277C49.6303 190.755 52.2251 192.23 53.8173 192.346C55.0634 192.426 62.518 192.663 65.7215 192.759Z" fill="black"/>
<path opacity="0.1" d="M30.7104 195.344C30.7104 195.344 25.5848 197.229 22.0609 197.467C20.1901 197.592 19.2066 196.444 18.7037 195.334C20.0075 195.774 21.8175 196.235 22.7689 195.812C23.8966 195.312 27.8945 194.988 30.137 194.85C30.3076 195.037 30.5002 195.203 30.7104 195.344Z" fill="black"/>
<path d="M38.3155 43.3951C34.0869 41.7501 28.6473 36.3147 30.0056 33.775C30.3073 33.1342 30.4866 32.4425 30.5342 31.7356C30.6216 30.776 30.6344 29.8111 30.5726 28.8496C30.4774 27.2748 30.2881 25.7071 30.0056 24.155C30.0056 24.155 43.2073 24.4532 42.4384 26.3997C42.2142 26.9705 42.179 27.9613 42.2398 29.0708C42.3007 30.1804 42.4609 31.4342 42.6274 32.4956C42.8581 33.9514 43.0887 35.0609 43.0887 35.0609C43.0887 35.0609 42.2815 36.1929 41.8073 36.2538C41.3332 36.3147 44.383 45.7392 38.3155 43.3951Z" fill="#CF6F80"/>
<path opacity="0.1" d="M27.5101 187.154L27.4108 187.263C23.4641 182.485 18.6909 188.44 18.6909 188.44L18.6204 188.315L18.8639 185.608L26.3504 183.662L27.4108 186.907L27.5101 187.154Z" fill="black"/>
<path opacity="0.1" d="M56.7036 183.662C56.7036 183.662 53.8205 183.601 52.2828 184.961C50.7451 186.32 43.313 185.256 43.6333 184.961C43.7282 184.814 43.7855 184.647 43.7999 184.473L44.809 183.662L56.6235 183.312C56.6684 183.527 56.7036 183.662 56.7036 183.662Z" fill="black"/>
<path d="M32.4211 146.141C32.2063 146.672 32.0433 147.223 31.9341 147.786C31.667 149.327 31.5927 150.895 31.7131 152.454C31.8316 154.699 31.7131 169.742 31.7131 169.742C31.7131 169.742 29.1791 173.753 27.7664 175.167C26.3536 176.582 30.6495 179.121 30.6495 179.121C31.2902 182.777 27.4076 186.907 27.4076 186.907C23.4609 182.129 18.6877 188.087 18.6877 188.087C18.6877 188.087 16.0928 183.598 15.4457 181.994C14.7986 180.391 17.9797 179.282 19.0977 178.631C20.2157 177.98 19.0432 174.141 19.0432 174.141C19.0432 174.141 18.0982 170.777 16.977 167.709C15.8558 164.64 18.2135 149.363 18.2135 149.363C18.2135 149.363 18.3353 146.65 18.6268 145.704C18.7739 145.022 18.8031 144.319 18.7133 143.626C18.6941 143.392 18.6716 143.197 18.6556 143.065C18.6396 142.934 18.6268 142.873 18.6268 142.873L18.6716 142.796L20.2734 139.807C20.2734 139.807 33.1899 144.258 32.4211 146.141Z" fill="#6C63FF"/>
<path d="M56.7036 183.309C56.7036 183.309 53.8205 183.248 52.2828 184.592C50.7451 185.936 43.313 184.887 43.6333 184.592C43.9537 184.297 43.9281 182.113 43.9281 182.113C39.5681 176.155 43.2874 173.737 43.2874 173.737C43.2874 173.737 41.3396 164.358 40.9873 160.878C40.7406 158.448 40.4363 151.916 40.2729 148.186C40.2024 146.583 40.1608 145.48 40.1608 145.48L43.723 144.762L44.1811 144.669L52.7729 142.943C52.7729 142.943 53.01 144.547 53.1702 145.858C53.25 146.418 53.295 146.983 53.3047 147.548C53.247 148.19 53.3047 150.197 53.3047 150.197L53.5962 156.216C53.4058 156.847 53.3076 157.503 53.3047 158.162C53.3624 158.929 54.4804 169.902 54.4804 169.902C54.4804 169.902 56.4249 176.45 55.7618 176.922C55.0987 177.393 56.7036 183.309 56.7036 183.309Z" fill="#6C63FF"/>
<path opacity="0.1" d="M42.4384 26.3997C42.2142 26.9705 42.1789 27.9613 42.2398 29.0708C40.4715 30.1367 38.4387 30.6817 36.3748 30.6431C34.311 30.6046 32.3 29.984 30.5726 28.8528C30.4775 27.2769 30.2882 25.7082 30.0056 24.155C30.0056 24.155 43.2073 24.4468 42.4384 26.3997Z" fill="black"/>
<path d="M47.5416 19.3129C47.5442 20.4684 47.3625 21.617 47.0034 22.7152C46.2008 25.1759 44.555 27.2733 42.3569 28.6369C40.1588 30.0004 37.5499 30.5422 34.9914 30.1665C32.4328 29.7908 30.0893 28.5218 28.375 26.5838C26.6607 24.6458 25.686 22.1636 25.6232 19.5758C25.6232 19.486 25.6232 19.4027 25.6232 19.3129C25.5984 17.8563 25.8635 16.4093 26.4031 15.0563C26.9428 13.7034 27.7462 12.4715 28.7665 11.4326C29.7867 10.3937 31.0035 9.56861 32.3456 9.00537C33.6878 8.44212 35.1287 8.15204 36.584 8.15204C38.0394 8.15204 39.4802 8.44212 40.8224 9.00537C42.1646 9.56861 43.3813 10.3937 44.4016 11.4326C45.4218 12.4715 46.2252 13.7034 46.7649 15.0563C47.3046 16.4093 47.5697 17.8563 47.5448 19.3129H47.5416Z" fill="#CF6F80"/>
<path opacity="0.1" d="M38.3155 43.3952C34.0869 41.7502 28.6473 36.3148 30.0056 33.7751C30.3073 33.1342 30.4866 32.4425 30.5342 31.7357L36.3229 36.4976L39.9045 39.4382L42.6274 32.4989C42.8581 33.9547 43.0887 35.0642 43.0887 35.0642C43.0887 35.0642 42.2815 36.1962 41.8073 36.2571C41.3332 36.318 44.383 45.7393 38.3155 43.3952Z" fill="black"/>
<path d="M53.2855 64.4407L48.4514 145.73L42.1469 146.144L25.8219 99.0087L28.5 43.0489L29.0638 31.2258L36.3229 37.1935L39.9077 40.134L42.7107 32.9927L47.9228 37.5398L53.2855 64.4407Z" fill="#6C63FF"/>
<path opacity="0.1" d="M32.421 146.141C32.2063 146.672 32.0432 147.223 31.9341 147.786C27.3467 147.077 22.8913 145.683 18.7165 143.652L18.63 143.607L18.6588 143.091L18.6748 142.822L20.2766 139.833C20.2766 139.833 33.1899 144.258 32.421 146.141Z" fill="black"/>
<path opacity="0.1" d="M43.7967 147.798C42.624 147.998 41.4412 148.133 40.2536 148.202C40.1832 146.599 40.1415 145.496 40.1415 145.496L43.7038 144.778L43.7967 147.798Z" fill="black"/>
<path opacity="0.1" d="M53.151 145.874C50.8733 146.468 47.3558 147.135 44.2068 146.718L44.1619 144.685L52.7537 142.96C52.7537 142.96 52.9908 144.547 53.151 145.874Z" fill="black"/>
<path opacity="0.1" d="M44.1491 147.09C31.0147 149.334 18.9856 142.899 18.9856 142.899L19.1009 140.718C19.1009 140.718 19.3988 115.998 18.5723 114.103C17.7458 112.207 17.1019 102.597 17.5696 101.122C18.0373 99.6468 15.8621 77.5271 15.8621 77.5271L15.5098 68.5484L2.61246 63.3183L8.37876 51.2868C9.15761 49.6 9.82745 47.8648 10.3842 46.092C11.3869 42.9687 16.0415 39.8999 16.0415 39.8999C16.0415 39.8999 20.8148 36.8343 22.7016 36.9498C24.5885 37.0652 27.0616 34.2369 27.0616 34.2369C28.8876 29.5776 30.5406 31.6876 30.5406 31.6876C30.5406 31.9089 30.5406 31.6876 30.4509 32.377C29.8102 37.4917 40.811 53.6534 40.968 53.9388L42.0155 79.4832L43.0759 111.81L44.1491 147.09Z" fill="black"/>
<path d="M43.7967 147.09C30.6623 149.334 18.63 142.899 18.63 142.899L18.7485 140.718C18.7485 140.718 19.0464 115.998 18.2167 114.103C17.387 112.207 16.7463 102.597 17.2172 101.122C17.6881 99.6468 15.5098 77.5271 15.5098 77.5271L15.1542 68.5484L2.25046 63.299L8.01676 51.2675C8.79391 49.58 9.46371 47.8449 10.0222 46.0727C11.0216 42.9494 15.6795 39.8806 15.6795 39.8806C15.6795 39.8806 20.4528 36.815 22.3364 36.9304C24.2201 37.0459 26.6964 34.2176 26.6964 34.2176C28.5256 29.5583 30.5406 31.6683 30.5406 31.6683C30.5406 31.8895 30.3484 31.9889 30.4509 32.3577C31.8604 37.3185 40.4586 53.6341 40.6156 53.9195L41.676 79.4639L42.7363 111.791L43.7967 147.09Z" fill="white"/>
<path opacity="0.1" d="M40.2569 54.6475C38.8441 54.0574 31.3607 45.5052 31.3607 45.5052V43.5587C31.0884 42.9174 29.4706 43.3086 28.1572 43.7576L28.721 31.9345L29.3617 32.4668C30.7649 37.4244 40.0935 54.3621 40.2569 54.6475Z" fill="black"/>
<path d="M40.6124 53.9388C39.1965 53.3488 31.7131 44.7965 31.7131 44.7965V42.8501C31.4408 42.2087 29.823 42.5999 28.5096 43.0489L29.0766 31.2258L29.7173 31.7581C31.1236 36.7157 40.4554 53.6566 40.6124 53.9388Z" fill="white"/>
<path opacity="0.1" d="M18.9856 96.5908C19.1618 96.5908 28.1187 95.648 28.1187 95.648C28.1187 95.648 33.5423 106.323 33.1867 108.92C32.8311 111.518 32.1872 113.817 30.0056 113.41C27.824 113.003 18.2648 113.731 18.2648 113.731L18.9856 96.5908Z" fill="black"/>
<path d="M18.63 95.8822C18.8062 95.8822 27.7632 94.9394 27.7632 94.9394C27.7632 94.9394 33.1835 105.618 32.8311 108.212C32.4787 110.806 31.8284 113.109 29.6501 112.701C27.4717 112.294 17.9092 113.022 17.9092 113.022L18.63 95.8822Z" fill="white"/>
<path d="M25.3798 90.8701C25.3798 90.8701 33.6 95.2922 33.7762 96.6422C33.9524 97.9922 29.5924 96.0521 28.6506 95.818C28.0307 95.6685 27.3996 95.5699 26.7637 95.523L20.4817 95.693L25.3798 90.8701Z" fill="#CF6F80"/>
<path opacity="0.1" d="M37.9631 55.199C38.4408 55.199 38.8281 54.8113 38.8281 54.3332C38.8281 53.855 38.4408 53.4673 37.9631 53.4673C37.4854 53.4673 37.0982 53.855 37.0982 54.3332C37.0982 54.8113 37.4854 55.199 37.9631 55.199Z" fill="black"/>
<path d="M37.9631 54.8463C38.4408 54.8463 38.8281 54.4587 38.8281 53.9805C38.8281 53.5023 38.4408 53.1147 37.9631 53.1147C37.4854 53.1147 37.0982 53.5023 37.0982 53.9805C37.0982 54.4587 37.4854 54.8463 37.9631 54.8463Z" fill="#3F3D56"/>
<path opacity="0.1" d="M39.5553 92.6788C40.033 92.6788 40.4202 92.2911 40.4202 91.8129C40.4202 91.3347 40.033 90.9471 39.5553 90.9471C39.0776 90.9471 38.6903 91.3347 38.6903 91.8129C38.6903 92.2911 39.0776 92.6788 39.5553 92.6788Z" fill="black"/>
<path d="M39.5553 92.3227C40.033 92.3227 40.4202 91.9351 40.4202 91.4569C40.4202 90.9787 40.033 90.5911 39.5553 90.5911C39.0776 90.5911 38.6903 90.9787 38.6903 91.4569C38.6903 91.9351 39.0776 92.3227 39.5553 92.3227Z" fill="#3F3D56"/>
<path opacity="0.1" d="M38.8249 73.9389C39.3026 73.9389 39.6898 73.5512 39.6898 73.0731C39.6898 72.5949 39.3026 72.2072 38.8249 72.2072C38.3472 72.2072 37.9599 72.5949 37.9599 73.0731C37.9599 73.5512 38.3472 73.9389 38.8249 73.9389Z" fill="black"/>
<path d="M38.8249 73.586C39.3026 73.586 39.6898 73.1984 39.6898 72.7202C39.6898 72.2421 39.3026 71.8544 38.8249 71.8544C38.3472 71.8544 37.9599 72.2421 37.9599 72.7202C37.9599 73.1984 38.3472 73.586 38.8249 73.586Z" fill="#3F3D56"/>
<path d="M58.7635 95.3435C58.7635 95.3435 59.3529 96.2285 58.7635 96.6422C58.174 97.0558 58.8212 98.0563 58.8212 98.0563C58.8212 98.0563 57.3508 98.9189 57.9979 99.6949C58.645 100.471 58.2349 103.976 58.2349 103.976L56.4666 106.907C56.4666 106.907 56.5723 108.795 56.5787 111.348C56.5787 115.331 56.3448 120.93 55.0506 123.482L55.23 144.425C55.23 144.425 49.0377 146.689 43.8544 145.999L43.0855 112.393C43.0855 112.393 44.2068 93.3361 44.62 89.6805C44.8619 87.7826 44.9604 85.8692 44.9147 83.9565C44.9147 83.9565 44.7385 78.2358 44.1459 75.5807C44.1459 75.5807 43.5052 64.0783 43.4411 60.8941C43.4123 59.3709 43.4924 54.9264 43.5821 50.7C43.6814 46.0792 43.7935 41.7213 43.7935 41.7213L42.6242 32.4604C42.6242 32.4604 43.7935 32.3417 44.1459 32.8131C44.3037 32.9607 44.4754 33.0928 44.6585 33.2075C46.6767 34.5736 53.8077 38.7743 53.8077 38.7743C53.8077 38.7743 57.7544 40.3456 58.6994 42.5967C59.6445 44.8478 60.3012 46.4447 60.7593 47.0861C61.2174 47.7274 61.4673 50.7417 61.4673 50.7417C61.4673 50.7417 62.8255 56.2893 63.8859 57.2288C64.9463 58.1684 65.7215 64.1456 65.7215 64.1456L56.3513 71.521C56.3513 71.521 55.528 83.7898 55.3518 84.2644C55.1756 84.739 58.7635 95.3435 58.7635 95.3435Z" fill="white"/>
<path d="M59.1191 95.3435C59.1191 95.3435 59.7053 96.2285 59.1191 96.6422C58.5329 97.0558 59.1736 98.0563 59.1736 98.0563C59.1736 98.0563 57.7128 98.9285 58.3535 99.7045C58.9942 100.481 58.5905 103.985 58.5905 103.985L56.8222 106.916C56.8222 106.916 56.9279 108.805 56.9375 111.358C56.9375 115.34 56.7036 120.939 55.4094 123.492L55.5856 144.435C55.5856 144.435 49.3836 146.699 44.2068 146.009L43.4411 112.403C43.4411 112.403 44.5624 93.3457 44.9756 89.6901C45.2177 87.7923 45.3152 85.8788 45.2671 83.9661C45.2671 83.9661 45.0909 78.2454 44.5015 75.5903C44.5015 75.5903 43.8608 64.0879 43.7935 60.9037C43.7647 59.3805 43.848 54.936 43.9345 50.7096C44.0338 46.0888 44.1459 41.7309 44.1459 41.7309L42.6018 32.3449C42.6018 32.3449 44.1459 32.3449 44.5015 32.8227C44.6579 32.9721 44.8297 33.1043 45.014 33.2172C47.0323 34.5832 54.1665 38.784 54.1665 38.784C54.1665 38.784 58.11 40.3552 59.055 42.6063C60.0001 44.8574 60.6568 46.4544 61.1181 47.0957C61.5794 47.737 61.8229 50.7513 61.8229 50.7513C61.8229 50.7513 63.1811 56.2989 64.2415 57.2384C65.3019 58.178 66.0675 64.1424 66.0675 64.1424L56.6972 71.5178C56.6972 71.5178 55.8739 83.7866 55.6945 84.2612C55.5152 84.7357 59.1191 95.3435 59.1191 95.3435Z" fill="white"/>
<path opacity="0.1" d="M47.8972 44.4533L48.7429 46.9225L44.2901 51.4118C44.3894 46.7942 44.5015 42.4331 44.5015 42.4331L42.9574 33.0471C42.9574 33.0471 44.5015 33.0471 44.8571 33.5249C45.013 33.6739 45.1849 33.8051 45.3696 33.9162L49.1562 44.8509L47.8972 44.4533Z" fill="black"/>
<path d="M47.5416 43.7448L48.3905 46.2139L43.9377 50.7033C44.037 46.0824 44.1491 41.7246 44.1491 41.7246L42.6018 32.3386C42.6018 32.3386 44.1491 32.3386 44.5015 32.8164C44.6586 32.9648 44.8303 33.097 45.014 33.2108L48.8038 44.1424L47.5416 43.7448Z" fill="white"/>
<path opacity="0.1" d="M47.5416 19.3129C47.5442 20.4684 47.3625 21.617 47.0034 22.7152C46.9429 22.7247 46.8811 22.7219 46.8217 22.707C46.7622 22.6921 46.7064 22.6655 46.6574 22.6286C46.5741 19.7426 45.155 17.0329 43.4091 14.7273C42.9189 14.0312 42.3246 13.4147 41.6472 12.8995C40.9622 12.3846 40.1103 12.1434 39.2573 12.2229C38.2963 12.3544 37.4474 13.0086 36.4767 13.0919C35.1953 13.1977 34.0484 12.3095 32.7767 12.2646C32.2596 12.2695 31.7496 12.3848 31.2806 12.6026C30.8116 12.8205 30.3944 13.136 30.0569 13.528C29.3888 14.3192 28.8924 15.2409 28.5993 16.2345C28.0956 17.7411 27.8213 19.3151 27.7856 20.9034C27.7696 21.8013 27.6831 22.9268 26.8502 23.2539C26.9129 22.5936 26.8379 21.9274 26.63 21.2976C26.4221 20.6678 26.0858 20.088 25.6425 19.5951L25.6232 19.5758C25.6232 19.4861 25.6232 19.4027 25.6232 19.3129C25.5984 17.8563 25.8635 16.4093 26.4031 15.0564C26.9428 13.7034 27.7462 12.4715 28.7665 11.4326C29.7867 10.3937 31.0035 9.56861 32.3456 9.00537C33.6878 8.44212 35.1287 8.15204 36.584 8.15204C38.0394 8.15204 39.4802 8.44212 40.8224 9.00537C42.1646 9.56861 43.3813 10.3937 44.4016 11.4326C45.4218 12.4715 46.2252 13.7034 46.7649 15.0564C47.3046 16.4093 47.5697 17.8563 47.5448 19.3129H47.5416Z" fill="black"/>
<path d="M41.1218 1.89104C39.4571 1.10721 37.5638 0.958964 35.7976 1.47417C34.9102 1.73712 34.0741 2.16361 33.1739 2.37845C31.2518 2.84342 29.0093 2.33997 27.3595 3.46552C26.4433 4.10686 25.8923 5.12017 25.3798 6.10462L24.0984 8.54811C23.4 9.8853 22.6952 11.2449 22.4037 12.7168C22.1122 14.1887 22.2884 15.8369 23.2206 17.0202C23.8998 17.8828 24.9025 18.4247 25.6393 19.236C26.0807 19.7295 26.4155 20.3089 26.6228 20.9379C26.83 21.567 26.9053 22.2321 26.8438 22.8916C27.6799 22.5709 27.76 21.4422 27.7792 20.5443C27.8149 18.956 28.0892 17.382 28.5929 15.8754C28.8853 14.8815 29.3817 13.9597 30.0505 13.1689C30.3883 12.7772 30.8055 12.4619 31.2745 12.2441C31.7434 12.0263 32.2533 11.9108 32.7703 11.9055C34.0517 11.9504 35.2017 12.8354 36.4703 12.7296C37.4314 12.6495 38.2835 11.9921 39.2509 11.8638C40.104 11.783 40.9564 12.0244 41.6408 12.5404C42.318 13.0548 42.9114 13.6715 43.3995 14.3682C45.1486 16.6739 46.5677 19.3771 46.651 22.2695C47.013 22.5357 47.5352 22.1893 47.7146 21.7789C47.894 21.3684 47.9004 20.8874 48.1278 20.4962C48.3905 20.0441 48.8935 19.8036 49.2875 19.4637C50.287 18.6011 50.5369 17.1484 50.4984 15.8305C50.46 14.5125 50.2037 13.1754 50.4536 11.8799C50.6042 11.0846 50.9437 10.3406 51.1295 9.55501C51.3153 8.76937 51.3378 7.88754 50.8989 7.21093C50.2582 6.21686 48.9095 6.02125 47.7338 5.92825C46.398 5.81281 45.2031 5.96032 44.3509 4.83477C43.9509 4.24742 43.5007 3.69594 43.0054 3.18654C42.8357 3.01979 41.1218 1.96159 41.1218 1.89104Z" fill="#512E4E"/>
<path opacity="0.1" d="M6.3029 69.5137L2.95524 63.3184L1.89488 72.8775C1.89488 72.8775 2.48433 77.1231 2.3658 77.7741C2.24727 78.425 4.78123 84.2612 4.78123 84.2612C4.78123 84.2612 13.152 99.1851 16.5701 99.9547L28.1188 91.6943L25.0562 87.8014C25.0562 87.8014 23.9959 87.3877 23.73 87.8014C23.73 87.8014 18.0437 78.0082 17.4543 77.2995C16.8649 76.5908 16.9802 75.1767 16.9802 75.1767C16.9802 75.1767 16.096 74.2339 16.3907 73.3489C16.6855 72.4638 14.6833 69.395 14.6833 69.395L16.5093 67.6859L6.3029 69.5137Z" fill="black"/>
<path d="M3.13142 62.6127L2.24725 63.3182L1.18689 72.8773C1.18689 72.8773 1.77633 77.123 1.65781 77.7739C1.53928 78.4249 4.07646 84.2611 4.07646 84.2611C4.07646 84.2611 12.444 99.185 15.8621 99.9546L27.414 91.6942L24.3482 87.8012C24.3482 87.8012 23.2879 87.3876 23.022 87.8012C23.022 87.8012 17.3358 78.008 16.7463 77.2994C16.1569 76.5907 16.2754 75.1765 16.2754 75.1765C16.2754 75.1765 15.3912 74.2338 15.686 73.3487C15.9807 72.4637 13.9753 69.3949 13.9753 69.3949L15.8013 67.6857L3.13142 62.6127Z" fill="white"/>
<path opacity="0.1" d="M57.9978 100.06C58.6385 100.84 58.2349 104.338 58.2349 104.338L56.4666 107.269C56.4666 107.269 56.5723 109.161 56.5787 111.71L53.6058 112.64C53.3372 112.724 53.0523 112.743 52.7751 112.694C52.4978 112.646 52.2362 112.531 52.0121 112.361C51.7879 112.191 51.6077 111.969 51.4865 111.715C51.3653 111.46 51.3066 111.181 51.3153 110.899L51.8279 94.3494L58.7635 97.0045C58.174 97.415 58.8211 98.4219 58.8211 98.4219C58.8211 98.4219 57.3507 99.2813 57.9978 100.06Z" fill="black"/>
<path d="M58.3535 99.7046C58.9942 100.484 58.5905 103.985 58.5905 103.985L56.8222 106.916C56.8222 106.916 56.9279 108.805 56.9375 111.358L53.9102 112.304C53.6471 112.385 53.3682 112.403 53.0969 112.355C52.8255 112.308 52.5695 112.196 52.3501 112.029C52.1307 111.862 51.9544 111.645 51.8357 111.396C51.717 111.147 51.6594 110.873 51.6677 110.598L52.1835 93.9967L59.1223 96.6518C58.5297 97.0623 59.1768 98.066 59.1768 98.066C59.1768 98.066 57.7128 98.9285 58.3535 99.7046Z" fill="white"/>
<path d="M60.6503 91.8161C60.6503 91.8161 60.1794 94.8272 59.0005 95.0035C57.8216 95.1799 57.2931 99.8745 56.1174 99.7077C54.9417 99.541 55.7202 95.3434 55.7618 94.5289C55.8034 93.7144 54.4804 90.341 55.4703 89.5746C56.4602 88.8082 59.5932 89.5746 59.5932 89.5746L60.6503 91.8161Z" fill="#CF6F80"/>
<path opacity="0.1" d="M63.1587 68.6286L65.3819 64.1393C65.3819 64.1393 66.2661 67.5608 66.2661 69.3886C66.2661 71.2164 67.5026 71.396 67.5026 71.396C67.5026 71.396 68.8577 72.9993 68.1433 74.1665C67.429 75.3338 67.1406 78.239 67.1406 78.239C67.1406 78.239 67.3745 83.7834 66.3141 84.5498C65.2538 85.3162 65.0327 87.1472 65.0327 87.1472C65.0327 87.1472 63.085 90.6265 63.1459 91.4538C63.2067 92.2811 60.4357 97.8832 60.4357 97.8832C60.4357 97.8832 61.7908 90.9215 53.8941 87.9136C53.8941 87.9136 53.8333 85.5503 54.4227 84.9025C55.0122 84.2548 55.9316 83.9598 55.355 80.6857C54.7783 77.4117 55.1884 73.4996 55.1884 72.7139C55.1884 71.9283 56.9567 67.0285 56.9567 67.0285L63.1587 68.6286Z" fill="black"/>
<path d="M64.1197 63.4978L66.0611 64.1392C66.0611 64.1392 66.9484 67.5607 66.9484 69.3885C66.9484 71.2163 68.185 71.3959 68.185 71.3959C68.185 71.3959 69.5401 72.9992 68.8257 74.1665C68.1113 75.3337 67.8262 78.239 67.8262 78.239C67.8262 78.239 68.06 83.7833 66.9997 84.5497C65.9393 85.3161 65.7023 87.1471 65.7023 87.1471C65.7023 87.1471 63.7577 90.6264 63.8186 91.4537C63.8795 92.281 61.1052 97.8831 61.1052 97.8831C61.1052 97.8831 62.4635 90.9214 54.5637 87.9135C54.5637 87.9135 54.506 85.5502 55.0955 84.9024C55.6849 84.2547 56.6043 83.9597 56.0277 80.6857C55.4511 77.4116 55.8611 73.4995 55.8611 72.7138C55.8611 71.9282 57.6294 67.0284 57.6294 67.0284L64.1197 63.4978Z" fill="white"/>
<path opacity="0.1" d="M21.2408 179.859C21.2408 179.859 24.3354 177.912 26.3664 179.326C28.3974 180.741 21.2408 179.859 21.2408 179.859Z" fill="black"/>
<path opacity="0.1" d="M45.2863 173.84C45.2863 173.84 48.0253 173.487 50.3254 175.966C52.6256 178.445 45.2863 173.84 45.2863 173.84Z" fill="black"/>
<g opacity="0.1">
<path opacity="0.1" d="M49.2939 18.7615C48.8999 19.1014 48.3937 19.3451 48.131 19.7972C47.9068 20.1852 47.9004 20.663 47.721 21.0799C47.5416 21.4968 47.0194 21.8367 46.6574 21.5737C46.5741 18.6877 45.1518 15.9781 43.4059 13.6693C42.9177 12.9725 42.3244 12.3559 41.6471 11.8415C40.9615 11.3255 40.1081 11.0842 39.2541 11.1649C38.2931 11.2963 37.4473 11.9505 36.4767 12.0307C35.1953 12.1397 34.0452 11.2514 32.7734 11.2065C32.2566 11.2117 31.7468 11.3274 31.2783 11.5458C30.8098 11.7643 30.3934 12.0805 30.0569 12.4732C29.3881 13.2627 28.8916 14.1835 28.5993 15.1764C28.0959 16.6831 27.8216 18.257 27.7856 19.8453C27.7664 20.74 27.6831 21.8559 26.8566 22.1894C26.8758 22.4263 26.8758 22.6644 26.8566 22.9013C27.6895 22.5806 27.7728 21.4519 27.792 20.554C27.8277 18.9657 28.102 17.3917 28.6057 15.8851C28.8981 14.8912 29.3945 13.9694 30.0633 13.1786C30.4005 12.787 30.8171 12.4717 31.2855 12.2539C31.754 12.036 32.2634 11.9206 32.7799 11.9152C34.0613 11.9601 35.2145 12.8451 36.4831 12.7393C37.4442 12.6592 38.2963 12.0018 39.2605 11.8735C40.1146 11.7929 40.9679 12.0341 41.6536 12.5501C42.3308 13.0645 42.9241 13.6812 43.4123 14.3779C45.1582 16.6836 46.5805 19.3868 46.6638 22.2792C47.0258 22.5454 47.548 22.199 47.7274 21.7886C47.9068 21.3781 47.9132 20.8971 48.1374 20.5059C48.4001 20.0538 48.9063 19.8133 49.3003 19.4734C50.2998 18.6108 50.5497 17.1581 50.5112 15.8402C50.5112 15.7985 50.5112 15.7568 50.5112 15.7183C50.4504 16.8599 50.146 18.0239 49.2939 18.7615Z" fill="black"/>
<path opacity="0.1" d="M25.6456 18.5338C24.9088 17.7225 23.9029 17.1805 23.227 16.3212C22.6578 15.5604 22.3328 14.6446 22.2948 13.6949C22.194 14.8817 22.525 16.0649 23.227 17.0266C23.9029 17.8892 24.9088 18.4312 25.6456 19.2424C26.3531 20.036 26.7778 21.0419 26.8534 22.1028C26.9024 21.4572 26.8207 20.8083 26.6132 20.195C26.4057 19.5817 26.0766 19.0167 25.6456 18.5338Z" fill="black"/>
<path opacity="0.1" d="M51.1359 8.85285C50.9469 9.63849 50.6105 10.3856 50.4568 11.1777C50.3657 11.707 50.3324 12.2446 50.3575 12.781C50.3682 12.4754 50.4014 12.1711 50.4568 11.8703C50.6105 11.0751 50.9469 10.3311 51.1359 9.54549C51.2461 9.11217 51.2818 8.66325 51.2416 8.21793C51.2217 8.43184 51.1864 8.64403 51.1359 8.85285Z" fill="black"/>
</g>
<defs>
<linearGradient id="paint0_linear" x1="35.1504" y1="197.476" x2="35.1504" y2="0.156298" gradientUnits="userSpaceOnUse">
<stop stop-color="#808080" stop-opacity="0.25"/>
<stop offset="0.54" stop-color="#808080" stop-opacity="0.12"/>
<stop offset="1" stop-color="#808080" stop-opacity="0.1"/>
</linearGradient>
</defs>
</svg>
