<svg width="79" height="186" viewBox="0 0 79 186" fill="none" xmlns="http://www.w3.org/2000/svg">
<path opacity="0.1" d="M39.3703 186C60.8826 186 78.3217 183.753 78.3217 180.981C78.3217 178.21 60.8826 175.963 39.3703 175.963C17.8581 175.963 0.41893 178.21 0.41893 180.981C0.41893 183.753 17.8581 186 39.3703 186Z" fill="#6C63FF"/>
<path d="M72.2447 86.2657C72.2447 86.2657 66.9557 59.926 68.9803 56.6487C68.9803 56.6487 69.054 53.6024 68.9323 49.7191C68.9323 49.5716 68.9323 49.4241 68.9323 49.2734C69.2885 49.5111 69.6599 49.7253 70.0439 49.9147C71.9093 50.874 74.0509 51.1508 76.0985 50.6971L74.4968 48.911C74.1123 48.4845 73.7119 48.0228 73.6286 47.4584C73.5453 46.894 73.776 46.3906 73.9746 45.8871C75.4963 42.0391 75.5764 37.2002 72.6452 34.2629C70.1688 31.7937 69.5666 28.6063 66.8788 26.352C64.9151 24.7006 63.8355 22.2795 62.8168 19.9386C61.955 17.9601 61.0869 15.9655 60.5936 13.8684C60.2091 12.2298 60.0554 10.5334 59.5268 8.9333C58.9982 7.33316 58.0083 5.77792 56.461 5.06283C55.91 4.8095 55.2982 4.66519 54.7952 4.32849C54.1353 3.88276 53.7381 3.15806 53.2607 2.52314C50.8357 -0.683547 42.7148 1.20518 38.8706 2.5071C37.8255 2.83496 36.8577 3.37169 36.0259 4.08479L36.0611 4.02707C36.09 3.97897 36.1252 3.93087 36.1572 3.88277C35.7364 4.22335 35.373 4.62935 35.0808 5.08527C34.5202 5.97353 34.2864 7.00928 33.8187 7.97129C33.2548 9.10966 30.1186 12.2875 31.4673 13.567C31.5618 13.6529 31.6701 13.7223 31.7876 13.7722C32.2939 13.9831 32.8514 14.0389 33.3894 13.9325L33.3317 14.0704C32.8711 15.1993 32.635 16.4072 32.6366 17.6266C32.6366 22.8952 36.9773 27.1665 42.3368 27.1665C43.3443 27.1675 44.346 27.0128 45.3064 26.7079C45.3289 26.8298 45.3481 26.9517 45.3705 27.0735C45.3705 27.1216 45.3865 27.1697 45.3929 27.2178L45.2231 27.4551C45.2146 27.4405 45.205 27.4265 45.1943 27.4134L40.1648 34.4489C39.396 34.9908 34.9687 38.1975 34.7188 40.6025C34.4562 43.2352 34.1935 46.3168 34.1935 46.3168L34.1582 46.9774C33.9384 47.1612 33.6814 47.2952 33.4048 47.3699C33.1283 47.4446 32.8389 47.4584 32.5565 47.4103C30.9868 47.1538 30.9868 53.1823 30.9868 53.1823C30.9868 53.1823 29.9424 54.1443 29.2248 53.3106C28.5072 52.4768 26.6108 55.3019 26.6108 55.3019L14.7258 55.815L14.4535 55.831L13.8128 53.8461C13.7438 53.6367 13.5951 53.4631 13.399 53.3628C13.2028 53.2625 12.9751 53.2438 12.7652 53.3106C12.7156 53.3269 12.6674 53.3473 12.6211 53.3715L12.5762 53.3972L12.4929 53.4549L12.4513 53.4934C12.4283 53.5142 12.4069 53.5367 12.3872 53.5607L12.3488 53.6056L12.3295 53.6248C12.2556 53.7272 12.2066 53.8455 12.1866 53.9703C12.1665 54.095 12.176 54.2227 12.2142 54.3431L12.7652 56.0459C10.4715 56.5077 8.12653 57.8096 10.039 61.3946L0.345215 59.6021L3.48146 62.238L19.672 65.5826C19.4573 65.9674 19.5983 66.5253 20.2678 67.311C23.151 70.7004 28.4047 71.6208 30.519 71.8581C31.0774 73.1083 31.7749 74.2916 32.5981 75.3854L32.4155 78.762C32.4155 78.762 27.0625 104.499 26.0822 105.804C26.5771 105.243 27.03 104.646 27.4373 104.018C25.8836 109.306 23.7116 116.543 23.1414 117.627C22.2252 119.359 21.3762 126.365 22.4206 126.814C22.7409 126.952 23.6571 126.885 24.9642 126.785V127.366L24.9065 149.36C24.9065 149.36 25.1692 162.851 24.4484 164.137C23.7276 165.423 23.5354 168.119 23.5354 168.119C23.5354 168.119 20.6522 173.439 18.3681 175.578C18.3526 175.595 18.3354 175.61 18.3169 175.623L18.2464 175.123C18.2464 175.123 15.501 178.593 9.42717 178.397C9.42717 178.397 5.77197 180.776 11.1923 180.905C16.6126 181.033 23.5354 180.712 23.5354 180.712C23.5354 180.712 28.3695 173.337 32.4187 174.299V179.888H33.6585V174.209C34.2334 173.83 34.7255 173.338 35.1049 172.763C35.4843 172.188 35.7431 171.542 35.8657 170.864C35.9718 170.166 35.8941 169.451 35.6401 168.791C35.3862 168.132 34.9649 167.55 34.4177 167.103C34.1719 166.881 33.9747 166.61 33.8385 166.307C33.7023 166.005 33.6301 165.677 33.6264 165.346L33.5816 165.384C33.5816 165.272 33.5528 165.157 33.54 165.038C33.1844 162.152 32.7391 156.197 34.312 151.791C36.468 145.75 37.1215 137.335 35.5518 132.326C35.0453 130.725 34.6292 129.097 34.3056 127.449C34.2671 127.241 34.2319 127.042 34.1999 126.856C35.2729 127.001 36.3354 127.215 37.381 127.497C41.0169 128.501 48.9712 128.687 55.7627 128.632C55.7787 128.818 55.7979 129.014 55.8203 129.21C55.9414 130.569 56.1946 131.914 56.5764 133.224C57.4285 135.79 57.8193 147.1 57.8193 147.1C57.8193 147.1 58.9181 156.399 58.3191 160.183C57.9987 162.287 57.6784 164.4 57.4958 166.523V166.564C57.4958 166.564 55.6954 171.695 54.3788 174.482C54.3467 174.552 54.3115 174.623 54.2795 174.69C53.9284 174.722 53.5829 174.799 53.2511 174.918C53.2511 174.918 51.486 178.445 49.7273 179.029C47.9685 179.612 48.5516 181.533 52.5335 180.828C56.5155 180.122 62.5285 179.545 62.5285 179.545L62.788 175.947L64.0117 174.414L63.6914 178.003L64.9952 177.746L64.8222 173.382L66.8244 170.874C66.8244 170.874 69.243 168.719 65.6487 164.48V164.573C65.6102 164.512 65.575 164.448 65.5334 164.387V164.368C64.9375 163.444 64.4634 161.722 65.3315 158.666C66.9012 153.144 67.8142 148.132 67.8142 148.132C67.8142 148.132 71.3189 134.706 67.1063 128.353H67.2921C66.8604 127.46 66.5552 126.51 66.3855 125.532C66.3641 125.416 66.3449 125.297 66.3278 125.176C69.4448 124.996 72.5042 124.432 74.9997 123.213C74.9901 123.2 73.4877 91.3386 72.2447 86.2657ZM32.6718 64.0434V64.1075L32.0311 64.1396L32.6718 64.0434ZM30.4742 64.348C30.3689 64.3714 30.2702 64.4185 30.1859 64.4859C29.9104 64.876 29.7375 65.3292 29.6829 65.8038L28.6834 65.5794C28.6834 65.5794 27.9819 65.4286 26.9728 65.2587L26.4954 64.7777C27.8089 64.6687 29.1736 64.5083 30.4742 64.348Z" fill="url(#paint0_linear)"/>
<path d="M63.544 173.427L63.1628 177.97L64.4409 177.714L64.2487 172.785L63.544 173.427Z" fill="#1D2366"/>
<path d="M34.3824 151.852C32.8416 156.245 33.2772 162.174 33.6232 165.054C33.7514 166.119 33.8699 166.766 33.8699 166.766C33.8699 166.766 31.5666 172.019 31.3744 172.218C31.1822 172.416 24.5957 176.441 24.5957 176.441L19.9923 179.131C19.9923 179.131 15.3216 177.082 17.5609 176.377C18.0184 176.193 18.4305 175.912 18.7686 175.553C21.011 173.42 23.8269 168.119 23.8269 168.119C23.8269 168.119 24.0191 165.429 24.7239 164.15C25.4287 162.87 25.1724 149.425 25.1724 149.425L25.2268 127.507V124.65L33.9884 124.714C34.0437 125.684 34.17 126.648 34.3664 127.6C34.6809 129.242 35.0884 130.865 35.587 132.461C37.1311 137.46 36.4904 145.833 34.3824 151.852Z" fill="#FFB0B1"/>
<path opacity="0.1" d="M33.8699 166.766C33.8699 166.766 31.5666 172.019 31.3744 172.218C31.1822 172.416 24.5957 176.441 24.5957 176.441L19.9923 179.131C19.9923 179.131 15.3216 177.082 17.5609 176.377C18.0184 176.193 18.4305 175.912 18.7686 175.553L18.9672 176.954L20.5017 176.89L33.6361 165.06C33.7514 166.119 33.8699 166.766 33.8699 166.766Z" fill="black"/>
<path d="M33.7097 165.359L20.5017 177.268L18.9672 177.332L18.6468 175.088C18.6468 175.088 15.9623 178.544 9.99738 178.352C9.99738 178.352 6.41586 180.722 11.7241 180.85C17.0323 180.978 23.8109 180.658 23.8109 180.658C23.8109 180.658 28.5457 173.282 32.5084 174.244V179.814H33.7258V174.193C34.2917 173.812 34.7748 173.32 35.1459 172.746C35.5169 172.173 35.7683 171.531 35.8849 170.858C35.9903 170.165 35.9157 169.456 35.6683 168.8C35.4209 168.144 35.009 167.563 34.4722 167.113C34.2324 166.888 34.0412 166.616 33.91 166.314C33.7789 166.013 33.7108 165.688 33.7097 165.359Z" fill="#1D2366"/>
<path d="M64.7612 158.701C63.9091 161.748 64.3736 163.463 64.9567 164.384V164.403C65.7045 165.539 66.2245 166.81 66.4879 168.145L66.5392 168.434L60.5294 177.204L57.2683 178.487C57.2683 178.487 52.0242 176.694 52.982 176.181C53.2223 176.056 53.5971 175.389 54.0263 174.469C55.3077 171.695 57.0761 166.577 57.0761 166.577V166.535C57.2619 164.422 57.5566 162.315 57.8834 160.218C58.4696 156.444 57.3932 147.18 57.3932 147.18C57.3932 147.18 57.0088 135.915 56.1759 133.353C55.7999 132.05 55.5499 130.714 55.4295 129.363C55.2565 127.76 55.2181 126.439 55.2181 126.439C55.2181 126.439 58.6714 121.629 65.0015 126.824C65.5077 127.238 65.9531 127.722 66.3246 128.26C70.6973 134.488 67.1767 148.206 67.1767 148.206C67.1767 148.206 66.2957 153.196 64.7612 158.701Z" fill="#FFB0B1"/>
<path opacity="0.1" d="M66.5488 168.434L60.539 177.204L57.2779 178.487C57.2779 178.487 52.0337 176.694 52.9916 176.181C53.2318 176.056 53.6066 175.389 54.0359 174.469C56.2559 174.45 57.406 176.566 57.406 176.566L60.2187 176.117C60.2187 176.117 63.9283 168.819 64.7612 168.373C65.5941 167.927 64.8894 165.041 64.8894 165.041V164.307C64.9118 164.332 64.931 164.361 64.9567 164.387V164.406C65.7045 165.543 66.2245 166.813 66.4879 168.148L66.5488 168.434Z" fill="black"/>
<path d="M57.5983 176.755C57.5983 176.755 55.9965 173.811 52.9275 174.898C52.9275 174.898 51.2008 178.426 49.4741 178.997C47.7474 179.567 48.3241 181.491 52.226 180.789C56.1278 180.087 62.0095 179.506 62.0095 179.506L62.2658 175.918L66.2318 170.861C66.2318 170.861 68.596 168.716 65.0785 164.493V165.227C65.0785 165.227 65.7833 168.113 64.9503 168.559C64.1174 169.005 60.4206 176.306 60.4206 176.306L57.5983 176.755Z" fill="#1D2366"/>
<path opacity="0.1" d="M33.998 124.707C34.0533 125.677 34.1796 126.642 34.376 127.594C30.7689 127.064 27.4213 127.327 25.2269 127.501V124.643L33.998 124.707Z" fill="black"/>
<path opacity="0.1" d="M66.6802 129.059C66.6802 129.059 61.5546 129.309 55.4423 129.36C55.2693 127.757 55.2309 126.436 55.2309 126.436C55.2309 126.436 58.6842 121.626 65.0143 126.821C65.5205 127.235 65.9659 127.719 66.3374 128.257C66.4367 128.531 66.5511 128.798 66.6802 129.059Z" fill="black"/>
<path d="M66.6801 128.482C66.6801 128.482 44.23 129.569 37.3873 127.648C30.5446 125.727 23.7628 127.391 22.7409 126.946C21.719 126.5 22.5487 119.519 23.4457 117.791C24.3427 116.062 29.2632 98.5826 29.2632 98.5826L33.998 73.8718L38.9859 72.4962L39.3382 72.3968L48.0293 69.9982L54.3979 68.2377C54.3979 68.2377 67.0613 117.726 65.9753 121.376C65.581 122.773 65.5174 124.243 65.7896 125.669C65.9555 126.643 66.2552 127.59 66.6801 128.482Z" fill="#1D2366"/>
<path d="M17.4936 56.9727C17.4936 56.9727 13.0087 61.7827 16.4044 64.4635C19.8001 67.1443 22.033 64.72 22.033 64.72L17.4936 56.9727Z" fill="#C7DAF5"/>
<path opacity="0.1" d="M17.4936 56.9727C17.4936 56.9727 13.0087 61.7827 16.4044 64.4635C19.8001 67.1443 22.033 64.72 22.033 64.72L17.4936 56.9727Z" fill="black"/>
<path d="M53.7284 25.3483C53.7284 25.3483 53.2031 25.8485 52.4118 26.586C51.2842 27.641 49.6151 29.1835 48.1351 30.4758C46.0849 32.2619 44.3934 33.5734 44.9989 32.4543C45.6043 31.3352 45.489 29.3855 45.1879 27.5609C45.1655 27.439 45.1462 27.3172 45.1238 27.1985C44.8744 25.8585 44.5439 24.5349 44.1339 23.2351C44.1339 23.2351 47.4463 18.9509 49.2787 17.261C49.9611 16.6197 50.4384 16.3567 50.4673 16.8025C50.4993 17.4021 50.9478 18.7265 51.5052 20.131C51.5212 20.1759 51.5372 20.2176 51.5565 20.2625C51.9281 21.2245 52.3477 22.2121 52.7161 23.0651C53.2799 24.3734 53.7284 25.3483 53.7284 25.3483Z" fill="#FFB0B1"/>
<path opacity="0.1" d="M51.5564 20.2625C51.2451 21.9384 50.4899 23.4999 49.3696 24.7838C48.2493 26.0677 46.8051 27.0268 45.1879 27.5609C44.9332 26.0971 44.581 24.6519 44.1339 23.2351C44.1339 23.2351 50.3711 15.1703 50.4672 16.8025C50.4897 17.4214 50.9766 18.7938 51.5564 20.2625Z" fill="black"/>
<path opacity="0.1" d="M44.5664 29.7158L45.3737 28.5775C45.3737 28.5775 45.9087 31.8419 47.8756 30.4021C49.8426 28.9623 49.9387 41.2374 49.9387 41.2374L47.8276 72.8329L32.5725 71.919L33.0049 56.652L34.7316 48.9559L39.0019 37.7678L41.5423 34.0705L44.5664 29.7158Z" fill="black"/>
<path d="M49.9387 41.4331L48.0166 70.0015L47.8148 73.0286L39.3094 72.5187L38.9891 72.4995L32.5821 72.1147L33.0145 56.8444L34.7412 49.1484L39.0115 37.9603L41.5519 34.263L44.576 29.8923L45.3833 28.7571C45.3833 28.7571 45.9183 32.0215 47.8852 30.5817L47.9269 30.5528C49.849 29.3343 49.9387 41.4331 49.9387 41.4331Z" fill="#1D2366"/>
<path d="M34.9559 46.4741C34.9559 46.4741 34.1903 48.0774 32.6526 47.8177C31.1149 47.5579 31.1181 53.5897 31.1181 53.5897C31.1181 53.5897 30.0962 54.5517 29.3914 53.718C28.6866 52.8842 26.8286 55.7029 26.8286 55.7029L15.187 56.216C15.187 56.216 20.3671 58.5857 19.3516 65.7559C19.3516 65.7559 36.9389 64.6656 37.5155 63.0013C38.0921 61.337 34.9559 46.4741 34.9559 46.4741Z" fill="white"/>
<path opacity="0.03" d="M34.9559 46.4741C34.9559 46.4741 34.1903 48.0774 32.6526 47.8177C31.1149 47.5579 31.1181 53.5897 31.1181 53.5897C31.1181 53.5897 30.0962 54.5517 29.3914 53.718C28.6866 52.8842 26.8286 55.7029 26.8286 55.7029L15.187 56.216C15.187 56.216 20.3671 58.5857 19.3516 65.7559C19.3516 65.7559 36.9389 64.6656 37.5155 63.0013C38.0921 61.337 34.9559 46.4741 34.9559 46.4741Z" fill="black"/>
<path d="M1.12366 59.9837L4.19262 62.6068L29.4554 67.9203L26.3224 64.72L1.12366 59.9837Z" fill="white"/>
<path d="M44.6144 30.7259C44.1947 31.3672 42.9934 34.6509 41.9907 37.5177C41.1546 39.9066 40.4563 42.007 40.4563 42.007C40.4563 42.007 38.8257 52.634 37.9928 54.5548C37.1599 56.4756 37.6116 63.9664 37.6116 63.9664L34.5074 82.4657C34.5074 82.4657 33.101 92.0056 30.9291 97.7039C28.7859 103.312 26.3993 105.942 26.3257 106.025C27.2867 104.723 32.5244 79.0891 32.5244 79.0891L34.2543 46.7593C34.2543 46.7593 34.5074 43.6873 34.7637 41.0611C35.0199 38.4348 40.2096 34.8497 40.2096 34.8497L45.2135 27.7277C45.7164 28.4011 45.38 29.5747 44.6144 30.7259Z" fill="white"/>
<path d="M31.5666 72.275C31.5666 72.275 24.1985 71.9543 20.6298 67.6638C17.0611 63.3732 28.8788 65.9514 28.8788 65.9514L31.951 66.6569L31.5666 72.275Z" fill="#FFB0B1"/>
<path opacity="0.1" d="M65.9754 121.379C65.581 122.776 65.5174 124.246 65.7896 125.673C57.752 126.243 49.1538 124.069 49.1538 124.069C47.5521 125.544 43.333 127.719 43.333 127.719L41.0329 99.179C39.5625 95.331 38.9859 75.1706 38.9859 75.1706C38.9859 75.1706 39.1172 74.1156 39.3063 72.5347C39.3063 72.4962 39.3062 72.4545 39.3223 72.4161C39.8957 68.0005 41.0329 59.7112 41.5903 58.592C42.3592 57.0528 39.2262 52.9579 39.2262 52.9579L40.6517 40.7885L40.8247 39.3199C43.8296 37.9763 46.1329 33.6857 46.1329 33.6857L47.9012 30.5849C49.8233 29.3503 49.9226 41.4491 49.9226 41.4491L48.0005 70.0175L54.3691 68.257C54.3691 68.257 67.0614 117.73 65.9754 121.379Z" fill="black"/>
<path d="M74.2245 123.351C65.4629 127.706 49.5383 123.672 49.5383 123.672C47.9365 125.147 43.7175 127.321 43.7175 127.321L41.4141 98.7813C39.9469 94.9333 39.3703 74.7729 39.3703 74.7729C39.3703 74.7729 41.2219 59.7303 41.9908 58.1943C42.215 57.7454 42.1061 57.0784 41.8402 56.3601C40.533 52.9412 40.0522 49.2613 40.4371 45.6209L41.0521 40.3908L41.2219 38.9254C44.23 37.5786 46.5334 33.288 46.5334 33.288L48.1351 30.479L51.0823 25.3034L52.4791 22.8535L52.7161 23.0683L54.5261 24.7102C54.5261 24.7102 55.2949 25.3515 56.4482 26.3135C58.9566 28.4299 63.2909 32.1561 65.527 34.436C67.4939 36.4434 68.1154 44.2517 68.2948 50.1295C68.4133 54 68.3428 57.0335 68.3428 57.0335C66.3599 60.3011 71.5464 86.535 71.5464 86.535C72.7541 91.6048 74.2245 123.351 74.2245 123.351Z" fill="white"/>
<path opacity="0.03" d="M57.406 33.224C57.406 33.224 51.3931 44.6814 52.0914 49.0361C52.7898 53.3908 54.776 58.3195 53.8181 59.4707C53.489 59.9068 53.0636 60.2609 52.5751 60.5051C52.0866 60.7493 51.5483 60.8771 51.0022 60.8784C50.0412 60.9425 47.4784 62.7351 47.4784 62.9275C47.4784 63.1199 45.111 63.1199 42.9935 64.0178C40.876 64.9156 37.7493 65.4255 37.7493 65.4255C37.7493 65.4255 31.6627 65.2331 31.0957 65.8103C30.5287 66.3875 29.9456 69.8411 31.1597 72.5956C32.3739 75.3502 33.7225 77.4057 34.7413 77.7809C35.76 78.156 42.2246 75.9883 47.4688 75.4753C52.7129 74.9622 58.4055 70.8031 58.4055 70.8031C58.4055 70.8031 64.6748 68.5584 65.7736 64.7842C66.8724 61.0099 64.4313 40.2658 64.4313 40.2658C64.4313 40.2658 62.5861 30.5977 57.406 33.224Z" fill="black"/>
<path opacity="0.03" d="M56.6372 32.262C56.6372 32.262 50.6242 43.7227 51.329 48.0742C52.0338 52.4256 54.0136 57.3575 53.0525 58.5119C52.7246 58.9486 52.2998 59.303 51.8117 59.5473C51.3236 59.7916 50.7855 59.9191 50.2398 59.9197C49.2788 59.9838 46.716 61.7763 46.716 61.9687C46.716 62.1611 44.3486 62.1611 42.231 63.0558C40.1135 63.9505 36.9869 64.4635 36.9869 64.4635C36.9869 64.4635 30.9003 64.2711 30.3364 64.8484C29.7726 65.4256 29.1832 68.8824 30.4005 71.6337C31.6178 74.385 32.9633 76.4437 33.982 76.8189C35.0007 77.1941 41.4654 75.0264 46.7096 74.5165C51.9537 74.0066 57.6463 69.8412 57.6463 69.8412C57.6463 69.8412 63.9124 67.5965 64.9984 63.8254C66.0844 60.0544 63.6561 39.3039 63.6561 39.3039C63.6561 39.3039 61.8173 29.6389 56.6372 32.262Z" fill="black"/>
<path d="M57.217 32.6468C57.217 32.6468 51.204 44.1075 51.9088 48.459C52.6136 52.8104 54.5933 57.7423 53.6355 58.8935C53.3076 59.3312 52.8825 59.6865 52.3938 59.9314C51.9051 60.1762 51.3661 60.304 50.8196 60.3045C49.8586 60.3686 47.2958 62.1611 47.2958 62.3503C47.2958 62.5395 44.9316 62.5427 42.8109 63.4406C40.6902 64.3385 37.5667 64.8483 37.5667 64.8483C37.5667 64.8483 31.4801 64.6559 30.9131 65.2331C30.3461 65.8103 29.763 69.2671 30.9772 72.0185C32.1913 74.7698 33.5399 76.8285 34.5587 77.2037C35.5774 77.5789 42.042 75.4111 47.2862 74.8981C52.5303 74.385 58.2229 70.2259 58.2229 70.2259C58.2229 70.2259 64.4922 67.9813 65.591 64.207C66.6898 60.4327 64.2647 39.6887 64.2647 39.6887C64.2647 39.6887 62.3939 30.0366 57.217 32.6468Z" fill="white"/>
<path opacity="0.1" d="M57.0857 63.386C57.0857 63.386 52.2805 62.424 53.9527 64.0273C55.6249 65.6307 55.6153 67.0352 57.6623 66.9711C59.7093 66.9069 57.0857 63.386 57.0857 63.386Z" fill="black"/>
<path opacity="0.1" d="M65.2066 97.8836C65.2066 97.8836 63.0346 99.3555 67.1896 102.748C71.3446 106.141 65.2066 97.8836 65.2066 97.8836Z" fill="black"/>
<path opacity="0.1" d="M61.0612 109.982C61.0612 110.175 60.2924 117.037 63.1691 118.753C66.0459 120.468 61.0612 109.982 61.0612 109.982Z" fill="black"/>
<path d="M15.3857 56.1998C13.0663 56.2799 8.05608 56.9886 10.6541 61.8403C12.951 66.1341 16.8112 63.2641 18.9832 61.0868C18.4534 59.0568 17.1657 57.3076 15.3857 56.1998Z" fill="#FFB0B1"/>
<path d="M19.0121 61.0482L19.1086 60.9489L19.0121 61.0482Z" fill="#FFB0B1"/>
<path opacity="0.1" d="M56.4482 26.5091C53.9879 28.1927 51.9248 29.6132 51.5212 29.9082C50.4192 30.7259 48.3177 35.5263 46.9626 37.9762C45.883 39.9484 42.3752 40.455 41.0522 40.5801L41.2219 39.1146C44.23 37.7678 46.5334 33.4773 46.5334 33.4773L52.4791 23.0427L54.5261 24.9058C54.5261 24.9058 55.2949 25.5471 56.4482 26.5091Z" fill="black"/>
<path d="M56.4482 26.3168C53.9879 28.0003 51.9248 29.4208 51.5212 29.7191C50.4192 30.5336 48.3177 35.334 46.9626 37.7839C45.883 39.756 42.3752 40.2626 41.0522 40.3877L41.2219 38.9223C44.23 37.5754 46.5334 33.2849 46.5334 33.2849L52.4791 22.8503L54.5261 24.707C54.5261 24.707 55.2949 25.3419 56.4482 26.3168Z" fill="#DCE7FF"/>
<path d="M51.7134 18.1461C51.7148 20.071 51.1316 21.9509 50.0412 23.5365C48.7534 25.4113 46.8369 26.7618 44.6395 27.3431C42.442 27.9244 40.1092 27.6979 38.0643 26.7048C36.0194 25.7117 34.3978 24.0177 33.4939 21.9302C32.59 19.8427 32.4637 17.5 33.1377 15.3272C33.8118 13.1544 35.2416 11.2954 37.1678 10.0876C39.0939 8.87981 41.3888 8.40317 43.636 8.74419C45.8833 9.08521 47.9339 10.2213 49.4159 11.9463C50.8979 13.6713 51.713 15.8709 51.7134 18.1461Z" fill="#FFB0B1"/>
<path opacity="0.1" d="M68.2947 50.1328C66.9938 49.3318 65.9343 48.1925 65.229 46.8364C64.694 45.7781 64.3384 44.5564 63.4254 43.806C62.6021 43.1326 61.5033 42.9691 60.4782 42.6677C57.1081 41.6704 54.2826 38.592 54.1769 35.0774C54.1256 33.4228 54.6414 31.7713 54.4075 30.1327C54.2746 29.2053 53.9062 28.3276 53.3376 27.5834C53.0552 27.2275 52.7457 26.8941 52.4118 26.5861C51.9633 26.1629 51.4923 25.7524 51.0823 25.3035C50.824 25.0255 50.5983 24.7189 50.4096 24.3896C50.2572 24.1201 50.1337 23.8352 50.0412 23.5398C49.4005 21.5773 49.9835 19.2492 49.2787 17.2643L49.2403 17.1553C48.9744 16.4498 48.433 15.7443 47.6802 15.6898C46.9274 15.6353 46.2835 16.2606 45.5659 16.5396C44.0634 17.1232 42.4424 16.1291 41.1899 15.1158C39.9373 14.1025 38.5246 12.9449 36.9324 13.1694C35.8785 13.3201 35.0456 14.0384 34.0749 14.4104C33.8557 14.4953 33.6296 14.5607 33.399 14.606C34.2204 12.5553 35.7297 10.8551 37.6674 9.79727C39.6052 8.73949 41.8505 8.39024 44.0175 8.80951C46.1846 9.22878 48.1381 10.3904 49.5425 12.0948C50.9469 13.7992 51.7145 15.94 51.7134 18.1493C51.7145 18.8165 51.6447 19.4819 51.5052 20.1343C51.5212 20.1792 51.5372 20.2209 51.5564 20.2658C51.928 21.2278 52.3477 22.2154 52.7161 23.0684L54.5261 24.7102C54.5261 24.7102 55.2949 25.3516 56.4482 26.3136C58.9565 28.43 63.2909 32.1561 65.5269 34.4361C67.4939 36.4499 68.1089 44.255 68.2947 50.1328Z" fill="black"/>
<path d="M33.9628 8.55176C34.4209 7.61861 34.6484 6.57324 35.1962 5.68819C36.0002 4.40552 37.4034 3.5846 38.845 3.08757C42.6091 1.78886 50.5634 -0.0966723 52.9404 3.08757C53.4081 3.7289 53.7957 4.44079 54.4428 4.88331C54.9362 5.22001 55.532 5.36432 56.0734 5.61764C57.5886 6.32953 58.5561 7.88156 59.0719 9.46567C59.5876 11.0498 59.7414 12.7493 60.1194 14.3815C60.6031 16.4755 61.4521 18.4604 62.2978 20.4325C63.2941 22.7606 64.3513 25.1752 66.2734 26.8202C68.897 29.0649 69.4769 32.2427 71.9115 34.7055C74.7947 37.63 74.7018 42.456 73.2153 46.288C73.0199 46.7915 72.7989 47.3174 72.8758 47.8529C72.9527 48.3884 73.3499 48.8758 73.7247 49.3023L75.3008 51.082C71.5719 51.9831 67.3529 50.0334 65.6166 46.6119C65.0816 45.5537 64.7261 44.3351 63.8099 43.5816C62.9898 42.9082 61.8878 42.7478 60.8658 42.4464C57.4958 41.4459 54.6702 38.3643 54.5645 34.8498C54.5133 33.1983 55.029 31.5469 54.7952 29.9115C54.6651 28.9779 54.2953 28.094 53.722 27.3461C52.8411 26.1949 51.5116 25.4221 50.794 24.1394C49.5799 21.9942 50.5025 19.2076 49.6279 16.9052C49.3588 16.1997 48.8207 15.4942 48.0678 15.4397C47.315 15.3852 46.6711 16.0105 45.9503 16.2895C44.4511 16.8731 42.8301 15.8822 41.5775 14.8657C40.325 13.8492 38.9122 12.6948 37.3169 12.9225C36.2629 13.07 35.4332 13.7883 34.4625 14.1635C33.745 14.4392 32.2906 14.6861 31.6627 14.0801C30.3364 12.8583 33.4086 9.69334 33.9628 8.55176Z" fill="#591D4B"/>
<path opacity="0.1" d="M66.5072 45.5537C65.969 44.4954 65.6166 43.2769 64.7004 42.5265C63.8803 41.8531 62.7783 41.6896 61.7532 41.3882C58.3863 40.3909 55.5608 37.3093 55.4519 33.7947C55.4007 32.1433 55.9164 30.4886 55.6858 28.8532C55.5516 27.9256 55.1821 27.0479 54.6126 26.3039C53.7284 25.1527 52.399 24.3799 51.6846 23.0972C50.4705 20.9552 51.3931 18.1686 50.5153 15.863C50.2494 15.1607 49.708 14.4552 48.9584 14.3975C48.2088 14.3398 47.5585 14.9715 46.8409 15.2505C45.3417 15.8341 43.7175 14.84 42.4681 13.8267C41.2188 12.8134 39.7996 11.6558 38.2075 11.8803C37.1535 12.031 36.3206 12.7493 35.3532 13.1212C34.6356 13.397 33.178 13.6471 32.5501 13.0411C31.2302 11.7584 34.3024 8.59981 34.8534 7.46465C35.3115 6.5283 35.539 5.48613 36.09 4.60108C36.1188 4.55298 36.1508 4.50489 36.1829 4.45679C35.7707 4.79857 35.415 5.20331 35.1289 5.65608C34.5811 6.54113 34.3537 7.58009 33.8956 8.51965C33.3414 9.65482 30.2692 12.823 31.5922 14.0961C32.2329 14.7053 33.6745 14.4552 34.3921 14.1794C35.3532 13.8043 36.1925 13.086 37.2464 12.9385C38.8482 12.7108 40.2577 13.8684 41.5071 14.8817C42.7565 15.895 44.3902 16.8891 45.8831 16.3055C46.6007 16.0265 47.2285 15.398 47.9974 15.4557C48.7662 15.5134 49.2788 16.2157 49.5575 16.9212C50.432 19.2236 49.5094 22.0102 50.7236 24.1554C51.4411 25.4157 52.7706 26.2045 53.6516 27.3621C54.2248 28.11 54.5946 28.9939 54.7247 29.9275C54.9586 31.5629 54.4428 33.2143 54.4941 34.8658C54.5998 38.3931 57.4253 41.4619 60.7954 42.4624C61.8109 42.7638 62.9193 42.9242 63.7394 43.5976C64.6588 44.3511 65.0208 45.5697 65.5462 46.6279C67.2825 50.0494 71.5015 51.9991 75.2303 51.098L74.4872 50.2579C71.2548 50.306 67.984 48.4653 66.5072 45.5537Z" fill="black"/>
<path opacity="0.1" d="M44.4222 30.9184C44.0026 31.5598 42.8013 34.8434 41.7986 37.7102C40.8599 37.3446 40.0078 35.0134 40.0078 35.0134L45.0117 27.8881C45.5243 28.5936 45.1879 29.764 44.4222 30.9184Z" fill="black"/>
<path d="M44.6144 30.7258C44.1948 31.3672 42.9935 34.6508 41.9908 37.5176C41.0521 37.1552 40.2 34.8208 40.2 34.8208L45.2039 27.6987C45.7165 28.401 45.3801 29.5746 44.6144 30.7258Z" fill="#DCE7FF"/>
<path d="M15.5202 63.4854L12.746 54.728C12.7131 54.6255 12.7008 54.5174 12.7098 54.4102C12.7188 54.3029 12.7488 54.1984 12.7983 54.1027C12.8477 54.0071 12.9155 53.9222 12.9977 53.8528C13.08 53.7835 13.1752 53.7311 13.2778 53.6986C13.4842 53.6341 13.7078 53.6539 13.8998 53.7536C14.0918 53.8533 14.2367 54.0248 14.3029 54.231L17.0771 62.9788L16.8016 64.8098L15.5202 63.4854Z" fill="#BE8B87"/>
<path opacity="0.1" d="M13.0087 53.9584C13.2156 53.8929 13.44 53.9122 13.6327 54.0119C13.8255 54.1117 13.9708 54.2839 14.037 54.4907L16.8112 63.2386L16.603 64.611L16.8048 64.8227L17.0804 62.9917L14.2901 54.2438C14.2239 54.0377 14.079 53.8661 13.887 53.7664C13.695 53.6667 13.4714 53.647 13.265 53.7115C13.0912 53.7679 12.9413 53.8808 12.8389 54.0322C12.8934 54.0029 12.9502 53.9782 13.0087 53.9584Z" fill="white"/>
<path d="M15.5202 63.4855L17.0771 62.9916L16.8497 64.4923L16.8016 64.8226L16.3467 64.348L15.5202 63.4855Z" fill="#EFC8C4"/>
<path d="M16.3467 64.348C16.3738 64.3137 16.4076 64.2854 16.446 64.2646C16.4686 64.2504 16.4947 64.2428 16.5213 64.2428C16.548 64.2428 16.5741 64.2504 16.5966 64.2646C16.6184 64.291 16.6367 64.3201 16.6511 64.3512C16.6722 64.3866 16.7011 64.4168 16.7354 64.4395C16.7698 64.4623 16.8089 64.477 16.8497 64.4827L16.8016 64.8033L16.3467 64.348Z" fill="#727A9C"/>
<path d="M12.73 57.8385C12.73 57.8385 18.2944 57.8064 16.9842 60.1761C15.674 62.5459 13.6269 62.8313 13.6269 62.8313L12.73 57.8385Z" fill="#FFB0B1"/>
<defs>
<linearGradient id="paint0_linear" x1="71259.2" y1="148816" x2="71259.2" y2="47529.5" gradientUnits="userSpaceOnUse">
<stop stop-color="#808080" stop-opacity="0.25"/>
<stop offset="0.54" stop-color="#808080" stop-opacity="0.12"/>
<stop offset="1" stop-color="#808080" stop-opacity="0.1"/>
</linearGradient>
</defs>
</svg>
