<svg width="102" height="97" viewBox="0 0 102 97" fill="none" xmlns="http://www.w3.org/2000/svg">
<path d="M74.1225 0.4888H73.8822C64.323 0.4888 55.869 5.55215 51.006 13.0237C46.1431 5.55215 37.6891 0.4888 28.1298 0.4888H27.8896C20.7156 0.557234 13.8585 3.45691 8.80834 8.55769C3.75821 13.6585 0.92316 20.5482 0.919266 27.7296C0.919266 36.6474 4.82113 49.3009 12.4295 59.713C26.9253 79.5528 51.006 96.9106 51.006 96.9106C51.006 96.9106 75.0868 79.556 89.5794 59.713C97.1909 49.3009 101.09 36.6474 101.09 27.7296C101.086 20.5487 98.2511 13.6595 93.2017 8.55881C88.1522 3.45812 81.2959 0.558073 74.1225 0.4888ZM70.6852 61.2394C69.5965 61.2353 68.5345 60.9017 67.6386 60.2825C66.7428 59.6633 66.0549 58.7874 65.6653 57.7698H59.9502C59.5739 57.7674 59.2077 57.6475 58.9027 57.4268C58.5977 57.206 58.3693 56.8954 58.2492 56.5384L56.4936 51.2442L50.9388 70.6735C50.8306 71.0475 50.6041 71.3763 50.2933 71.6105C49.9826 71.8447 49.6043 71.9716 49.2153 71.9722H49.1032C48.6973 71.9526 48.3104 71.7941 48.0072 71.5233C47.704 71.2525 47.5029 70.8857 47.4373 70.4843L41.7127 36.0189L37.5289 56.4134C37.433 56.8008 37.2102 57.1449 36.896 57.3907C36.5819 57.6366 36.1946 57.77 35.7958 57.7698H27.7454C27.5041 57.78 27.2632 57.7413 27.0372 57.6559C26.8112 57.5705 26.6048 57.4402 26.4305 57.2729C26.2561 57.1056 26.1173 56.9047 26.0226 56.6823C25.9278 56.4599 25.8789 56.2206 25.8789 55.9789C25.8789 55.7371 25.9278 55.4978 26.0226 55.2754C26.1173 55.053 26.2561 54.8521 26.4305 54.6848C26.6048 54.5175 26.8112 54.3872 27.0372 54.3018C27.2632 54.2165 27.5041 54.1777 27.7454 54.1879H34.3863L40.3127 26.7676C40.41 26.3622 40.645 26.0032 40.9774 25.752C41.3098 25.5008 41.7191 25.373 42.1353 25.3904C42.5514 25.4078 42.9486 25.5694 43.259 25.8475C43.5693 26.1256 43.7735 26.503 43.8366 26.9151L49.683 62.0732L54.6612 44.6897C54.7649 44.3236 54.9841 44.0009 55.286 43.7697C55.588 43.5385 55.9565 43.4113 56.3367 43.4071H56.3719C56.7484 43.4072 57.1152 43.5263 57.4201 43.7474C57.725 43.9685 57.9524 44.2803 58.0698 44.6384L61.2444 54.1975H65.5948C65.9041 53.2569 66.467 52.4201 67.2214 51.7795C67.9758 51.1389 68.8924 50.7193 69.87 50.5672C70.8476 50.4151 71.8481 50.5363 72.7612 50.9175C73.6743 51.2986 74.4644 51.9249 75.0444 52.7271C75.6244 53.5294 75.9716 54.4765 76.0478 55.4638C76.124 56.4512 75.9262 57.4404 75.4763 58.3223C75.0263 59.2042 74.3417 59.9446 73.4979 60.4616C72.6541 60.9786 71.6841 61.2522 70.6948 61.2523L70.6852 61.2394Z" fill="#13F1FC"/>
</svg>
