<svg width="74" height="108" viewBox="0 0 74 108" fill="none" xmlns="http://www.w3.org/2000/svg">
<path opacity="0.1" d="M42.5201 107.897C59.7597 107.897 73.7351 105.65 73.7351 102.879C73.7351 100.107 59.7597 97.8602 42.5201 97.8602C25.2806 97.8602 11.3052 100.107 11.3052 102.879C11.3052 105.65 25.2806 107.897 42.5201 107.897Z" fill="#6C63FF"/>
<path d="M43.526 6.74225H41.5174V52.011H43.526V6.74225Z" fill="#3F3D56"/>
<path d="M56.1478 51.8732L56.0229 53.9127L55.8435 56.7987L55.7698 57.998L55.5936 60.884L55.5167 62.0833L55.3373 64.9693L53.3127 97.6999C53.2247 99.1082 52.6039 100.43 51.5767 101.396C50.5495 102.363 49.1931 102.901 47.7834 102.901H37.2567C35.8475 102.901 34.4914 102.362 33.4647 101.396C32.438 100.43 31.8179 99.1079 31.7307 97.6999L29.7157 64.9469L29.5363 62.0609L29.4626 60.8615L29.2832 57.9755L29.2095 56.7762L29.0301 53.8902L28.902 51.8508C28.8797 51.4582 28.9378 51.0653 29.0727 50.6961C29.2076 50.3268 29.4165 49.989 29.6864 49.7035C29.9564 49.4179 30.2818 49.1906 30.6427 49.0355C31.0036 48.8803 31.3924 48.8006 31.7852 48.8012H53.3159C53.7072 48.8046 54.0936 48.8882 54.4514 49.0469C54.8091 49.2055 55.1306 49.4359 55.396 49.7238C55.6613 50.0116 55.865 50.3509 55.9943 50.7206C56.1236 51.0903 56.1758 51.4825 56.1478 51.8732Z" fill="#3F3D56"/>
<path d="M56.0229 53.9127L55.8435 56.7891H29.1967L29.0173 53.9127H56.0229Z" fill="#9D9CB5"/>
<path d="M55.7698 57.9883L55.5936 60.868H29.4498L29.2704 57.9883H55.7698Z" fill="#9D9CB5"/>
<path d="M55.5167 62.0705L55.3405 64.9469H29.7029L29.5235 62.0705H55.5167Z" fill="#9D9CB5"/>
<path d="M25.9516 23.709C37.6476 32.1811 42.5297 45.4311 42.5297 45.4311C42.5297 45.4311 28.4343 44.9469 16.7351 36.4748C5.03589 28.0028 0.163361 14.756 0.163361 14.756C0.163361 14.756 14.2524 15.2369 25.9516 23.709Z" fill="#13F1FC"/>
<path d="M0.153778 14.756C0.153778 14.756 14.7874 22.8849 19.4805 29.6157C24.1736 36.3465 42.5297 45.4311 42.5297 45.4311" stroke="#3F3D56" stroke-width="2" stroke-miterlimit="10"/>
<path d="M33.5022 6.643C39.8676 11.251 42.5297 18.4628 42.5297 18.4628C42.5297 18.4628 34.8573 18.1999 28.4888 13.5919C22.1202 8.98388 19.4645 1.76886 19.4645 1.76886C19.4645 1.76886 27.1337 2.0318 33.5022 6.643Z" fill="#13F1FC"/>
<path d="M19.4645 1.76886C19.4645 1.76886 27.4284 6.19406 29.9816 9.85609C32.5348 13.5181 42.5297 18.4628 42.5297 18.4628" stroke="#3F3D56" stroke-width="2" stroke-miterlimit="10"/>
<path d="M51.7718 18.0971C44.4582 26.1427 42.9109 36.6574 42.9109 36.6574C42.9109 36.6574 53.223 34.1241 60.5302 26.0753C67.8374 18.0265 69.3911 7.51501 69.3911 7.51501C69.3911 7.51501 59.0854 10.0515 51.7718 18.0971Z" fill="#13F1FC"/>
<path d="M69.3975 7.51837C69.3975 7.51837 59.8703 15.766 57.4484 21.4482C55.0266 27.1305 42.9109 36.6575 42.9109 36.6575" stroke="#3F3D56" stroke-width="2" stroke-miterlimit="10"/>
</svg>
