<svg xmlns="http://www.w3.org/2000/svg" width="35" height="17" viewBox="0 0 35 17">
  <defs>
    <style>
      .cls-1 {
        fill: #494949;
        fill-rule: evenodd;
      }
    </style>
  </defs>
  <path id="arrow_icon" data-name="arrow icon" class="cls-1" d="M869.231,3796.05l7.956,7.72a0.8,0.8,0,0,0,.562.23,0.786,0.786,0,0,0,.8-0.77,0.757,0.757,0,0,0-.234-0.55l-6.6-6.41h31.492a0.77,0.77,0,1,0,0-1.54H871.714l6.6-6.41a0.757,0.757,0,0,0,.234-0.55,0.786,0.786,0,0,0-.8-0.77,0.8,0.8,0,0,0-.562.23l-7.956,7.72A0.766,0.766,0,0,0,869.231,3796.05Z" transform="translate(-869 -3787)"/>
</svg>
