<svg width="327" height="122" viewBox="0 0 327 122" fill="none" xmlns="http://www.w3.org/2000/svg">
<path d="M74.5269 36.7016C77.0561 39.1614 88.8461 41.7078 88.8461 41.7078C88.8461 41.7078 85.9611 29.9805 83.4223 27.5176C82.1983 26.38 80.5784 25.7677 78.9094 25.8117C77.2404 25.8556 75.6548 26.5524 74.4922 27.7527C73.3295 28.9531 72.6822 30.5617 72.6886 32.2342C72.6951 33.9068 73.3549 35.5103 74.5269 36.7016Z" fill="#6C63FF"/>
<path d="M81.1944 57.9244C84.6564 58.6116 95.94 54.331 95.94 54.331C95.94 54.331 87.1472 46.059 83.6884 45.3718C82.8587 45.1903 82.0013 45.1764 81.1662 45.3307C80.3311 45.4851 79.5351 45.8047 78.8248 46.2709C78.1144 46.737 77.504 47.3403 77.0291 48.0456C76.5542 48.7508 76.2245 49.5438 76.0591 50.3782C75.8938 51.2126 75.8961 52.0717 76.0661 52.9052C76.236 53.7387 76.5701 54.5298 77.0489 55.2324C77.5276 55.935 78.1414 56.535 78.8543 56.9972C79.5672 57.4594 80.3649 57.7746 81.2009 57.9244H81.1944Z" fill="#6C63FF"/>
<path d="M105.48 80.8814C108.814 79.7254 116.379 70.3261 116.379 70.3261C116.379 70.3261 104.624 67.6319 101.29 68.788C99.7387 69.3793 98.4779 70.5523 97.7748 72.0585C97.0717 73.5648 96.9813 75.2861 97.523 76.8579C98.0646 78.4297 99.1956 79.7286 100.677 80.4796C102.158 81.2306 103.872 81.3747 105.457 80.8814H105.48Z" fill="#6C63FF"/>
<path d="M127.758 94.1211C131.24 93.5463 140.292 85.5664 140.292 85.5664C140.292 85.5664 129.159 80.9198 125.678 81.4946C124.034 81.8005 122.575 82.7399 121.615 84.1112C120.654 85.4825 120.269 87.1764 120.541 88.8292C120.813 90.482 121.722 91.962 123.071 92.9514C124.421 93.9408 126.103 94.3607 127.758 94.1211Z" fill="#6C63FF"/>
<path d="M105.765 45.1663C105.765 48.6987 99.3828 58.952 99.3828 58.952C99.3828 58.952 92.9909 48.7051 92.9877 45.1727C92.9877 43.4754 93.6608 41.8475 94.8589 40.6473C96.057 39.4471 97.682 38.7728 99.3764 38.7728C101.071 38.7728 102.696 39.4471 103.894 40.6473C105.092 41.8475 105.765 43.4754 105.765 45.1727V45.1663Z" fill="#6C63FF"/>
<path d="M131.624 60.9718C130.57 64.3436 121.418 72.211 121.418 72.211C121.418 72.211 118.379 60.519 119.434 57.1473C119.656 56.3127 120.044 55.5317 120.575 54.8515C121.107 54.1712 121.77 53.6057 122.525 53.1891C123.281 52.7725 124.112 52.5134 124.97 52.4273C125.828 52.3413 126.695 52.4301 127.517 52.6884C128.34 52.9468 129.102 53.3693 129.758 53.9305C130.413 54.4917 130.948 55.18 131.331 55.9539C131.714 56.7279 131.937 57.5715 131.985 58.4338C132.034 59.2962 131.908 60.1595 131.615 60.9718H131.624Z" fill="#6C63FF"/>
<path d="M154.653 79.7894C154.185 83.2897 146.492 92.5957 146.492 92.5957C146.492 92.5957 141.523 81.5877 142.004 78.0843C142.116 77.2516 142.39 76.4492 142.811 75.7228C143.233 74.9964 143.793 74.3602 144.46 73.8506C145.126 73.341 145.887 72.9679 146.698 72.7527C147.508 72.5375 148.353 72.4844 149.184 72.5963C150.016 72.7083 150.817 72.9832 151.542 73.4052C152.267 73.8273 152.902 74.3884 153.411 75.0563C153.919 75.7242 154.292 76.486 154.507 77.2981C154.721 78.1102 154.775 78.9568 154.663 79.7894H154.653Z" fill="#6C63FF"/>
<path opacity="0.25" d="M154.653 79.7894C154.185 83.2897 146.492 92.5957 146.492 92.5957C146.492 92.5957 141.523 81.5877 142.004 78.0843C142.116 77.2516 142.39 76.4492 142.811 75.7228C143.233 74.9964 143.793 74.3602 144.46 73.8506C145.126 73.341 145.887 72.9679 146.698 72.7527C147.508 72.5375 148.353 72.4844 149.184 72.5963C150.016 72.7083 150.817 72.9832 151.542 73.4052C152.267 73.8273 152.902 74.3884 153.411 75.0563C153.919 75.7242 154.292 76.486 154.507 77.2981C154.721 78.1102 154.775 78.9568 154.663 79.7894H154.653Z" fill="black"/>
<path d="M155.288 104.76C155.288 104.76 140.542 78.5853 118.321 71.0422C108.996 67.8759 100.857 61.9224 95.2925 53.7852C92.6592 49.921 90.3845 45.8236 88.4967 41.5441" stroke="#535461" stroke-width="2" stroke-miterlimit="10"/>
<path opacity="0.25" d="M74.5269 36.7016C77.0561 39.1614 88.8461 41.7078 88.8461 41.7078C88.8461 41.7078 85.9611 29.9805 83.4223 27.5176C82.1983 26.38 80.5784 25.7677 78.9094 25.8117C77.2404 25.8556 75.6548 26.5524 74.4922 27.7527C73.3295 28.9531 72.6822 30.5617 72.6886 32.2342C72.6951 33.9068 73.3549 35.5103 74.5269 36.7016Z" fill="black"/>
<path opacity="0.25" d="M81.1944 57.9244C84.6564 58.6116 95.94 54.331 95.94 54.331C95.94 54.331 87.1472 46.059 83.6884 45.3718C82.8587 45.1903 82.0013 45.1764 81.1662 45.3307C80.3311 45.4851 79.5351 45.8047 78.8248 46.2709C78.1144 46.737 77.504 47.3403 77.0291 48.0456C76.5542 48.7508 76.2245 49.5438 76.0591 50.3782C75.8938 51.2126 75.8961 52.0717 76.0661 52.9052C76.236 53.7387 76.5701 54.5298 77.0489 55.2324C77.5276 55.935 78.1414 56.535 78.8543 56.9972C79.5672 57.4594 80.3649 57.7746 81.2009 57.9244H81.1944Z" fill="black"/>
<path opacity="0.25" d="M105.48 80.8814C108.814 79.7254 116.379 70.3261 116.379 70.3261C116.379 70.3261 104.624 67.6319 101.29 68.788C99.7387 69.3793 98.4779 70.5523 97.7748 72.0585C97.0717 73.5648 96.9813 75.2861 97.523 76.8579C98.0646 78.4297 99.1956 79.7286 100.677 80.4796C102.158 81.2306 103.872 81.3747 105.457 80.8814H105.48Z" fill="black"/>
<path opacity="0.25" d="M127.758 94.1211C131.24 93.5463 140.292 85.5664 140.292 85.5664C140.292 85.5664 129.159 80.9198 125.678 81.4946C124.034 81.8005 122.575 82.7399 121.615 84.1112C120.654 85.4825 120.269 87.1764 120.541 88.8292C120.813 90.482 121.722 91.962 123.071 92.9514C124.421 93.9408 126.103 94.3607 127.758 94.1211Z" fill="black"/>
<path opacity="0.25" d="M105.765 45.1663C105.765 48.6987 99.3828 58.952 99.3828 58.952C99.3828 58.952 92.9909 48.7051 92.9877 45.1727C92.9877 43.4754 93.6608 41.8475 94.8589 40.6473C96.057 39.4471 97.682 38.7728 99.3764 38.7728C101.071 38.7728 102.696 39.4471 103.894 40.6473C105.092 41.8475 105.765 43.4754 105.765 45.1727V45.1663Z" fill="black"/>
<path opacity="0.25" d="M131.624 60.9718C130.57 64.3436 121.418 72.211 121.418 72.211C121.418 72.211 118.379 60.519 119.434 57.1473C119.656 56.3127 120.044 55.5317 120.575 54.8515C121.107 54.1712 121.77 53.6057 122.525 53.1891C123.281 52.7725 124.112 52.5134 124.97 52.4273C125.828 52.3413 126.695 52.4301 127.517 52.6884C128.34 52.9468 129.102 53.3693 129.758 53.9305C130.413 54.4917 130.948 55.18 131.331 55.9539C131.714 56.7279 131.937 57.5715 131.985 58.4338C132.034 59.2962 131.908 60.1595 131.615 60.9718H131.624Z" fill="black"/>
<path d="M154.438 104.24C154.438 104.24 151.553 74.3209 134.285 58.4062C127.04 51.7269 122.008 42.9924 120.213 33.2818C119.367 28.6793 118.946 24.0088 118.953 19.3291" stroke="#70DDFF" stroke-width="2" stroke-miterlimit="10"/>
<path d="M108.137 9.23621C109.455 12.5149 119.203 19.6277 119.203 19.6277C119.203 19.6277 121.302 7.73015 119.985 4.45151C119.671 3.67136 119.207 2.96073 118.62 2.3602C118.032 1.75966 117.332 1.28098 116.559 0.951484C115.787 0.621987 114.957 0.448122 114.118 0.439826C113.278 0.431529 112.445 0.588964 111.666 0.903132C110.888 1.2173 110.178 1.68205 109.579 2.27085C108.979 2.85966 108.502 3.56098 108.173 4.33477C107.844 5.10857 107.67 5.93969 107.662 6.78068C107.654 7.62167 107.811 8.45607 108.124 9.23621H108.137Z" fill="#13F1FC"/>
<path d="M105.646 31.3453C108.531 33.378 120.575 34.0427 120.575 34.0427C120.575 34.0427 115.885 22.9127 113 20.8768C112.315 20.3759 111.537 20.0166 110.712 19.82C109.887 19.6234 109.031 19.5933 108.194 19.7316C107.357 19.8699 106.556 20.1738 105.837 20.6255C105.119 21.0771 104.498 21.6676 104.009 22.3624C103.521 23.0573 103.176 23.8425 102.994 24.6724C102.812 25.5023 102.796 26.3602 102.949 27.196C103.101 28.0319 103.418 28.829 103.881 29.5408C104.345 30.2527 104.945 30.865 105.646 31.3421V31.3453Z" fill="#13F1FC"/>
<path d="M118.558 62.1986C122.085 62.494 132.804 56.9772 132.804 56.9772C132.804 56.9772 123.146 49.7327 119.629 49.4469C118.783 49.3567 117.927 49.4367 117.113 49.6822C116.298 49.9277 115.54 50.3338 114.884 50.8766C114.228 51.4194 113.687 52.0881 113.292 52.8433C112.898 53.5985 112.658 54.4251 112.587 55.2745C112.515 56.1238 112.614 56.9789 112.877 57.7895C113.14 58.6002 113.562 59.35 114.119 59.995C114.675 60.64 115.354 61.1671 116.117 61.5455C116.879 61.9239 117.709 62.146 118.558 62.1986Z" fill="#13F1FC"/>
<path d="M133.573 83.341C136.99 84.2273 148.495 80.6051 148.495 80.6051C148.495 80.6051 140.196 71.8385 136.782 70.9522C135.152 70.5567 133.433 70.8189 131.995 71.6821C130.556 72.5453 129.514 73.9404 129.093 75.5664C128.673 77.1924 128.907 78.9188 129.746 80.3733C130.584 81.8278 131.96 82.8937 133.577 83.341H133.573Z" fill="#13F1FC"/>
<path d="M133.272 29.653C131.842 32.8867 121.86 39.6655 121.86 39.6655C121.86 39.6655 120.161 27.7038 121.588 24.4733C122.279 22.9297 123.552 21.7231 125.129 21.1172C126.706 20.5113 128.458 20.5555 130.002 21.2401C131.547 21.9247 132.757 23.1941 133.37 24.7706C133.983 26.3471 133.948 28.1025 133.272 29.653Z" fill="#13F1FC"/>
<path d="M150.518 54.6007C148.191 57.2564 136.641 60.7341 136.641 60.7341C136.641 60.7341 138.593 48.811 140.92 46.1585C141.474 45.5272 142.146 45.0113 142.898 44.6402C143.651 44.2691 144.469 44.0501 145.305 43.9957C146.142 43.9413 146.982 44.0525 147.776 44.323C148.57 44.5936 149.303 45.0181 149.933 45.5725C150.563 46.1268 151.078 46.8 151.449 47.5537C151.819 48.3075 152.038 49.1269 152.092 49.9652C152.146 50.8036 152.035 51.6444 151.765 52.4398C151.495 53.2352 151.071 53.9694 150.518 54.6007Z" fill="#13F1FC"/>
<path d="M163.962 81.1542C162.103 84.1662 151.319 89.5514 151.319 89.5514C151.319 89.5514 151.23 77.4709 153.076 74.4588C153.963 73.011 155.387 71.9753 157.036 71.5797C158.685 71.184 160.424 71.4608 161.869 72.3491C163.314 73.2374 164.348 74.6644 164.743 76.3163C165.138 77.9682 164.862 79.7095 163.975 81.1574L163.962 81.1542Z" fill="#13F1FC"/>
<path d="M312.129 103.042C320.342 103.042 327 101.915 327 100.524C327 99.1338 320.342 98.0066 312.129 98.0066C303.917 98.0066 297.259 99.1338 297.259 100.524C297.259 101.915 303.917 103.042 312.129 103.042Z" fill="#6C63FF"/>
<path d="M318.278 96.4075C318.919 95.8134 319.512 95.123 319.698 94.2624C319.884 93.4018 319.518 92.3903 318.707 92.0788C317.797 91.732 316.826 92.3646 316.088 93.0004C315.351 93.6362 314.505 94.3684 313.54 94.2335C314.036 93.783 314.408 93.2114 314.618 92.5743C314.828 91.9372 314.869 91.2564 314.739 90.5984C314.701 90.3275 314.59 90.0721 314.418 89.8598C313.915 89.3171 312.998 89.5387 312.392 89.9754C310.469 91.3306 309.934 93.9477 309.924 96.3047C309.728 95.4538 309.892 94.5675 309.889 93.6972C309.886 92.827 309.645 91.8604 308.927 91.3916C308.469 91.1462 307.955 91.0255 307.436 91.0416C306.571 91.0094 305.609 91.0962 305.019 91.7288C304.285 92.5155 304.475 93.8353 305.116 94.7023C305.757 95.5694 306.718 96.1121 307.616 96.7093C308.333 97.1369 308.944 97.7208 309.405 98.4177C309.459 98.5199 309.504 98.6275 309.536 98.7388H314.957C316.163 98.1136 317.279 97.3295 318.278 96.4075Z" fill="#6C63FF"/>
<path d="M12.589 121.599C19.035 121.599 24.2605 120.714 24.2605 119.621C24.2605 118.529 19.035 117.643 12.589 117.643C6.14309 117.643 0.917603 118.529 0.917603 119.621C0.917603 120.714 6.14309 121.599 12.589 121.599Z" fill="#6C63FF"/>
<path d="M17.4134 116.388C17.9467 115.953 18.3357 115.366 18.529 114.705C18.67 114.037 18.3879 113.234 17.75 112.99C17.0352 112.717 16.2723 113.212 15.6953 113.713C15.1183 114.214 14.4515 114.785 13.695 114.676C14.0846 114.323 14.3761 113.874 14.5413 113.375C14.7064 112.875 14.7396 112.341 14.6374 111.824C14.6042 111.61 14.5133 111.409 14.3746 111.243C13.9771 110.819 13.259 111.002 12.7718 111.336C11.262 112.399 10.8485 114.454 10.8324 116.304C10.6818 115.636 10.81 114.943 10.8036 114.259C10.7972 113.575 10.6144 112.813 10.0374 112.447C9.67847 112.254 9.27489 112.159 8.86742 112.171C8.19104 112.146 7.43453 112.216 6.96973 112.711C6.39593 113.33 6.54339 114.368 7.04345 115.045C7.54352 115.723 8.30645 116.153 9.00846 116.622C9.57141 116.958 10.0514 117.417 10.4125 117.964C10.4541 118.04 10.4895 118.12 10.5183 118.202H14.7721C15.7306 117.72 16.6193 117.11 17.4134 116.388Z" fill="#6C63FF"/>
<path d="M42.0129 106.754C48.4588 106.754 53.6843 105.868 53.6843 104.776C53.6843 103.683 48.4588 102.798 42.0129 102.798C35.5669 102.798 30.3414 103.683 30.3414 104.776C30.3414 105.868 35.5669 106.754 42.0129 106.754Z" fill="#13F1FC"/>
<path d="M46.8405 101.542C47.3728 101.107 47.7607 100.52 47.9528 99.8596C48.097 99.1916 47.8117 98.3921 47.1738 98.148C46.4622 97.8718 45.6993 98.3696 45.1191 98.8705C44.5389 99.3715 43.8785 99.9431 43.122 99.8339C43.5113 99.4798 43.8024 99.0307 43.967 98.5304C44.1316 98.0302 44.164 97.4957 44.0612 96.9791C44.0281 96.766 43.9372 96.5661 43.7984 96.4011C43.4041 95.974 42.6861 96.157 42.2116 96.491C40.7018 97.5571 40.2883 99.6091 40.2723 101.459C40.1184 100.791 40.2466 100.097 40.2434 99.4132C40.2402 98.7292 40.0511 97.9714 39.4773 97.6021C39.1184 97.4085 38.7146 97.3143 38.3073 97.3291C37.6277 97.3034 36.8712 97.3709 36.4096 97.8686C35.8326 98.4852 35.9832 99.5224 36.4833 100.203C36.9834 100.884 37.7463 101.308 38.4483 101.78C39.0104 102.115 39.4903 102.573 39.8523 103.119C39.8948 103.195 39.9291 103.276 39.9549 103.36H44.2087C45.1641 102.876 46.0494 102.265 46.8405 101.542Z" fill="#13F1FC"/>
</svg>
