<svg width="134" height="259" viewBox="0 0 134 259" fill="none" xmlns="http://www.w3.org/2000/svg">
<path d="M132.539 81.5163C132.789 80.8323 130.914 77.0367 130.914 76.8504C130.914 76.6642 128.974 74.548 128.974 73.3663C128.974 72.1846 126.41 69.6349 126.41 69.6349C126.41 69.6349 122.97 68.2027 122.595 65.091C122.22 61.9794 118.476 61.9183 118.467 61.9183C118.467 61.9183 118.483 61.6326 118.489 61.2055C118.489 60.2421 118.46 58.5081 118.027 57.564C117.386 56.196 115.899 55.7593 115.899 55.7593C115.899 55.7593 115.524 53.3316 114.774 52.5834C114.354 52.1446 114.054 51.6057 113.901 51.0179C113.747 50.43 113.747 49.8126 113.899 49.2245C114.274 48.046 113.399 45.0499 111.584 44.6228C109.77 44.1957 107.706 43.5021 107.706 43.5021C107.706 43.5021 107.504 43.5406 107.206 43.5824L106.955 43.5021C106.521 43.5831 106.082 43.6378 105.641 43.6659C105.258 43.6765 104.882 43.5527 104.58 43.3159C103.939 42.6319 98.8903 41.3249 97.9511 41.3249C97.0118 41.3249 94.3224 40.079 94.3224 40.079C94.3224 40.079 92.4471 38.65 91.6361 38.027C90.8796 37.4522 89.4852 35.1177 89.2832 34.7741L89.2576 34.7291H89.2416C89.0499 34.287 88.8861 33.8334 88.7511 33.3708C88.7223 33.2744 88.6998 33.1781 88.6742 33.0818C89.5887 32.1195 90.3713 31.0396 91.0014 29.8706C91.0655 29.7485 91.1232 29.6233 91.1841 29.5013C91.3223 29.5009 91.4596 29.4792 91.5912 29.4371C91.6468 29.4184 91.7013 29.397 91.7547 29.3728C92.3885 29.0383 92.8652 28.4673 93.0818 27.7833C93.1267 27.6484 93.1652 27.5103 93.2004 27.3723L93.2293 27.2342C93.2517 27.141 93.271 27.0447 93.2902 26.9484C93.3094 26.852 93.3062 26.8424 93.3158 26.7878C93.3255 26.7332 93.3447 26.6016 93.3575 26.5084C93.3703 26.4153 93.3575 26.4025 93.3799 26.3511C93.396 26.2323 93.4088 26.1167 93.4248 25.9979C93.4761 25.5579 93.5274 25.118 93.6204 24.6877C93.619 24.6813 93.619 24.6748 93.6204 24.6684C93.9922 22.9793 95.0084 21.5536 95.7264 19.9929C95.829 19.7681 95.9252 19.5401 96.0149 19.3121C96.1047 19.0841 96.188 18.8112 96.2617 18.5543C96.2842 18.4772 96.3002 18.4002 96.3226 18.3231C96.3697 18.1347 96.4113 17.9452 96.4477 17.7547C96.4637 17.6744 96.4797 17.5941 96.4925 17.5107C96.5374 17.2538 96.5727 16.9936 96.5919 16.7335C96.7207 15.2466 96.5011 13.7501 95.9508 12.3631C95.4828 11.1942 94.784 10.1409 94.3096 8.97528C93.5915 7.20269 93.4024 5.19891 92.5241 3.51624C91.0527 0.687169 87.5843 -0.728971 84.7346 0.333937C83.3754 0.841306 82.1957 1.82715 80.8142 2.26066C78.9678 2.85152 76.9899 2.40837 75.0762 2.14184C73.1625 1.87531 71.05 1.85283 69.5113 3.1052C67.7387 4.54703 67.2674 7.25729 65.5941 8.8372C64.8953 9.50191 64.0266 9.92579 63.2893 10.5391C62.7714 10.9558 62.3723 11.5018 62.1321 12.1223C62.1321 12.1672 62.1033 12.2122 62.0905 12.2571C62.0776 12.3021 62.0616 12.3631 62.0488 12.4177C62.036 12.4723 62.0264 12.5429 62.0167 12.6039C62.0071 12.6649 62.0167 12.6906 62.0167 12.7324C62.0078 12.8392 62.0078 12.9467 62.0167 13.0535C62.0273 13.1615 62.0444 13.2687 62.068 13.3746C62.0736 13.4029 62.0811 13.4308 62.0905 13.4581C62.1112 13.5472 62.1369 13.6352 62.1674 13.7214C62.1674 13.7214 62.1674 13.7535 62.1674 13.7696C62.2027 13.8659 62.2411 13.9591 62.2796 14.0554L62.3405 14.1935C62.3405 14.232 62.3758 14.2705 62.3918 14.3123C62.6355 14.7721 62.83 15.2565 62.972 15.7573C63.0518 16.0768 63.0317 16.4131 62.9143 16.7207C62.7466 17.0679 62.5112 17.378 62.2219 17.6327C60.9768 18.929 60.0149 20.4711 59.3978 22.1605C59.3273 22.3531 59.26 22.5458 59.1959 22.7417C59.1959 22.7417 59.1959 22.7417 59.1959 22.7578L59.2792 22.7802C59.459 22.8321 59.6422 22.8718 59.8273 22.899C59.9331 22.899 60.0389 22.9247 60.1479 22.9312C60.5777 22.9559 61.0088 22.9235 61.4301 22.8348C61.5391 22.8123 61.6449 22.7867 61.7507 22.7578C62.1856 22.6402 62.6093 22.4844 63.0169 22.2921C63.0169 22.4206 63.0169 22.5458 63.0169 22.6743C63.0169 22.7449 63.0169 22.8156 63.0169 22.8862C63.0202 25.6384 63.7901 28.3351 65.2398 30.6729C66.6896 33.0108 68.7617 34.897 71.2231 36.1196C71.2423 36.2576 71.2584 36.3893 71.2776 36.5242C71.2968 36.659 71.3064 36.7522 71.3193 36.8646L71.1494 36.7008C71.1494 36.7008 70.0242 36.142 68.96 37.7605C67.8957 39.3789 65.8955 40.1239 65.8955 40.1239C65.8955 40.1239 54.5125 41.9286 54.0766 43.4218L48.7586 43.743C48.7586 43.743 46.8833 43.9902 46.6974 47.9175C46.5114 51.8448 45.5081 52.2109 45.5081 52.2109C45.5081 52.2109 43.3187 56.0643 43.5078 58.0585C43.697 60.0526 41.8185 61.0449 41.8185 61.0449L41.5685 64.5772C41.5685 64.5772 39.5041 64.2561 38.9399 66.6934C38.3757 69.1307 37.3788 70.2257 37.3788 70.2257C37.3788 70.2257 33.936 73.0901 33.7501 75.5146L31.6248 76.8215C31.6248 76.8215 26.6819 75.7008 25.5567 73.7099L25.2105 73.3888C25.199 73.3739 25.1894 73.3577 25.1816 73.3406C25.1808 73.3481 25.1808 73.3556 25.1816 73.3631C24.4444 72.6662 22.8737 71.2019 23.1141 71.5391C23.2588 71.8523 23.2949 72.2049 23.2166 72.541L22.848 72.1332L21.8639 71.0382C21.8639 71.0382 14.5135 62.5799 9.82381 61.9858L9.468 61.2825C9.37129 61.0924 9.20325 60.9484 9.00074 60.8822C8.79823 60.816 8.57779 60.8329 8.38773 60.9293L1.31305 64.4616C1.21874 64.5084 1.13458 64.5734 1.06544 64.6528C0.996293 64.7323 0.943535 64.8247 0.910167 64.9247C0.8768 65.0247 0.863489 65.1303 0.871017 65.2354C0.878545 65.3406 0.906763 65.4432 0.954032 65.5374L1.7458 67.0948H1.72977C1.72071 67.0992 1.71265 67.1054 1.70608 67.1131C1.69951 67.1207 1.69456 67.1296 1.69156 67.1392C1.68856 67.1489 1.68755 67.159 1.68861 67.169C1.68967 67.1791 1.69278 67.1888 1.69772 67.1976L1.97661 67.7467C1.98558 67.7649 2.00139 67.7789 2.02061 67.7855C2.03983 67.7922 2.06088 67.7909 2.07917 67.782L2.37088 68.3568C2.35058 68.3671 2.33516 68.3851 2.32796 68.4067C2.32076 68.4283 2.32236 68.4519 2.33242 68.4724L2.86132 69.5128C2.86609 69.5232 2.87293 69.5325 2.88142 69.5401C2.88991 69.5478 2.89987 69.5536 2.91069 69.5572C2.9215 69.5608 2.93296 69.5621 2.94432 69.5611C2.95568 69.5601 2.96671 69.5568 2.97674 69.5514L3.19151 69.972C3.17281 69.9823 3.15874 69.9993 3.15218 70.0196C3.14562 70.0399 3.14708 70.062 3.15625 70.0812L3.69478 71.1409C3.69917 71.1508 3.70559 71.1597 3.71362 71.1669C3.72166 71.1742 3.73112 71.1796 3.74141 71.1829C3.75169 71.1863 3.76255 71.1874 3.7733 71.1862C3.78404 71.1851 3.79442 71.1817 3.80376 71.1762L8.93266 81.3269C9.02943 81.5169 9.19724 81.661 9.39956 81.7278C9.60188 81.7946 9.82233 81.7786 10.0129 81.6833L15.4431 78.9634L15.6355 79.1047L17.2383 81.1695C16.9658 81.8117 16.7382 82.454 16.5459 83.0288C16.5416 83.0473 16.5362 83.0655 16.5298 83.0834C16.4882 83.2054 16.4497 83.3274 16.4144 83.443L16.376 83.5651C16.3375 83.6839 16.3022 83.7995 16.2702 83.9087L16.2125 84.1142C16.2125 84.1527 16.1869 84.1945 16.1772 84.233C16.0009 84.856 15.8887 85.3376 15.8278 85.6042L15.4143 85.4757L15.8182 85.6491C15.8182 85.6716 15.8182 85.6973 15.8182 85.7133C15.799 85.7968 15.7926 85.845 15.7926 85.845C15.9144 85.9028 16.0426 85.9574 16.1772 86.012C18.3666 86.9753 29.3008 91.7729 29.8618 92.5018C30.4869 93.3111 34.6156 95.6745 38.3693 93.6836C42.123 91.6926 42.934 88.6452 42.934 88.6452C42.934 88.6452 46.5627 83.6036 46.6878 82.865C46.8128 82.1264 49.6272 81.2594 49.6272 81.2594C49.6272 81.2594 49.8773 89.6085 48.438 92.6463C46.9987 95.6841 44.3092 109.194 44.3092 109.194C44.4843 109.159 44.6633 109.148 44.8413 109.162L44.6843 109.942C44.9025 109.901 45.1264 109.901 45.3446 109.942C45.1459 111.474 43.9983 118.612 43.9983 118.612C43.9983 118.612 43.6232 121.849 42.9949 122.966C42.3667 124.084 42.3089 129.935 42.3089 129.935L41.3088 134.167C41.3088 134.167 41.4403 134.459 41.6871 134.896V134.912C41.6871 134.912 42.761 137.301 44.5721 138.64C44.4889 139.302 44.3197 139.95 44.0688 140.567C43.4277 141.81 43.5687 143.553 43.5687 143.553C43.5687 143.553 42.5077 148.341 42.6295 149.713C42.7513 151.084 41.9179 154.439 41.9179 154.439L40.7927 165.264C40.7927 165.264 40.0426 174.657 40.4177 177.21C40.7927 179.763 40.1676 183.244 40.1676 183.244C40.1676 183.244 40.9177 190.649 40.7286 191.455C40.5395 192.261 39.6035 195.748 40.1676 197.678C40.7318 199.608 40.4177 204.894 40.4177 204.894C40.4177 204.894 40.7927 211.865 41.2287 214.104C41.6646 216.342 41.1037 219.206 41.1037 219.206C41.1037 219.206 40.6645 223.997 40.4626 223.997C40.2606 223.997 38.6482 227.292 41.9628 230.529C45.2773 233.766 43.2322 233.258 43.2322 233.258C43.2322 233.258 40.6036 231.951 40.9177 234.626C41.2127 237.173 41.6262 236.508 41.6646 236.438L41.0235 238.483C41.0235 238.483 41.187 238.502 41.4627 238.544L41.1005 238.981C40.7206 239.455 40.2978 239.894 39.8375 240.291C39.0874 240.85 39.0232 242.092 39.0232 242.092C39.0232 242.092 34.3976 247.134 30.083 249.684C27.8134 251.026 25.8516 252.163 24.9989 253.1C24.2296 253.945 24.3578 254.629 25.9606 255.159C29.3393 256.28 35.2792 256.838 39.5297 255.409C42.066 254.562 44.3466 253.085 46.1588 251.116C46.1588 251.116 48.8515 249.745 51.4769 250.242C54.1022 250.74 59.3561 247.32 59.3561 247.32L59.26 246.437L58.9811 243.897C58.9811 243.897 58.34 243.149 58.5419 242.343C58.6285 241.977 58.497 241.033 58.3271 240.095C58.2823 239.848 58.2342 239.604 58.1861 239.373L58.6669 239.283C58.6669 239.283 58.0451 236.11 59.1702 235.487C60.2954 234.864 59.9812 226.714 59.9812 226.714C59.9812 226.714 58.5419 224.848 57.7918 224.537C57.0417 224.225 57.7277 220.362 57.8559 219.871C57.9841 219.38 58.9811 209.73 58.9811 209.73C58.9811 209.73 58.606 206.682 59.1061 205.376C59.6062 204.069 58.481 199.03 58.481 199.03C58.481 199.03 58.106 198.407 58.8016 197.659C59.4972 196.911 59.2279 190.276 59.2279 190.276C59.2279 190.276 59.167 186.918 59.167 186.044C59.167 185.171 59.9171 182.001 60.6031 180.945C61.2891 179.888 60.8563 176.587 60.8563 176.587L60.8948 176.34C60.8948 176.247 60.9268 176.125 60.9493 175.987L61.007 175.666C61.307 173.843 61.7138 172.039 62.2251 170.264C63.0393 167.65 63.9785 163.049 63.9785 163.049L69.8063 147.84L69.8736 147.661C69.8736 147.661 72.5598 152.638 72.5598 157.246C72.5598 157.246 73.2522 162.782 73.0631 164.275C72.874 165.769 73.6273 172.798 73.6273 172.798C73.6273 172.798 74.4383 182.875 74.4383 183.311C74.4383 183.748 75.4384 191.526 76.0667 192.711C76.695 193.895 75.4256 197.498 75.0634 197.871C74.7011 198.243 75.1884 207.392 75.1884 207.392C75.1884 207.392 74.2492 214.608 74.0632 216.101C73.8773 217.594 73.124 223.32 73.7427 225.561C74.3614 227.803 74.1177 228.111 74.1177 228.111C74.1177 228.111 76.3616 230.413 75.057 230.6C73.7523 230.786 71.7456 232.465 72.5534 235.14C73.3612 237.815 75.3102 241.8 75.3102 241.8C75.3102 241.8 75.6981 241.714 76.3456 241.582V242.32L76.4225 246.029C76.4225 246.029 76.8585 249.562 76.6084 250.387C76.4257 250.975 76.1757 253.765 76.0539 255.204C76.009 255.737 75.9834 256.093 75.9834 256.093C75.9834 256.093 75.9834 259.388 82.9234 258.396C89.8634 257.403 91.1168 254.661 91.1168 254.661L91.1681 254.317C91.2707 253.675 91.4887 252.355 91.6778 251.614C91.931 250.615 89.6807 246.135 89.6807 246.135C89.6807 246.135 89.3025 243.091 88.6774 242.404C88.4182 242.009 88.2466 241.564 88.1741 241.097C88.1164 240.846 88.0683 240.586 88.0267 240.329C88.1901 240.352 88.3472 240.381 88.4883 240.413C88.4883 240.413 88.1132 238.236 89.5557 237.549C90.9982 236.861 90.6168 235.436 90.4308 234.813C90.2449 234.19 90.9918 230.709 90.9918 230.709C90.8913 230.362 90.8846 229.995 90.9725 229.645C91.0604 229.295 91.2396 228.975 91.4919 228.718C92.3702 227.844 93.0562 221.746 93.0562 221.746L93.2068 198.256C93.2068 198.256 93.646 194.082 93.1459 192.406C92.6459 190.729 92.1426 187.492 92.8254 186.625C93.5082 185.758 92.8895 181.712 92.8895 181.712C92.8895 181.712 92.8895 173.186 93.8255 171.073C94.7615 168.961 94.4666 155.579 94.4666 155.579L94.7135 146.81C94.7135 146.81 96.7554 144.883 96.2714 134.774C98.4511 134.639 100.91 134.559 101.282 134.861C101.968 135.42 106.411 138.284 109.036 136.466C109.6 136.216 112.161 134.039 112.161 134.039L111.059 115.385C111.748 116.425 112.165 117.116 112.165 117.116C112.165 114.502 119.537 106.04 119.537 106.04C119.537 106.04 126.416 97.1452 127.917 96.0855C129.417 95.0258 132.356 89.4287 132.356 89.4287C132.792 88.361 133.294 87.3217 133.86 86.3171C134.539 85.1899 132.289 82.2035 132.539 81.5163ZM116.402 88.0511C114.527 88.2374 110.587 92.5307 110.523 93.462C110.491 93.9533 110.078 94.6148 109.693 95.135C109.664 94.7593 109.632 94.3772 109.6 93.9886C109.158 88.491 108.683 81.786 108.901 81.1438C109.276 80.0231 109.148 74.9847 109.148 74.9847L109.219 74.8884C110.482 78.7932 114.396 83.3981 114.396 83.3981C114.396 83.3981 115.085 85.389 115.896 85.45C116.707 85.511 116.402 88.0511 116.402 88.0511Z" fill="url(#paint0_linear)"/>
<path d="M16.1292 86.6286C16.1292 86.6286 18.4084 74.6508 25.7458 74.5898L31.1055 85.6427L27.5313 88.1121C27.5313 88.1121 19.7643 88.3594 16.1292 86.6286Z" fill="#65617D"/>
<path opacity="0.1" d="M31.1055 85.6395L27.5313 88.1121C27.5313 88.1121 22.0819 88.2855 18.1583 87.3221C17.4607 87.1589 16.781 86.9265 16.1292 86.6285C16.1292 86.6285 16.1292 86.5643 16.1709 86.4358C16.17 86.4209 16.17 86.4059 16.1709 86.3909C16.5079 84.8876 16.9723 83.4158 17.5589 81.9915C17.7833 81.4553 18.0397 80.8997 18.3154 80.3474C19.3893 78.2762 20.8991 76.2467 22.9634 75.2416C23.7275 74.8654 24.5592 74.647 25.4093 74.5994H25.6272H25.7362L25.8516 74.8434L27.666 78.578L31.1055 85.6395Z" fill="black"/>
<path d="M92.0047 135.41C92.0047 135.41 99.6981 134.668 100.387 135.224C101.076 135.779 105.442 138.621 108.029 136.829C110.616 135.037 108.892 128.801 108.892 128.554C108.892 128.307 108.648 119.479 108.648 119.479L104.022 113.243L98.2299 102.325L86.395 101.153L86.7155 118.493L86.6546 127.385L92.0047 135.41Z" fill="#65617D"/>
<path opacity="0.1" d="M92.0047 135.41C92.0047 135.41 99.6981 134.668 100.387 135.224C101.076 135.779 105.442 138.621 108.029 136.829C110.616 135.037 108.892 128.801 108.892 128.554C108.892 128.307 108.648 119.479 108.648 119.479L104.022 113.243L98.2299 102.325L86.395 101.153L86.7155 118.493L86.6546 127.385L92.0047 135.41Z" fill="black"/>
<path d="M24.2007 74.2815C24.2007 74.2815 23.5884 81.815 18.9019 81.937C18.9019 81.937 17.5748 81.1342 15.7893 79.7984C11.6734 76.7124 5.14047 70.7813 6.9452 65.2645C9.53529 57.3617 22.1075 71.9341 22.1075 71.9341L23.0691 73.0195L24.2007 74.2815Z" fill="#FBBEBE"/>
<path opacity="0.1" d="M24.2007 74.2815C24.2007 74.2815 23.5885 81.815 18.9019 81.937C18.9019 81.937 17.5748 81.1342 15.7893 79.7983L15.3886 79.2845C16.1827 79.6999 17.0581 79.9356 17.9531 79.9749C19.1295 80.0006 20.4534 79.5639 21.3029 77.862C21.7901 76.8923 22.2183 75.8939 22.5851 74.8724C22.8099 74.2738 22.9689 73.6525 23.0595 73.0195L24.2007 74.2815Z" fill="black"/>
<path d="M22.1684 87.9259L21.1138 86.5675L17.5556 81.9916L15.7477 79.6538C16.5411 80.0712 17.4168 80.3081 18.3121 80.3474C19.4886 80.3731 20.8125 79.9364 21.6651 78.2313C22.1526 77.2617 22.5808 76.2633 22.9473 75.2416C23.534 73.575 23.5211 72.7176 23.316 72.4286C23.1108 72.1396 24.6239 73.5493 25.3515 74.2397L25.3772 74.2654C25.5855 74.4581 25.7201 74.5866 25.7201 74.5866L25.8452 74.837L27.6307 78.4143L27.6499 78.5652C27.8134 79.702 28.416 86.9047 22.1684 87.9259Z" fill="#E7EFFD"/>
<path d="M59.09 246.861C59.09 246.861 53.913 250.259 51.3262 249.751C48.7393 249.244 46.0851 250.618 46.0851 250.618C44.3017 252.57 42.0527 254.036 39.5489 254.88C35.3593 256.299 29.5059 255.743 26.1786 254.629C24.6014 254.106 24.4764 253.425 25.2329 252.59C26.076 251.655 28.009 250.528 30.2464 249.196C34.497 246.665 39.0585 241.662 39.0585 241.662C39.0585 241.662 39.1194 240.429 39.8599 239.874C40.3136 239.485 40.73 239.055 41.1037 238.589C41.764 237.805 42.3859 236.983 42.3859 236.983L57.6123 237.478C57.6123 237.478 57.8719 238.579 58.0739 239.703C58.2438 240.625 58.3752 241.563 58.2886 241.925C58.1027 242.725 58.7214 243.467 58.7214 243.467L58.9939 245.988L59.09 246.861Z" fill="#65617D"/>
<path d="M90.9629 251.119C90.7802 251.858 90.559 253.184 90.4596 253.807C90.4244 254.019 90.4083 254.147 90.4083 254.147C90.4083 254.147 89.1742 256.864 82.3336 257.853C75.4929 258.842 75.4929 255.567 75.4929 255.567C75.4929 255.567 75.5185 255.213 75.5634 254.683C75.682 253.238 75.9288 250.474 76.1084 249.886C76.3552 249.083 75.9257 245.564 75.9257 245.564L75.8519 241.884L75.8006 239.315L87.1419 238.139C87.214 238.989 87.336 239.834 87.5073 240.67C87.5782 241.129 87.7478 241.567 88.0042 241.954C88.6196 242.638 88.9915 245.66 88.9915 245.66C88.9915 245.66 91.2033 250.13 90.9629 251.119Z" fill="#65617D"/>
<path opacity="0.1" d="M57.6251 237.475C57.6251 237.475 57.8848 238.576 58.0867 239.7C56.4423 240.002 49.2522 241.251 47.4539 240.378C45.4216 239.389 41.0428 238.833 41.0428 238.833L41.1165 238.583C41.7769 237.799 42.3988 236.977 42.3988 236.977L57.6251 237.475Z" fill="black"/>
<path opacity="0.1" d="M87.5009 240.683C84.6159 240.195 78.3266 241.376 75.8455 241.884L75.7942 239.315L87.1355 238.139C87.2071 238.994 87.3292 239.843 87.5009 240.683Z" fill="black"/>
<path d="M93.9153 147.079L93.6685 155.785C93.6685 155.785 93.989 169.06 93.053 171.16C92.117 173.26 92.1266 181.719 92.1266 181.719C92.1266 181.719 92.7453 185.733 92.0657 186.593C91.3861 187.454 91.8798 190.671 92.3863 192.338C92.8927 194.005 92.444 198.144 92.444 198.144L92.3221 221.483C92.3221 221.483 91.6458 227.533 90.7803 228.4C90.5316 228.656 90.3553 228.974 90.2691 229.321C90.183 229.668 90.1901 230.032 90.2898 230.375C90.2898 230.375 89.5493 233.83 89.7353 234.45C89.9212 235.07 90.2898 236.486 88.873 237.163C87.4561 237.841 87.8215 240.005 87.8215 240.005C84.4333 239.202 74.8198 241.367 74.8198 241.367C74.8198 241.367 72.8964 237.414 72.1047 234.758C71.3129 232.102 73.2779 230.436 74.5697 230.262C75.8616 230.089 73.6465 227.79 73.6465 227.79C73.6465 227.79 73.8934 227.469 73.2779 225.259C72.6624 223.05 73.3997 217.353 73.5985 215.873C73.7972 214.393 74.7076 207.228 74.7076 207.228C74.7076 207.228 74.2171 198.154 74.5858 197.781C74.9544 197.409 76.1885 193.828 75.5731 192.643C74.9576 191.458 73.9703 183.751 73.9703 183.331C73.9703 182.91 73.1689 172.894 73.1689 172.894C73.1689 172.894 72.4316 165.916 72.6143 164.436C72.7971 162.956 72.1207 157.461 72.1207 157.461C72.1207 152.888 69.4729 147.95 69.4729 147.95L69.4056 148.126L63.6772 163.219C63.6772 163.219 62.754 167.785 61.9494 170.38C61.4446 172.141 61.0432 173.931 60.7473 175.739L60.6929 176.061C60.6704 176.199 60.6512 176.317 60.6384 176.407L60.5999 176.658C60.5999 176.658 61.0294 179.93 60.3531 180.98C59.6767 182.03 58.9074 185.177 58.9074 186.054C58.9074 186.93 58.9651 190.257 58.9651 190.257C58.9651 190.257 59.2151 196.863 58.5355 197.604C57.8559 198.346 58.215 198.963 58.215 198.963C58.215 198.963 59.3273 203.963 58.8336 205.26C58.34 206.557 58.7118 209.579 58.7118 209.579C58.7118 209.579 57.7341 219.129 57.6251 219.63C57.5161 220.131 56.8237 223.952 57.561 224.261C58.2983 224.569 59.7184 226.422 59.7184 226.422C59.7184 226.422 60.0389 234.511 58.9202 235.127C57.8014 235.744 58.4233 238.894 58.4233 238.894C58.4233 238.894 49.4894 240.625 47.4539 239.636C45.4184 238.647 41.0428 238.091 41.0428 238.091L41.655 236.062C41.6198 236.132 41.2127 236.791 40.9209 234.264C40.6004 231.608 43.2033 232.905 43.2033 232.905C43.2033 232.905 45.2356 233.4 41.966 230.188C38.6963 226.977 40.3023 223.705 40.4882 223.705C40.6741 223.705 41.1037 218.953 41.1037 218.953C41.1037 218.953 41.6582 216.111 41.2255 213.888C40.7927 211.666 40.4273 204.749 40.4273 204.749C40.4273 204.749 40.7478 199.502 40.1805 197.588C39.6131 195.675 40.5491 192.216 40.735 191.41C40.9209 190.604 40.1805 183.26 40.1805 183.26C40.1805 183.26 40.7991 179.805 40.4273 177.274C40.0554 174.744 40.7991 165.419 40.7991 165.419L41.9082 154.674C41.9082 154.674 42.7064 151.341 42.5846 149.982C42.4628 148.624 43.5078 143.881 43.5078 143.881C43.5078 143.881 43.386 142.15 44.0015 140.917C44.617 139.684 44.867 135.609 44.867 135.609L50.7845 122.022L53.6695 110.045L92.8094 109.675C92.8094 109.675 92.9536 110.713 93.1876 112.601C93.4217 114.489 93.7614 117.286 94.1493 120.735C94.4891 123.869 94.861 127.555 95.2264 131.653C96.3804 144.732 93.9153 147.079 93.9153 147.079Z" fill="#3F3D56"/>
<path d="M90.2801 38.9615L81.1539 48.7204C81.1539 48.7204 69.4472 44.0256 70.6781 42.42C71.1558 41.797 71.0788 39.851 70.8032 37.6738C70.3704 34.2571 69.4472 30.317 69.4472 30.317C69.4472 30.317 89.9083 26.9837 88.1805 30.439C87.5394 31.7042 87.6612 33.1781 88.0523 34.5397C88.5521 36.1243 89.3044 37.6175 90.2801 38.9615Z" fill="#FBBEBE"/>
<path opacity="0.1" d="M88.1805 30.439C87.5394 31.7042 87.2509 31.8262 87.6451 33.1878C84.9685 36.0779 81.5546 39.2088 77.3361 39.2088C75.069 39.2124 72.8322 38.6868 70.8031 37.6738C70.3704 34.2571 69.4472 30.317 69.4472 30.317C69.4472 30.317 89.9083 26.9837 88.1805 30.439Z" fill="black"/>
<path d="M92.0047 24.1418C92.0335 26.0899 91.6752 28.0244 90.9509 29.8327C90.2265 31.6409 89.1505 33.2868 87.7854 34.6747C86.4203 36.0626 84.7934 37.1647 82.9992 37.917C81.205 38.6693 79.2795 39.0567 77.3345 39.0567C75.3895 39.0567 73.4639 38.6693 71.6697 37.917C69.8756 37.1647 68.2486 36.0626 66.8835 34.6747C65.5184 33.2868 64.4424 31.6409 63.7181 29.8327C62.9937 28.0244 62.6355 26.0899 62.6642 24.1418C62.6642 24.0711 62.6642 24.0005 62.6642 23.9298C62.6923 20.0326 64.2646 16.3062 67.0354 13.5703C69.8061 10.8344 73.5483 9.31322 77.4387 9.34133C81.329 9.36943 85.0489 10.9445 87.78 13.7202C90.511 16.4958 92.0296 20.2445 92.0015 24.1418H92.0047Z" fill="#FBBEBE"/>
<path opacity="0.1" d="M94.1299 121.091C92.1874 121.107 85.7154 121.162 78.4836 121.277H78.3971L76.0058 121.316H75.932C67.3572 121.454 58.9073 119.775 55.5158 120.096C48.3033 120.773 58.1027 113.426 58.1027 113.426C58.1027 113.426 65.9082 115.513 74.5312 115.089L76.6052 114.983C83.1605 114.611 89.7479 113.994 93.1843 112.96C93.4247 114.868 93.7581 117.655 94.1299 121.091Z" fill="black"/>
<path d="M94.1299 120.722C92.1874 120.722 85.7154 120.793 78.4836 120.905H78.3971L76.0058 120.947H75.932C67.3572 121.085 58.9073 119.405 55.5158 119.723C48.3033 120.401 58.1027 113.057 58.1027 113.057C58.1027 113.057 65.9082 115.141 74.5312 114.72L76.6052 114.611C83.1605 114.242 89.7479 113.622 93.1843 112.588C93.4247 114.495 93.7581 117.273 94.1299 120.722Z" fill="#E3A79F"/>
<path opacity="0.1" d="M73.3901 43.0365L62.0488 48.3479L53.2976 116.143C53.2976 116.143 58.4746 113.799 61.4333 115.279C64.3921 116.759 73.5119 115.404 73.5119 115.404C73.5119 115.404 80.1698 115.032 81.1572 115.773C82.1445 116.515 93.7294 112.687 93.7294 112.687C93.7294 112.687 95.8258 107.993 94.223 107.254C92.6203 106.516 94.7167 99.2261 94.7167 99.2261L93.7294 50.3228L91.758 44.0256L86.456 40.8144L81.0257 45.1367L78.4613 45.506L73.3901 43.0365Z" fill="black"/>
<path d="M73.3901 42.2947L62.0488 47.606L53.2976 115.407C53.2976 115.407 58.4746 113.06 61.4333 114.543C64.3921 116.027 73.5119 114.666 73.5119 114.666C73.5119 114.666 80.1698 114.296 81.1572 115.035C82.1445 115.773 93.7294 111.949 93.7294 111.949C93.7294 111.949 95.8258 107.257 94.223 106.515C92.6203 105.774 94.7167 98.4875 94.7167 98.4875L93.7294 49.5777L91.758 43.2805L86.456 40.0693L81.0257 44.3948L78.4613 44.7609L73.3901 42.2947Z" fill="#E7EFFD"/>
<path opacity="0.1" d="M73.2041 45.4449C73.2041 45.4449 76.4706 49.3337 76.4097 50.1365C76.3488 50.9393 76.227 52.8532 76.227 52.8532L73.7587 57.8562C73.7587 57.8562 72.4027 64.0924 72.4027 65.3897C72.4027 66.687 70.2454 77.9134 70.2454 77.9134L67.6585 95.2025L64.392 117.864L67.7194 123.606L71.6655 120.272L76.9034 79.8883L78.0125 71.9245C78.0125 71.9245 79.1825 57.5993 79.1825 56.1189C79.1825 54.6386 78.5061 50.7466 78.5061 50.7466C78.5061 50.7466 79.3075 47.0409 82.6349 46.1771C85.9623 45.3133 82.3881 45.9908 82.3881 45.9908L80.4647 44.4462L78.801 45.127C78.801 45.127 74.1914 43.7173 73.2041 45.4449Z" fill="black"/>
<path d="M72.8355 45.082C72.8355 45.082 76.102 48.9708 76.0411 49.7736C75.9802 50.5764 75.8552 52.4903 75.8552 52.4903L73.3901 57.4933C73.3901 57.4933 72.0502 63.723 72.0502 65.0172C72.0502 66.3113 69.8928 77.5408 69.8928 77.5408L67.2867 94.8556L64.0363 117.501L67.3668 123.246L71.2937 119.903L76.5379 79.5286L77.6471 71.5648C77.6471 71.5648 78.8171 57.2396 78.8171 55.7561C78.8171 54.2725 78.1407 50.3837 78.1407 50.3837C78.1407 50.3837 78.9421 46.6812 82.2695 45.8142C85.5969 44.9472 82.0227 45.6311 82.0227 45.6311L80.0993 44.0865L78.4613 44.7609C78.4613 44.7609 73.8228 43.3448 72.8355 45.082Z" fill="#3F3D56"/>
<path opacity="0.1" d="M70.6781 38.5923C70.6781 38.5923 70.1845 38.9616 70.0627 41.431C69.9409 43.9004 68.2131 49.459 68.2131 49.459C68.2131 49.459 74.6242 45.0115 77.8298 45.506L70.6781 38.5923Z" fill="black"/>
<path d="M70.6781 37.8504C70.6781 37.8504 70.1845 38.2197 70.0627 40.6923C69.9409 43.1649 68.2131 48.7203 68.2131 48.7203C68.2131 48.7203 74.6242 44.276 77.8298 44.7705L70.6781 37.8504Z" fill="#E7EFFD"/>
<path opacity="0.1" d="M88.1837 36.6141L78.0734 45.5059C78.0734 45.5059 86.5809 50.57 87.6901 51.8063C88.7992 53.0426 89.9083 39.7033 89.9083 39.7033L88.1837 36.6141Z" fill="black"/>
<path d="M88.5523 35.8756L78.4612 44.761C78.4612 44.761 86.9656 49.8218 88.0779 51.0581C89.1903 52.2945 90.2994 38.9551 90.2994 38.9551L88.5523 35.8756Z" fill="#E7EFFD"/>
<path opacity="0.1" d="M71.0468 38.5922C71.0468 38.5922 69.9376 38.0367 68.8894 39.6423C67.8412 41.2479 65.8698 41.9865 65.8698 41.9865C65.8698 41.9865 54.6503 43.7783 54.2208 45.2587L48.9829 45.5798C48.9829 45.5798 47.1333 45.8238 46.9474 49.7158C46.7615 53.6078 45.7645 53.9675 45.7645 53.9675C45.7645 53.9675 43.6072 57.7952 43.7899 59.7701C43.9726 61.745 42.1262 62.734 42.1262 62.734L49.8196 82.8008C49.8196 82.8008 50.0664 91.0761 48.6463 94.101C47.2263 97.126 44.5785 110.526 44.5785 110.526C44.5785 110.526 45.6908 110.279 45.6267 111.018C45.5626 111.756 44.2708 119.848 44.2708 119.848C44.2708 119.848 43.9021 123.06 43.2866 124.171C42.6712 125.282 42.6071 131.088 42.6071 131.088L41.6198 135.285C41.6198 135.285 43.963 140.535 47.5372 139.78C51.1114 139.026 57.6251 125.041 57.6251 125.041L61.7539 109.913L64.9594 94.9713L65.8826 84.8464L67.3636 62.4322L69.5209 47.6125C69.5209 47.6125 71.9123 39.6423 71.0468 38.5922Z" fill="black"/>
<path d="M70.6781 37.8505C70.6781 37.8505 69.569 37.295 68.5208 38.9006C67.4725 40.5062 65.5011 41.2479 65.5011 41.2479C65.5011 41.2479 54.2817 43.0366 53.8521 44.5202L48.611 44.8413C48.611 44.8413 46.7614 45.0885 46.5787 48.9773C46.396 52.8661 45.4055 53.2386 45.4055 53.2386C45.4055 53.2386 43.2481 57.0663 43.4341 59.0412C43.62 61.0161 41.7704 62.0051 41.7704 62.0051L49.4637 82.0719C49.4637 82.0719 49.7106 90.3472 48.2937 93.3721C46.8768 96.3971 44.2258 109.797 44.2258 109.797C44.2258 109.797 45.335 109.55 45.2741 110.292C45.2131 111.034 43.9181 119.12 43.9181 119.12C43.9181 119.12 43.5495 122.331 42.9308 123.442C42.3121 124.553 42.2544 130.359 42.2544 130.359L41.2767 134.543C41.2767 134.543 43.62 139.793 47.1942 139.039C50.7684 138.284 57.2404 124.283 57.2404 124.283L61.3724 109.155L64.5779 94.2103L65.5043 84.0853L66.9821 61.6712L69.1394 46.8515C69.1394 46.8515 71.5404 38.9006 70.6781 37.8505Z" fill="#65617D"/>
<path opacity="0.1" d="M31.1055 85.6395L27.5313 88.1121C27.5313 88.1121 22.0818 88.2855 18.1582 87.3222L16.1708 86.4359L15.7701 86.2625L16.1804 86.3909C18.2416 87.0043 19.854 86.9914 21.1137 86.5676C26.1721 84.8624 25.6015 76.494 25.4188 74.5994C25.3996 74.41 25.3868 74.2783 25.3772 74.2398C25.3763 74.2323 25.3763 74.2248 25.3772 74.2173L25.406 74.2655C25.4745 74.3791 25.5528 74.4866 25.64 74.5866C25.7105 74.6669 25.7842 74.7503 25.8644 74.8274L27.6499 78.4047L27.6691 78.5556L31.1055 85.6395Z" fill="black"/>
<path d="M43.495 61.4977L41.7704 61.9922L41.5236 65.5246C41.5236 65.5246 39.4881 65.2034 38.9335 67.6247C38.379 70.0459 37.3949 71.157 37.3949 71.157C37.3949 71.157 34.0034 73.9989 33.8175 76.4041L31.7242 77.6886C31.7242 77.6886 26.8518 76.5518 25.7459 74.5898C25.7459 74.5898 27.9641 90.5205 16.1292 86.6286C16.1292 86.6286 29.381 92.4344 29.9964 93.2372C30.6119 94.04 34.683 96.3842 38.379 94.4093C42.075 92.4344 42.8796 89.3966 42.8796 89.3966C42.8796 89.3966 46.4537 84.3936 46.5788 83.6518C46.7038 82.91 49.4638 82.0462 49.4638 82.0462L54.7658 69.2014L43.495 61.4977Z" fill="#65617D"/>
<path opacity="0.1" d="M86.7668 44.0256L88.5523 35.8756C88.5523 35.8756 89.3537 38.5312 90.1551 39.1478L92.8061 41.1837C92.8061 41.1837 95.4571 42.42 96.3803 42.42C97.3035 42.42 102.298 43.7045 102.913 44.3949C103.529 45.0853 105.997 44.5811 105.997 44.5811C105.997 44.5811 108.029 45.2587 109.818 45.6922C111.607 46.1257 112.469 49.0897 112.097 50.2618C111.948 50.8453 111.95 51.4572 112.101 52.0402C112.252 52.6231 112.549 53.1581 112.963 53.595C113.7 54.3368 114.072 56.7452 114.072 56.7452C114.978 57.0409 115.731 57.6839 116.165 58.5338C116.784 59.8922 116.598 62.8561 116.598 62.8561L107.414 75.8229C107.414 75.8229 107.536 80.826 107.167 81.9242C106.798 83.0224 108.449 101.93 108.449 101.93L110.373 134.408C110.373 134.408 107.847 136.569 107.292 136.816C106.738 137.064 106.18 125.33 106.18 124.9C106.18 124.469 91.9438 103.536 91.9438 103.536C91.9438 103.536 90.0205 100.446 90.0205 99.7688C90.0205 99.0913 88.2318 92.8519 88.2318 92.8519L85.5199 80.8131L86.7668 44.0256Z" fill="black"/>
<path d="M117.361 62.1496C117.361 62.5734 117.338 62.856 117.338 62.856L108.161 75.8132C108.161 75.8132 108.289 80.8131 107.917 81.9145C107.702 82.5567 108.174 89.2039 108.61 94.6598C108.93 98.5999 109.212 101.92 109.212 101.92L110.023 115.696L111.12 134.398C111.12 134.398 108.594 136.56 108.039 136.807C107.484 137.054 106.93 125.32 106.93 124.887C106.93 124.453 92.6908 103.526 92.6908 103.526C92.6908 103.526 90.7674 100.437 90.7674 99.7591C90.7674 99.0816 88.9819 92.8422 88.9819 92.8422L86.27 80.8002L87.5009 44.0031L88.5491 35.853C88.5491 35.853 90.091 38.5087 90.8924 39.122C91.6938 39.7354 93.5402 41.1611 93.5402 41.1611C93.5402 41.1611 96.1912 42.3975 97.1176 42.3975C98.0441 42.3975 103.035 43.6819 103.651 44.3723C104.266 45.0628 106.734 44.5586 106.734 44.5586C106.734 44.5586 108.767 45.2362 110.552 45.6697C112.338 46.1032 113.203 49.0671 112.835 50.236C112.685 50.8198 112.685 51.4321 112.836 52.0157C112.987 52.5992 113.283 53.1349 113.697 53.5724C114.437 54.3142 114.806 56.7194 114.806 56.7194C115.714 57.0171 116.467 57.6624 116.902 58.5145C117.335 59.4746 117.377 61.1862 117.361 62.1496Z" fill="#65617D"/>
<path opacity="0.1" d="M42.0172 226.669C42.3378 226.669 55.269 227.164 55.0222 229.264C54.7754 231.364 42.0172 226.669 42.0172 226.669Z" fill="black"/>
<path opacity="0.1" d="M44.915 230.188C44.915 230.188 53.6052 231.608 51.3261 232.905C49.047 234.202 44.915 230.188 44.915 230.188Z" fill="black"/>
<path opacity="0.1" d="M77.2111 225.311C77.2111 225.311 91.6362 226.547 89.4788 228.149C87.3215 229.752 82.2053 230.002 81.9585 230.076C81.7117 230.15 77.2111 225.311 77.2111 225.311Z" fill="black"/>
<path opacity="0.1" d="M75.4865 231.672C75.4865 231.672 83.5004 233.03 83.744 234.562C83.9877 236.094 75.4865 231.672 75.4865 231.672Z" fill="black"/>
<path opacity="0.1" d="M79.923 194.499C79.923 194.499 87.2573 196.227 87.69 197.389L79.923 194.499Z" fill="black"/>
<path opacity="0.1" d="M51.6307 199.811C51.6307 199.811 47.8096 200.922 51.5089 203.144C55.2081 205.366 51.6307 199.811 51.6307 199.811Z" fill="black"/>
<path opacity="0.1" d="M68.5817 140.471C69.0145 140.471 75.7333 138.249 78.0734 139.238C80.4135 140.227 83.3145 140.223 83.3145 140.223L68.5817 140.471Z" fill="black"/>
<path opacity="0.1" d="M69.4472 147.519L69.3799 148.13L63.6516 163.222C63.6516 163.222 62.7284 167.789 61.9238 170.383C61.4189 172.145 61.0176 173.934 60.7217 175.743L65.8089 144.141L69.4472 147.519Z" fill="black"/>
<path d="M78.3971 120.905L76.0058 120.947H75.9321L74.5312 114.723C75.2204 114.688 75.9096 114.653 76.6052 114.611L78.3971 120.905Z" fill="#3F3D56"/>
<path d="M107.475 113.368L105.939 114.633L100.81 118.859C100.81 118.859 86.94 126.271 83.1189 119.232C79.7499 113.031 95.4764 108.603 99.2621 107.636C99.7782 107.505 100.07 107.44 100.07 107.44L107.475 113.368Z" fill="#FBBEBE"/>
<path opacity="0.1" d="M48.2424 52.6701C48.2424 52.6701 50.9543 53.9032 51.5698 55.634C52.1852 57.3649 48.2424 52.6701 48.2424 52.6701Z" fill="black"/>
<path opacity="0.1" d="M39.8598 71.1924C39.8598 71.1924 35.9138 76.0092 37.5166 77.862C39.1194 79.7149 39.8598 71.1924 39.8598 71.1924Z" fill="black"/>
<path opacity="0.1" d="M110.373 55.3868C110.373 55.3868 106.673 55.7561 106.552 58.9673L110.373 55.3868Z" fill="black"/>
<path opacity="0.1" d="M76.102 106.018C76.4706 105.649 84.9781 93.051 86.9496 94.1621L76.102 106.018Z" fill="black"/>
<path opacity="0.1" d="M92.0048 24.1418C92.0077 26.5619 91.4119 28.945 90.2706 31.078L90.1616 31.0587C89.2319 30.8628 88.7479 29.7742 88.0363 29.0999C87.6 28.6834 87.0445 28.4142 86.4478 28.3301C85.851 28.246 85.2429 28.3513 84.7089 28.631C84.1693 28.955 83.7305 29.4232 83.4418 29.983C83.153 30.5428 83.0257 31.1722 83.0741 31.8005C82.606 29.8224 82.7535 27.7191 82.2951 25.7377C81.8367 23.7564 80.4551 21.7526 78.567 21.7173C77.7528 21.7173 76.8008 22.0192 76.2141 21.3962C75.8583 21.0269 75.7846 20.4328 75.5185 19.9993C74.169 17.8093 70.0691 18.9172 68.3829 20.0379C66.7609 21.1168 64.7542 22.9536 62.6674 23.917C62.6955 20.0198 64.2678 16.2934 67.0386 13.5575C69.8093 10.8216 73.5515 9.3004 77.4419 9.32851C81.3323 9.35661 85.0521 10.9317 87.7832 13.7073C90.5143 16.483 92.0328 20.2317 92.0048 24.1289V24.1418Z" fill="black"/>
<path d="M75.5185 19.6397C75.7878 20.0861 75.8583 20.6705 76.2141 21.0366C76.8008 21.6467 77.7528 21.3353 78.567 21.3577C80.4551 21.3899 81.8367 23.3969 82.2951 25.3782C82.7535 27.3595 82.6157 29.4596 83.0741 31.4377C83.0259 30.8095 83.1536 30.1803 83.443 29.6209C83.7324 29.0615 84.1719 28.5942 84.7121 28.2715C85.2454 27.992 85.8526 27.8867 86.4487 27.9702C87.0448 28.0536 87.5999 28.3218 88.0363 28.7371C88.7479 29.4146 89.2319 30.5 90.1615 30.6959C91.0912 30.8918 91.9887 29.9991 92.3221 29.0165C92.6555 28.0338 92.6427 26.9581 92.8542 25.9401C93.2741 24.0134 94.5275 22.4367 95.2231 20.6063C96.0487 18.3773 96.0259 15.9218 95.159 13.7087C94.6974 12.5494 94.0082 11.5058 93.5562 10.3465C92.8446 8.58679 92.6587 6.60227 91.7964 4.92602C90.3442 2.11943 86.9271 0.712927 84.1191 1.76941C82.7791 2.27357 81.6155 3.24978 80.2564 3.69613C78.4324 4.28057 76.4866 3.84064 74.5986 3.57732C72.7105 3.314 70.6301 3.28831 69.1138 4.54068C67.37 5.96966 66.8924 8.65744 65.2672 10.2277C64.578 10.886 63.7221 11.3067 62.9944 11.9168C62.2668 12.5269 61.6417 13.4325 61.7122 14.4248C61.8212 15.7092 63.0714 16.8653 62.6098 18.0502C62.4428 18.3925 62.2109 18.699 61.927 18.9525C60.5522 20.3935 59.5306 22.1349 58.9426 24.0391C62.2411 25.0699 65.8121 21.4284 68.3926 19.7072C70.0627 18.5608 74.169 17.4658 75.5185 19.6397Z" fill="#7C5C5C"/>
<path opacity="0.1" d="M107.475 113.368L105.939 114.633C104.587 112.386 99.0313 107.867 99.0313 107.867L99.2718 107.636C99.7879 107.505 100.08 107.44 100.08 107.44L107.475 113.368Z" fill="black"/>
<path d="M108.956 111.082C108.956 111.082 108.404 112.456 107.834 113.651C107.263 114.845 106.645 115.918 106.612 115.041C106.552 113.311 99.4032 107.505 99.4032 107.505L100.365 106.561L101.49 105.469L108.956 111.082Z" fill="#E7EFFD"/>
<path opacity="0.1" d="M109.203 101.943L110.014 115.719C108.09 112.736 102.843 105.09 99.4609 105.337L107.661 95.8929C108.001 95.5116 108.315 95.1071 108.6 94.6823C108.914 98.6224 109.203 101.943 109.203 101.943Z" fill="black"/>
<path opacity="0.1" d="M108.956 111.082C108.956 111.082 108.404 112.456 107.834 113.651C105.686 110.7 102.731 107.212 100.371 106.561L101.496 105.469L108.956 111.082Z" fill="black"/>
<path d="M115.12 61.138L117.338 62.8657C117.338 62.8657 121.034 62.9299 121.406 66.0158C121.778 69.1018 125.166 70.5115 125.166 70.5115C125.166 70.5115 127.692 73.042 127.692 74.214C127.692 75.3861 129.616 77.4895 129.616 77.6725C129.616 77.8555 131.465 81.6255 131.218 82.3031C130.972 82.9806 133.19 85.9478 132.501 87.0588C131.943 88.0553 131.448 89.086 131.02 90.1448C131.02 90.1448 128.135 95.7034 126.644 96.7535C125.153 97.8035 118.387 106.631 118.387 106.631C118.387 106.631 111.113 115.028 111.113 117.623C111.113 117.623 104.022 105.767 99.8327 106.063L108.029 96.6154C108.029 96.6154 109.449 95.074 109.51 94.146C109.571 93.2179 113.453 88.9599 115.303 88.7736C115.303 88.7736 115.623 86.2432 114.809 86.1822C113.995 86.1212 113.331 84.1431 113.331 84.1431C113.331 84.1431 107.908 77.7207 107.847 73.6457C107.786 69.5706 115.12 61.138 115.12 61.138Z" fill="#65617D"/>
<path opacity="0.1" d="M118.387 66.9953C118.387 66.9953 113.206 70.823 114.319 72.0561C115.431 73.2892 118.387 66.9953 118.387 66.9953Z" fill="black"/>
<path opacity="0.1" d="M118.633 82.8008C118.633 82.8008 128.25 79.7149 129.234 82.8008H118.633Z" fill="black"/>
<path opacity="0.1" d="M59.09 246.861C59.09 246.861 53.913 250.259 51.3262 249.751C48.7393 249.244 46.0851 250.618 46.0851 250.618C44.3017 252.57 42.0527 254.036 39.5489 254.879C35.3593 256.299 29.5059 255.743 26.1786 254.629C24.6014 254.106 24.4764 253.425 25.2329 252.59C28.852 253.312 36.9396 254.748 39.1194 253.704C41.9531 252.346 46.021 249.382 46.021 249.382C46.021 249.382 51.3262 248.64 52.0635 248.64C52.5892 248.64 56.6827 246.948 58.9939 245.975L59.09 246.861Z" fill="black"/>
<path opacity="0.1" d="M90.4532 253.81C90.418 254.022 90.402 254.15 90.402 254.15C90.402 254.15 89.1678 256.867 82.3272 257.856C75.4865 258.845 75.4865 255.57 75.4865 255.57C75.4865 255.57 75.5121 255.217 75.557 254.687C77.7208 255.506 82.4458 256.427 90.4532 253.81Z" fill="black"/>
<path opacity="0.1" d="M50.8005 66.2535C50.8005 66.2535 50.8005 80.3314 49.5984 81.7219C48.3963 83.1123 50.8005 66.2535 50.8005 66.2535Z" fill="black"/>
<path opacity="0.1" d="M106.366 70.791L108.151 75.8229C108.151 75.8229 108.863 70.8841 106.366 70.791Z" fill="black"/>
<g opacity="0.1">
<path opacity="0.1" d="M62.7829 16.8235C63.2349 15.6642 62.052 14.5307 61.8981 13.2911C61.7407 13.6415 61.6725 14.0254 61.6994 14.4086C61.7795 15.3431 62.4687 16.2198 62.6611 17.0836C62.7101 17.0011 62.7509 16.914 62.7829 16.8235Z" fill="black"/>
<path opacity="0.1" d="M83.2407 30.1211C82.7984 28.1719 82.9202 26.1103 82.4778 24.1643C82.0354 22.2183 80.641 20.176 78.7529 20.1439C77.9387 20.1439 76.9867 20.4425 76.3969 19.8228C76.0443 19.4567 75.9705 18.8594 75.7045 18.4259C74.3549 16.2359 70.255 17.347 68.5657 18.4677C66.0429 20.1471 62.5809 23.657 59.3497 22.8606C59.1926 23.2363 59.0484 23.6152 58.9298 24.0038C62.2283 25.0346 65.7993 21.3931 68.3798 19.6719C70.0627 18.5512 74.169 17.424 75.5185 19.6301C75.7878 20.0765 75.8583 20.6609 76.2141 21.027C76.8008 21.6371 77.7528 21.3256 78.567 21.3481C80.4551 21.3802 81.8367 23.3872 82.2951 25.3685C82.7535 27.3498 82.6157 29.45 83.074 31.4281C83.0422 30.9856 83.0989 30.5413 83.2407 30.1211Z" fill="black"/>
<path opacity="0.1" d="M92.508 27.8025C92.1874 28.7851 91.2931 29.6843 90.3443 29.482C89.3954 29.2797 88.9306 28.1975 88.2222 27.5231C87.7856 27.1072 87.2299 26.8386 86.6331 26.7551C86.0364 26.6716 85.4285 26.7773 84.8948 27.0575C84.3808 27.3651 83.9582 27.8048 83.6708 28.331C83.3833 28.8572 83.2415 29.4508 83.26 30.0503C83.5063 29.2946 84.0237 28.6573 84.7121 28.2617C85.2454 27.9823 85.8526 27.8769 86.4487 27.9604C87.0448 28.0439 87.5999 28.3121 88.0362 28.7273C88.7479 29.4049 89.2319 30.4903 90.1615 30.6862C91.0911 30.882 91.9887 29.9893 92.3221 29.0067C92.4986 28.4298 92.6125 27.8355 92.6619 27.2341C92.6219 27.4265 92.5705 27.6163 92.508 27.8025Z" fill="black"/>
<path opacity="0.1" d="M95.4058 19.3924C94.7134 21.2228 93.4569 22.8027 93.0401 24.7295C92.9568 25.118 92.9087 25.5162 92.8606 25.9144C93.2838 23.9877 94.5307 22.4206 95.2231 20.5966C95.5309 19.7708 95.7229 18.9063 95.7937 18.0277C95.699 18.4918 95.5693 18.948 95.4058 19.3924Z" fill="black"/>
</g>
<path d="M11.4914 65.4299L11.4571 65.4472C11.397 65.4775 11.3728 65.5509 11.4031 65.6111L12.3345 67.4638C12.3647 67.524 12.438 67.5482 12.4981 67.5179L12.5324 67.5006C12.5925 67.4703 12.6167 67.3969 12.5864 67.3367L11.655 65.484C11.6247 65.4238 11.5515 65.3995 11.4914 65.4299Z" fill="#3A3768"/>
<path d="M2.27517 68.0114L2.25517 68.0215C2.22204 68.0382 2.20873 68.0787 2.22545 68.1119L2.50804 68.6736C2.52476 68.7069 2.56518 68.7203 2.59831 68.7036L2.61831 68.6935C2.65144 68.6767 2.66474 68.6362 2.64802 68.603L2.36543 68.0413C2.34871 68.008 2.3083 67.9946 2.27517 68.0114Z" fill="#3A3768"/>
<path d="M2.90972 69.2914L2.88973 69.3015C2.85187 69.3206 2.83666 69.3669 2.85576 69.4049L3.38313 70.454C3.40223 70.4919 3.4484 70.5073 3.48626 70.4882L3.50625 70.4781C3.54411 70.459 3.55931 70.4127 3.54022 70.3747L3.01284 69.3256C2.99374 69.2876 2.94758 69.2723 2.90972 69.2914Z" fill="#3A3768"/>
<path d="M3.71275 70.8949L3.69276 70.9049C3.65648 70.9232 3.64191 70.9676 3.66022 71.004L4.19478 72.0674C4.21308 72.1038 4.25732 72.1185 4.2936 72.1002L4.31359 72.0901C4.34987 72.0718 4.36444 72.0274 4.34613 71.991L3.81157 70.9276C3.79327 70.8912 3.74903 70.8766 3.71275 70.8949Z" fill="#3A3768"/>
<path d="M8.89141 61.8833L1.78542 65.4682C1.43123 65.6469 1.2887 66.0794 1.46707 66.4342L9.40863 82.2313C9.587 82.5862 10.0187 82.7289 10.3729 82.5503L17.4789 78.9654C17.8331 78.7867 17.9756 78.3542 17.7973 77.9994L9.85569 62.2022C9.67732 61.8474 9.2456 61.7046 8.89141 61.8833Z" fill="#3A3768"/>
<path d="M7.91329 62.9203C7.87238 62.9386 7.83577 62.9653 7.80579 62.9986C7.77582 63.032 7.75317 63.0713 7.73927 63.1139C7.72538 63.1566 7.72055 63.2017 7.72513 63.2463C7.7297 63.291 7.74358 63.3341 7.76584 63.3731L7.79789 63.4341C7.82005 63.4732 7.83376 63.5166 7.83812 63.5614C7.84247 63.6062 7.83737 63.6514 7.82317 63.6941C7.80896 63.7368 7.78596 63.776 7.75565 63.8092C7.72534 63.8424 7.68841 63.8689 7.64724 63.8869L4.09225 65.6819C4.05338 65.7042 4.01026 65.7181 3.9657 65.7227C3.92114 65.7273 3.87613 65.7225 3.83354 65.7086C3.79095 65.6946 3.75175 65.6719 3.71846 65.6419C3.68517 65.6119 3.65854 65.5752 3.64027 65.5342L3.60821 65.47C3.58994 65.429 3.56331 65.3923 3.53002 65.3623C3.49674 65.3323 3.45753 65.3096 3.41494 65.2957C3.37236 65.2817 3.32732 65.2769 3.28276 65.2815C3.2382 65.2861 3.1951 65.3 3.15623 65.3223L2.46382 65.6691C2.38795 65.7069 2.32033 65.7594 2.26486 65.8236C2.20938 65.8878 2.16715 65.9624 2.14062 66.043C2.11409 66.1236 2.10379 66.2087 2.11029 66.2934C2.1168 66.378 2.14 66.4605 2.17854 66.5361L9.74047 81.5742C9.77823 81.6502 9.83065 81.7179 9.89472 81.7735C9.95878 81.8291 10.0332 81.8714 10.1137 81.898C10.1942 81.9245 10.2791 81.9349 10.3636 81.9284C10.4481 81.9218 10.5305 81.8986 10.606 81.86L16.8087 78.7291C16.8842 78.6912 16.9515 78.6388 17.0067 78.5749C17.0619 78.511 17.1039 78.4367 17.1304 78.3565C17.1569 78.2762 17.1674 78.1915 17.1611 78.1072C17.1549 78.0229 17.1321 77.9407 17.094 77.8652L9.54172 62.824C9.50367 62.7487 9.45116 62.6816 9.38721 62.6266C9.32327 62.5717 9.24913 62.5299 9.16904 62.5036C9.08896 62.4774 9.0045 62.4672 8.92049 62.4737C8.83647 62.4801 8.75455 62.5032 8.67942 62.5414L7.91329 62.9203Z" fill="#6C63FF"/>
<path d="M5.85622 64.056L4.89137 64.5427C4.83444 64.5714 4.81154 64.6409 4.84021 64.6979L4.85607 64.7295C4.88473 64.7865 4.95412 64.8095 5.01104 64.7808L5.9759 64.294C6.03282 64.2653 6.05572 64.1958 6.02706 64.1388L6.0112 64.1072C5.98253 64.0502 5.91315 64.0272 5.85622 64.056Z" fill="#E6E8EC"/>
<path d="M6.32929 64.0988C6.41225 64.0988 6.47949 64.0312 6.47949 63.9478C6.47949 63.8645 6.41225 63.7969 6.32929 63.7969C6.24634 63.7969 6.17908 63.8645 6.17908 63.9478C6.17908 64.0312 6.24634 64.0988 6.32929 64.0988Z" fill="#E6E8EC"/>
<defs>
<linearGradient id="paint0_linear" x1="67.4149" y1="258.592" x2="67.4149" y2="-2.17689e-05" gradientUnits="userSpaceOnUse">
<stop stop-color="#808080" stop-opacity="0.25"/>
<stop offset="0.54" stop-color="#808080" stop-opacity="0.12"/>
<stop offset="1" stop-color="#808080" stop-opacity="0.1"/>
</linearGradient>
</defs>
</svg>
