<svg width="62" height="71" viewBox="0 0 62 71" fill="none" xmlns="http://www.w3.org/2000/svg">
<path opacity="0.5" d="M31.0971 0.377971C31.0971 0.377971 62.236 -1.50379 58.5656 20.3548C58.5656 20.3548 59.2933 24.2083 55.7992 25.9712C55.7992 25.9712 55.7447 24.3656 52.5936 24.9019C51.4754 25.0878 50.3393 25.1417 49.2086 25.0625C47.681 24.9604 46.2287 24.3604 45.0734 23.3541C45.0734 23.3541 36.335 19.7415 32.9275 5.40029C32.9275 5.40029 30.4112 2.27258 30.5105 1.46978L35.7644 3.71762C35.7644 3.71762 33.9693 7.51647 35.383 10.6731C35.383 10.6731 35.5529 3.8557 36.5626 4.01626C36.7678 4.05158 39.2938 5.33285 39.2938 5.33285C39.2938 5.33285 36.2036 11.9479 38.534 16.7551C38.534 16.7551 37.6493 8.60507 40.2586 5.81132L43.9579 7.97567C43.9579 7.97567 40.3452 14.8059 42.7942 20.3837C42.7942 20.3837 42.1531 11.8323 44.7176 8.50231L48.0706 11.1194C48.0706 11.1194 44.6791 17.863 46.7467 22.4775C46.7467 22.4775 47.016 12.5227 48.795 11.7713C48.795 11.7713 51.7281 14.3627 52.1769 15.4257C52.1769 15.4257 49.8529 20.3131 51.2954 22.8949C51.2954 22.8949 52.1769 16.2638 52.8982 16.2317C52.8982 16.2317 55.8216 20.6278 56.1262 23.6367C56.1262 23.6367 55.9979 19.1571 53.6066 15.811C53.6066 15.811 56.4307 16.2959 58.0944 18.1327C58.0944 18.1327 57.6392 15.0243 52.8982 14.7545C52.8982 14.7545 50.4844 11.4213 49.8368 11.2222C49.8368 11.2222 54.5522 10.8272 57.4116 12.0956C57.4116 12.0956 54.8952 9.16382 48.9746 10.49L45.6664 7.78621C45.6664 7.78621 51.8724 6.93203 54.5041 7.87291C54.5041 7.87291 51.4749 5.28147 44.7721 7.16966L41.1626 5.01494C41.1626 5.01494 46.455 3.87176 49.6093 4.286C49.6093 4.286 46.2819 2.48773 40.108 4.43693L37.5435 3.27769C37.5435 3.27769 41.4223 2.51342 42.557 2.39461C43.6918 2.27579 43.7527 1.95788 43.7527 1.95788C41.2967 1.5489 38.7757 1.83013 36.4697 2.77032C36.4697 2.77032 31.0042 0.72157 31.0971 0.377971Z" fill="#13F1FC"/>
<path opacity="0.5" d="M48.5354 58.8539C48.5354 58.8539 62.6046 58.003 60.9473 67.8806C60.9473 67.8806 61.2679 69.6243 59.6972 70.4175C59.6972 70.4175 59.6715 69.6853 58.2546 69.9326C57.7498 70.0188 57.2364 70.0436 56.7256 70.0064C56.0355 69.9602 55.3793 69.6896 54.8568 69.2358C54.8568 69.2358 50.9011 67.598 49.3624 61.121C49.3624 61.121 48.2245 59.7113 48.2693 59.3484L50.6446 60.3632C50.6446 60.3632 49.8336 62.078 50.4715 63.5037C50.4715 63.5037 50.5485 60.4242 51.0037 60.4981C51.0966 60.5141 52.2378 61.0921 52.2378 61.0921C52.2378 61.0921 50.8434 64.0818 51.8948 66.2525C51.8948 66.2525 51.4973 62.5725 52.6738 61.3073L54.3471 62.2867C54.3471 62.2867 52.7026 65.3727 53.8117 67.9095C53.8117 67.9095 53.5264 64.0561 54.6869 62.5404L56.2031 63.7221C56.2031 63.7221 54.6708 66.7663 55.6037 68.86C55.6037 68.86 55.7255 64.3644 56.5301 64.0208C56.5301 64.0208 57.8539 65.1896 58.0591 65.6713C58.0591 65.6713 57.0077 67.8806 57.6584 69.0463C57.6584 69.0463 58.0591 66.0502 58.3861 66.0374C58.3861 66.0374 59.7068 68.0219 59.8446 69.3835C59.8446 69.3835 59.7869 67.3572 58.7066 65.8511C59.4674 65.9969 60.1693 66.3618 60.7261 66.9012C60.7261 66.9012 60.521 65.4979 58.3797 65.3759C58.3797 65.3759 57.2898 63.8698 56.9981 63.7703C56.9981 63.7703 59.1266 63.5904 60.4184 64.1653C60.4184 64.1653 59.2836 62.8422 56.607 63.4427L55.11 62.2193C55.11 62.2193 57.9149 61.8371 59.1041 62.261C59.1041 62.261 57.7353 61.0889 54.7093 61.9399L53.0809 60.9765C53.0809 60.9765 55.4722 60.4627 56.8955 60.6554C56.8955 60.6554 55.3921 59.843 52.6032 60.7228L51.4396 60.1994C51.4396 60.1994 53.1899 59.8526 53.706 59.798C54.2221 59.7434 54.2445 59.6021 54.2445 59.6021C53.1355 59.4166 51.9969 59.5433 50.9556 59.9682C50.9556 59.9682 48.4841 59.0081 48.5354 58.8539Z" fill="#13F1FC"/>
<path opacity="0.5" d="M0.266051 6.06188C0.266051 6.06188 14.3353 5.21412 12.678 15.0886C12.678 15.0886 12.9985 16.8355 11.4278 17.6286C11.4278 17.6286 11.4022 16.8965 9.98531 17.1437C9.48028 17.2284 8.96707 17.2532 8.45626 17.2176C7.76584 17.1702 7.1097 16.8985 6.58742 16.4437C6.58742 16.4437 2.63175 14.8092 1.09309 8.3322C1.09309 8.3322 -0.0448892 6.91927 -1.13128e-05 6.5564L2.37531 7.57114C2.37531 7.57114 1.5643 9.28913 2.20221 10.7149C2.20221 10.7149 2.27914 7.63536 2.73433 7.70922C2.8273 7.70922 3.96847 8.30329 3.96847 8.30329C3.96847 8.30329 2.57406 11.2929 3.62548 13.4637C3.62548 13.4637 3.22799 9.78045 4.40443 8.51845L6.07773 9.48181C6.07773 9.48181 4.4461 12.571 5.55202 15.0886C5.55202 15.0886 5.26672 11.2351 6.42714 9.72265L7.94337 10.9044C7.94337 10.9044 6.41111 13.9486 7.34393 16.0423C7.34393 16.0423 7.46574 11.5466 8.27033 11.2062C8.27033 11.2062 9.59423 12.3751 9.79939 12.8568C9.79939 12.8568 8.74796 15.0661 9.39869 16.2317C9.39869 16.2317 9.79939 13.2357 10.1264 13.2196C10.1264 13.2196 11.447 15.2074 11.5849 16.5657C11.5849 16.5657 11.5272 14.5427 10.4469 13.0334C11.2083 13.1775 11.9105 13.5427 12.4664 14.0835C12.4664 14.0835 12.2613 12.677 10.1199 12.5549C10.1199 12.5549 9.03005 11.0489 8.73835 10.9493C8.73835 10.9493 10.8668 10.7695 12.1587 11.3443C12.1587 11.3443 11.0239 10.0181 8.34727 10.6218L6.86309 9.41116C6.86309 9.41116 9.66796 9.02581 10.8572 9.4529C10.8572 9.4529 9.48845 8.28082 6.4624 9.13178L4.83397 8.16842C4.83397 8.16842 7.22532 7.65142 8.64859 7.8473C8.64859 7.8473 7.14518 7.03487 4.35635 7.91474L3.19273 7.39131C3.19273 7.39131 4.94617 7.04772 5.45906 6.99313C5.97195 6.93853 5.99759 6.79724 5.99759 6.79724C4.88623 6.60315 3.74286 6.72324 2.69587 7.14405C2.69587 7.14405 0.224378 6.21923 0.266051 6.06188Z" fill="#6C63FF"/>
</svg>
