<svg width="278" height="186" viewBox="0 0 278 186" fill="none" xmlns="http://www.w3.org/2000/svg">
<path opacity="0.1" d="M161.266 30.8736C143.561 30.2603 126.697 24.5315 110.592 18.2825C94.4874 12.0335 78.5366 5.07802 61.2554 1.75763C50.1385 -0.377815 37.4285 -0.679668 28.4689 5.28996C19.8524 11.0348 17.0667 20.9542 15.5697 30.1543C14.4414 37.0776 13.781 44.3671 16.868 50.8473C19.0093 55.343 22.8143 59.129 25.4461 63.4384C34.6012 78.4379 28.1291 96.9312 18.2079 111.574C13.5534 118.427 8.15207 124.981 4.56505 132.28C0.978028 139.579 -0.688862 147.973 2.45259 155.43C5.56839 162.815 12.9893 168.377 21.0448 172.285C37.3772 180.217 56.6266 182.487 75.3823 183.775C116.92 186.62 158.679 185.381 200.329 184.154C215.741 183.698 231.221 183.235 246.383 180.846C254.804 179.52 263.497 177.417 269.61 172.337C277.371 165.889 279.294 154.967 274.098 146.881C265.376 133.317 241.257 129.949 235.163 115.392C231.807 107.38 235.253 98.4533 240.129 91.0226C250.592 75.0822 268.126 61.0974 269.049 42.8771C269.691 30.3534 261.253 17.8297 248.213 11.9082C234.551 5.70099 215.61 6.48131 205.528 16.7572C195.139 27.3477 176.899 31.4195 161.266 30.8736Z" fill="#6C63FF"/>
</svg>
