<svg width="173" height="218" viewBox="0 0 173 218" fill="none" xmlns="http://www.w3.org/2000/svg">
<path opacity="0.1" d="M86.6476 218C134.237 218 172.816 215.221 172.816 211.793C172.816 208.365 134.237 205.586 86.6476 205.586C39.058 205.586 0.478958 208.365 0.478958 211.793C0.478958 215.221 39.058 218 86.6476 218Z" fill="#6C63FF"/>
<path d="M75.5403 29.7626V65.256C75.5411 65.7239 75.4498 66.1873 75.2714 66.6198C75.0931 67.0522 74.8312 67.4452 74.501 67.776C74.1707 68.1069 73.7785 68.3692 73.3468 68.5478C72.9151 68.7265 72.4524 68.818 71.9854 68.8172H68.1676V26.2045H71.9854C72.4522 26.2037 72.9146 26.2951 73.346 26.4736C73.7775 26.6521 74.1696 26.9141 74.4998 27.2446C74.8301 27.5751 75.0919 27.9676 75.2705 28.3997C75.449 28.8318 75.5407 29.2949 75.5403 29.7626Z" fill="#C7CCE1"/>
<path opacity="0.2" d="M72.681 26.272V68.7498C72.4519 68.7949 72.2189 68.8175 71.9854 68.8172H71.402V26.2046H71.9854C72.2189 26.2043 72.4519 26.2269 72.681 26.272Z" fill="black"/>
<path d="M58.6855 81.479H44.9208V192.041H58.6855V81.479Z" fill="#DCDFED"/>
<path d="M61.9584 203.845H40.0676V206.925H61.9584V203.845Z" fill="#C7CCE1"/>
<path opacity="0.1" d="M58.6855 189.854H44.9208V192.037H58.6855V189.854Z" fill="black"/>
<path d="M35.2529 190.307H66.7699C68.4832 190.307 70.1798 190.645 71.7627 191.301C73.3456 191.958 74.7838 192.921 75.9953 194.135C77.2068 195.348 78.1678 196.789 78.8235 198.375C79.4791 199.96 79.8166 201.66 79.8166 203.376V205.386H22.2062V203.376C22.2062 201.66 22.5437 199.96 23.1994 198.375C23.855 196.789 24.816 195.348 26.0275 194.135C27.239 192.921 28.6773 191.958 30.2601 191.301C31.843 190.645 33.5396 190.307 35.2529 190.307Z" fill="#DCDFED"/>
<path opacity="0.1" d="M58.6855 96.7001H44.9208V109.962H58.6855V96.7001Z" fill="black"/>
<path opacity="0.1" d="M58.6855 95.7978H44.9208V109.06H58.6855V95.7978Z" fill="black"/>
<path d="M60.1184 96.2473H43.645V109.51H60.1184V96.2473Z" fill="#DCDFED"/>
<path d="M66.1 73.1491V78.6531C66.1 80.0226 65.5569 81.336 64.5903 82.3044C63.6236 83.2727 62.3125 83.8168 60.9455 83.8168H42.6738C41.3067 83.8168 39.9956 83.2727 39.0289 82.3044C38.0623 81.336 37.5192 80.0226 37.5192 78.6531V73.1491C37.5196 72.4715 37.6533 71.8005 37.9125 71.1746C38.1718 70.5487 38.5516 69.98 39.0303 69.5011C39.5089 69.0222 40.077 68.6425 40.7022 68.3835C41.3273 68.1246 41.9973 67.9915 42.6738 67.9919H60.9455C61.622 67.9915 62.2919 68.1246 62.917 68.3835C63.5422 68.6425 64.1103 69.0222 64.5889 69.5011C65.0676 69.98 65.4474 70.5487 65.7067 71.1746C65.9659 71.8005 66.0996 72.4715 66.1 73.1491Z" fill="#C7CCE1"/>
<path opacity="0.1" d="M66.1 73.1492V73.7112C64.4221 75.9145 62.2592 77.7003 59.7798 78.9295C57.3004 80.1587 54.5713 80.7982 51.8048 80.7982C49.0384 80.7982 46.3092 80.1587 43.8298 78.9295C41.3504 77.7003 39.1875 75.9145 37.5096 73.7112V73.1492C37.51 72.4715 37.6437 71.8006 37.9029 71.1746C38.1622 70.5487 38.542 69.9801 39.0206 69.5012C39.4993 69.0223 40.0674 68.6425 40.6926 68.3836C41.3177 68.1247 41.9877 67.9916 42.6641 67.992H60.9358C61.6131 67.9903 62.2841 68.1225 62.9104 68.3808C63.5366 68.6392 64.1059 69.0188 64.5856 69.4978C65.0652 69.9768 65.4459 70.5459 65.7057 71.1724C65.9656 71.799 66.0996 72.4707 66.1 73.1492Z" fill="black"/>
<path d="M35.2785 21.8663H68.331C68.7162 21.8663 69.0855 22.0195 69.3579 22.2923C69.6302 22.5651 69.7832 22.9351 69.7832 23.3209V64.7454C69.7832 68.8854 68.1415 72.8557 65.2192 75.7831C62.297 78.7105 58.3336 80.3551 54.2009 80.3551H49.4086C45.276 80.3551 41.3126 78.7105 38.3903 75.7831C35.4681 72.8557 33.8264 68.8854 33.8264 64.7454V23.3209C33.8264 22.9351 33.9794 22.5651 34.2517 22.2923C34.524 22.0195 34.8934 21.8663 35.2785 21.8663Z" fill="#C7CCE1"/>
<path d="M41.3883 0.470037H62.2245C63.6918 0.470037 65.0991 1.05398 66.1367 2.09341C67.1743 3.13283 67.7572 4.5426 67.7572 6.01257V21.8919C67.7572 22.4217 67.5472 22.9297 67.1733 23.3043C66.7993 23.6789 66.2922 23.8893 65.7634 23.8893H37.8494C37.5876 23.8893 37.3283 23.8376 37.0864 23.7373C36.8445 23.6369 36.6247 23.4898 36.4395 23.3043C36.2544 23.1188 36.1075 22.8986 36.0073 22.6563C35.9071 22.414 35.8555 22.1542 35.8555 21.8919V6.00935C35.8555 4.53938 36.4384 3.12962 37.476 2.0902C38.5136 1.05077 39.9209 0.466827 41.3883 0.466827V0.470037Z" fill="#C7CCE1"/>
<path opacity="0.2" d="M64.5934 16.8985H39.6189V18.5555H64.5934V16.8985Z" fill="black"/>
<g opacity="0.1">
<path opacity="0.1" d="M43.8502 51.0722H37.9263C37.7864 51.0722 37.6731 51.1858 37.6731 51.3259V53.1177C37.6731 53.2578 37.7864 53.3714 37.9263 53.3714H43.8502C43.9901 53.3714 44.1035 53.2578 44.1035 53.1177V51.3259C44.1035 51.1858 43.9901 51.0722 43.8502 51.0722Z" fill="black"/>
<path opacity="0.1" d="M51.1268 51.0722H45.2029C45.0631 51.0722 44.9497 51.1858 44.9497 51.3259V53.1177C44.9497 53.2578 45.0631 53.3714 45.2029 53.3714H51.1268C51.2667 53.3714 51.38 53.2578 51.38 53.1177V51.3259C51.38 51.1858 51.2667 51.0722 51.1268 51.0722Z" fill="black"/>
<path opacity="0.1" d="M58.4034 51.0722H52.4796C52.3397 51.0722 52.2263 51.1858 52.2263 51.3259V53.1177C52.2263 53.2578 52.3397 53.3714 52.4796 53.3714H58.4034C58.5433 53.3714 58.6567 53.2578 58.6567 53.1177V51.3259C58.6567 51.1858 58.5433 51.0722 58.4034 51.0722Z" fill="black"/>
<path opacity="0.1" d="M65.6833 51.0722H59.7594C59.6195 51.0722 59.5062 51.1858 59.5062 51.3259V53.1177C59.5062 53.2578 59.6195 53.3714 59.7594 53.3714H65.6833C65.8231 53.3714 65.9365 53.2578 65.9365 53.1177V51.3259C65.9365 51.1858 65.8231 51.0722 65.6833 51.0722Z" fill="black"/>
<path opacity="0.1" d="M43.8502 55.5743H37.9263C37.7864 55.5743 37.6731 55.6879 37.6731 55.828V57.6198C37.6731 57.7599 37.7864 57.8735 37.9263 57.8735H43.8502C43.9901 57.8735 44.1035 57.7599 44.1035 57.6198V55.828C44.1035 55.6879 43.9901 55.5743 43.8502 55.5743Z" fill="black"/>
<path opacity="0.1" d="M51.1268 55.5743H45.2029C45.0631 55.5743 44.9497 55.6879 44.9497 55.828V57.6198C44.9497 57.7599 45.0631 57.8735 45.2029 57.8735H51.1268C51.2667 57.8735 51.38 57.7599 51.38 57.6198V55.828C51.38 55.6879 51.2667 55.5743 51.1268 55.5743Z" fill="black"/>
<path opacity="0.1" d="M58.4034 55.5743H52.4796C52.3397 55.5743 52.2263 55.6879 52.2263 55.828V57.6198C52.2263 57.7599 52.3397 57.8735 52.4796 57.8735H58.4034C58.5433 57.8735 58.6567 57.7599 58.6567 57.6198V55.828C58.6567 55.6879 58.5433 55.5743 58.4034 55.5743Z" fill="black"/>
<path opacity="0.1" d="M43.8502 59.9641H37.9263C37.7864 59.9641 37.6731 60.0777 37.6731 60.2178V62.0096C37.6731 62.1497 37.7864 62.2633 37.9263 62.2633H43.8502C43.9901 62.2633 44.1035 62.1497 44.1035 62.0096V60.2178C44.1035 60.0777 43.9901 59.9641 43.8502 59.9641Z" fill="black"/>
<path opacity="0.1" d="M51.1268 59.9641H45.2029C45.0631 59.9641 44.9497 60.0777 44.9497 60.2178V62.0096C44.9497 62.1497 45.0631 62.2633 45.2029 62.2633H51.1268C51.2667 62.2633 51.38 62.1497 51.38 62.0096V60.2178C51.38 60.0777 51.2667 59.9641 51.1268 59.9641Z" fill="black"/>
<path opacity="0.1" d="M58.4034 59.9641H52.4796C52.3397 59.9641 52.2263 60.0777 52.2263 60.2178V62.0096C52.2263 62.1497 52.3397 62.2633 52.4796 62.2633H58.4034C58.5433 62.2633 58.6567 62.1497 58.6567 62.0096V60.2178C58.6567 60.0777 58.5433 59.9641 58.4034 59.9641Z" fill="black"/>
<path opacity="0.1" d="M43.8502 64.8065H37.9263C37.7864 64.8065 37.6731 64.9201 37.6731 65.0602V66.852C37.6731 66.9921 37.7864 67.1057 37.9263 67.1057H43.8502C43.9901 67.1057 44.1035 66.9921 44.1035 66.852V65.0602C44.1035 64.9201 43.9901 64.8065 43.8502 64.8065Z" fill="black"/>
<path opacity="0.1" d="M51.1268 64.8065H45.2029C45.0631 64.8065 44.9497 64.9201 44.9497 65.0602V66.852C44.9497 66.9921 45.0631 67.1057 45.2029 67.1057H51.1268C51.2667 67.1057 51.38 66.9921 51.38 66.852V65.0602C51.38 64.9201 51.2667 64.8065 51.1268 64.8065Z" fill="black"/>
<path opacity="0.1" d="M58.4034 64.8065H52.4796C52.3397 64.8065 52.2263 64.9201 52.2263 65.0602V66.852C52.2263 66.9921 52.3397 67.1057 52.4796 67.1057H58.4034C58.5433 67.1057 58.6567 66.9921 58.6567 66.852V65.0602C58.6567 64.9201 58.5433 64.8065 58.4034 64.8065Z" fill="black"/>
<path opacity="0.1" d="M65.6833 55.5743H59.7594C59.6195 55.5743 59.5062 55.6879 59.5062 55.828V57.6198C59.5062 57.7599 59.6195 57.8735 59.7594 57.8735H65.6833C65.8231 57.8735 65.9365 57.7599 65.9365 57.6198V55.828C65.9365 55.6879 65.8231 55.5743 65.6833 55.5743Z" fill="black"/>
<path opacity="0.1" d="M64.9684 59.7168H60.5319C60.1832 59.7168 59.9004 60.0001 59.9004 60.3494V67.2792C59.9004 67.6286 60.1832 67.9118 60.5319 67.9118H64.9684C65.3171 67.9118 65.5999 67.6286 65.5999 67.2792V60.3494C65.5999 60.0001 65.3171 59.7168 64.9684 59.7168Z" fill="black"/>
</g>
<path d="M43.8502 50.6193H37.9263C37.7864 50.6193 37.6731 50.7329 37.6731 50.873V52.6649C37.6731 52.805 37.7864 52.9185 37.9263 52.9185H43.8502C43.9901 52.9185 44.1035 52.805 44.1035 52.6649V50.873C44.1035 50.7329 43.9901 50.6193 43.8502 50.6193Z" fill="#F2F3F3"/>
<path d="M51.1268 50.6193H45.2029C45.0631 50.6193 44.9497 50.7329 44.9497 50.873V52.6649C44.9497 52.805 45.0631 52.9185 45.2029 52.9185H51.1268C51.2667 52.9185 51.38 52.805 51.38 52.6649V50.873C51.38 50.7329 51.2667 50.6193 51.1268 50.6193Z" fill="#F2F3F3"/>
<path d="M58.4034 50.6193H52.4796C52.3397 50.6193 52.2263 50.7329 52.2263 50.873V52.6649C52.2263 52.805 52.3397 52.9185 52.4796 52.9185H58.4034C58.5433 52.9185 58.6567 52.805 58.6567 52.6649V50.873C58.6567 50.7329 58.5433 50.6193 58.4034 50.6193Z" fill="#F2F3F3"/>
<path d="M65.6833 50.6193H59.7594C59.6195 50.6193 59.5062 50.7329 59.5062 50.873V52.6649C59.5062 52.805 59.6195 52.9185 59.7594 52.9185H65.6833C65.8231 52.9185 65.9365 52.805 65.9365 52.6649V50.873C65.9365 50.7329 65.8231 50.6193 65.6833 50.6193Z" fill="#D44F6A"/>
<path d="M43.8502 55.1214H37.9263C37.7864 55.1214 37.6731 55.235 37.6731 55.3751V57.1669C37.6731 57.307 37.7864 57.4206 37.9263 57.4206H43.8502C43.9901 57.4206 44.1035 57.307 44.1035 57.1669V55.3751C44.1035 55.235 43.9901 55.1214 43.8502 55.1214Z" fill="#F2F3F3"/>
<path d="M51.1268 55.1214H45.2029C45.0631 55.1214 44.9497 55.235 44.9497 55.3751V57.1669C44.9497 57.307 45.0631 57.4206 45.2029 57.4206H51.1268C51.2667 57.4206 51.38 57.307 51.38 57.1669V55.3751C51.38 55.235 51.2667 55.1214 51.1268 55.1214Z" fill="#F2F3F3"/>
<path d="M58.4034 55.1214H52.4796C52.3397 55.1214 52.2263 55.235 52.2263 55.3751V57.1669C52.2263 57.307 52.3397 57.4206 52.4796 57.4206H58.4034C58.5433 57.4206 58.6567 57.307 58.6567 57.1669V55.3751C58.6567 55.235 58.5433 55.1214 58.4034 55.1214Z" fill="#F2F3F3"/>
<path d="M43.8502 59.5112H37.9263C37.7864 59.5112 37.6731 59.6248 37.6731 59.7649V61.5567C37.6731 61.6968 37.7864 61.8104 37.9263 61.8104H43.8502C43.9901 61.8104 44.1035 61.6968 44.1035 61.5567V59.7649C44.1035 59.6248 43.9901 59.5112 43.8502 59.5112Z" fill="#F2F3F3"/>
<path d="M51.1268 59.5112H45.2029C45.0631 59.5112 44.9497 59.6248 44.9497 59.7649V61.5567C44.9497 61.6968 45.0631 61.8104 45.2029 61.8104H51.1268C51.2667 61.8104 51.38 61.6968 51.38 61.5567V59.7649C51.38 59.6248 51.2667 59.5112 51.1268 59.5112Z" fill="#F2F3F3"/>
<path d="M58.4034 59.5112H52.4796C52.3397 59.5112 52.2263 59.6248 52.2263 59.7649V61.5567C52.2263 61.6968 52.3397 61.8104 52.4796 61.8104H58.4034C58.5433 61.8104 58.6567 61.6968 58.6567 61.5567V59.7649C58.6567 59.6248 58.5433 59.5112 58.4034 59.5112Z" fill="#F2F3F3"/>
<path d="M43.8502 64.3536H37.9263C37.7864 64.3536 37.6731 64.4672 37.6731 64.6073V66.3991C37.6731 66.5392 37.7864 66.6528 37.9263 66.6528H43.8502C43.9901 66.6528 44.1035 66.5392 44.1035 66.3991V64.6073C44.1035 64.4672 43.9901 64.3536 43.8502 64.3536Z" fill="#F2F3F3"/>
<path d="M51.1268 64.3536H45.2029C45.0631 64.3536 44.9497 64.4672 44.9497 64.6073V66.3991C44.9497 66.5392 45.0631 66.6528 45.2029 66.6528H51.1268C51.2667 66.6528 51.38 66.5392 51.38 66.3991V64.6073C51.38 64.4672 51.2667 64.3536 51.1268 64.3536Z" fill="#F2F3F3"/>
<path d="M58.4034 64.3536H52.4796C52.3397 64.3536 52.2263 64.4672 52.2263 64.6073V66.3991C52.2263 66.5392 52.3397 66.6528 52.4796 66.6528H58.4034C58.5433 66.6528 58.6567 66.5392 58.6567 66.3991V64.6073C58.6567 64.4672 58.5433 64.3536 58.4034 64.3536Z" fill="#F2F3F3"/>
<path d="M65.6833 55.1214H59.7594C59.6195 55.1214 59.5062 55.235 59.5062 55.3751V57.1669C59.5062 57.307 59.6195 57.4206 59.7594 57.4206H65.6833C65.8231 57.4206 65.9365 57.307 65.9365 57.1669V55.3751C65.9365 55.235 65.8231 55.1214 65.6833 55.1214Z" fill="#FECB42"/>
<path d="M64.9684 59.2672H60.5319C60.1832 59.2672 59.9004 59.5504 59.9004 59.8998V66.8295C59.9004 67.1789 60.1832 67.4621 60.5319 67.4621H64.9684C65.3171 67.4621 65.5999 67.1789 65.5999 66.8295V59.8998C65.5999 59.5504 65.3171 59.2672 64.9684 59.2672Z" fill="#97D25E"/>
<path d="M54.8453 44.9869H51.7647V45.3562H54.8453V44.9869Z" fill="#C7CCE1"/>
<path d="M59.1599 44.9869H56.0794V45.3562H59.1599V44.9869Z" fill="#C7CCE1"/>
<path d="M63.4746 44.9869H60.3941V45.3562H63.4746V44.9869Z" fill="#C7CCE1"/>
</svg>
