<svg width="19" height="22" viewBox="0 0 19 22" fill="none" xmlns="http://www.w3.org/2000/svg">
<path d="M3.21875 8.5625V14C3.21875 14.375 3.09375 14.6875 2.84375 14.9375C2.59375 15.1875 2.28125 15.3125 1.90625 15.3125C1.53125 15.3125 1.20312 15.1875 0.921875 14.9375C0.640625 14.6875 0.5 14.375 0.5 14V8.5625C0.5 8.21875 0.640625 7.92188 0.921875 7.67188C1.20312 7.42188 1.53125 7.29688 1.90625 7.29688C2.25 7.29688 2.54688 7.42188 2.79688 7.67188C3.07812 7.92188 3.21875 8.21875 3.21875 8.5625ZM3.6875 15.9688V7.53125H15.3125V15.9688C15.3125 16.3438 15.1719 16.6719 14.8906 16.9531C14.6094 17.2031 14.2812 17.3281 13.9062 17.3281H12.9688V20.1875C12.9688 20.75 12.75 21.1406 12.3125 21.3594C11.875 21.5781 11.4375 21.5781 11 21.3594C10.5938 21.1406 10.3906 20.75 10.3906 20.1875V17.3281H8.60938V20.1875C8.60938 20.7188 8.39062 21.0938 7.95312 21.3125C7.54688 21.5625 7.125 21.5781 6.6875 21.3594C6.25 21.1406 6.03125 20.75 6.03125 20.1875V17.3281H5.09375C4.71875 17.3281 4.39062 17.2031 4.10938 16.9531C3.82812 16.6719 3.6875 16.3438 3.6875 15.9688ZM15.3125 7.0625H3.64062C3.64062 6.6875 3.6875 6.3125 3.78125 5.9375C3.875 5.53125 4 5.17188 4.15625 4.85938C4.34375 4.51563 4.5625 4.1875 4.8125 3.875C5.0625 3.5625 5.34375 3.29688 5.65625 3.07812C5.96875 2.82813 6.29688 2.60938 6.64062 2.42188L5.75 0.78125C5.65625 0.65625 5.6875 0.5625 5.84375 0.5L6.03125 0.59375L6.96875 2.28125C8.65625 1.53125 10.3438 1.53125 12.0312 2.28125L12.9688 0.59375C13.0312 0.46875 13.1094 0.453125 13.2031 0.546875C13.2656 0.609375 13.2812 0.6875 13.25 0.78125L12.3594 2.42188C13.2656 2.89062 13.9844 3.54688 14.5156 4.39062C15.0469 5.20312 15.3125 6.09375 15.3125 7.0625ZM7.20312 4.8125C7.29688 4.71875 7.34375 4.60938 7.34375 4.48438C7.34375 4.35937 7.29688 4.25 7.20312 4.15625C7.10938 4.03125 6.98438 3.96875 6.82812 3.96875C6.70312 3.96875 6.59375 4.03125 6.5 4.15625C6.40625 4.25 6.35938 4.35937 6.35938 4.48438C6.35938 4.60938 6.40625 4.71875 6.5 4.8125C6.59375 4.90625 6.70312 4.95312 6.82812 4.95312C6.98438 4.95312 7.10938 4.90625 7.20312 4.8125ZM12.5 4.8125C12.5938 4.71875 12.6406 4.60938 12.6406 4.48438C12.6406 4.35937 12.5938 4.25 12.5 4.15625C12.4062 4.03125 12.2969 3.96875 12.1719 3.96875C12.0469 3.96875 11.9219 4.03125 11.7969 4.15625C11.7031 4.25 11.6562 4.35937 11.6562 4.48438C11.6562 4.57812 11.6719 4.67188 11.7031 4.76562C11.7656 4.82812 11.8281 4.875 11.8906 4.90625C11.9844 4.9375 12.0781 4.95312 12.1719 4.95312C12.2969 4.95312 12.4062 4.90625 12.5 4.8125ZM17.0938 7.29688C17.3438 7.29688 17.5625 7.35938 17.75 7.48438C17.9688 7.57812 18.1406 7.73438 18.2656 7.95312C18.4219 8.14062 18.5 8.34375 18.5 8.5625V14C18.5 14.375 18.3594 14.6875 18.0781 14.9375C17.7969 15.1875 17.4688 15.3125 17.0938 15.3125C16.75 15.3125 16.4375 15.1875 16.1562 14.9375C15.9062 14.6875 15.7812 14.375 15.7812 14V8.5625C15.7812 8.21875 15.9062 7.92188 16.1562 7.67188C16.4375 7.42188 16.75 7.29688 17.0938 7.29688Z" fill="white"/>
</svg>
