<svg width="19" height="22" viewBox="0 0 19 22" fill="none" xmlns="http://www.w3.org/2000/svg">
<path d="M15.1924 11.1494C15.1611 9.43066 15.9424 8.10254 17.5361 7.16504C16.6611 5.91504 15.333 5.21191 13.5518 5.05566C13.083 5.02441 12.5518 5.08691 11.958 5.24316C11.6143 5.33691 11.1455 5.49316 10.5518 5.71191C9.95801 5.93066 9.56738 6.04004 9.37988 6.04004C9.19238 6.04004 8.77051 5.91504 8.11426 5.66504C7.08301 5.29004 6.31738 5.10254 5.81738 5.10254C4.91113 5.13379 4.03613 5.38379 3.19238 5.85254C2.37988 6.32129 1.72363 7.00879 1.22363 7.91504C0.692383 8.88379 0.426758 10.04 0.426758 11.3838C0.426758 12.6025 0.645508 13.8682 1.08301 15.1807C1.33301 15.8682 1.69238 16.6338 2.16113 17.4775C2.75488 18.5088 3.34863 19.3213 3.94238 19.915C4.72363 20.6963 5.45801 21.0713 6.14551 21.04C6.48926 21.04 6.98926 20.915 7.64551 20.665C8.45801 20.3525 9.12988 20.1963 9.66113 20.1963C10.1924 20.1963 10.833 20.3369 11.583 20.6182C12.2705 20.8994 12.833 21.04 13.2705 21.04C14.2705 21.0088 15.2861 20.29 16.3174 18.8838C17.0986 17.79 17.6768 16.6494 18.0518 15.4619C16.8018 14.8682 15.958 13.9932 15.5205 12.8369C15.2705 12.2744 15.1611 11.7119 15.1924 11.1494ZM12.5205 3.41504C13.3643 2.41504 13.7393 1.29004 13.6455 0.0400391C13.083 0.0712891 12.5049 0.243164 11.9111 0.555664C11.3174 0.868164 10.833 1.24316 10.458 1.68066C9.55176 2.68066 9.16113 3.80566 9.28613 5.05566C10.4424 5.14941 11.5205 4.61816 12.5205 3.46191V3.41504Z" fill="white"/>
</svg>
