<svg width="1839" height="159" viewBox="0 0 1839 159" fill="none" xmlns="http://www.w3.org/2000/svg">
<path opacity="0.2" fill-rule="evenodd" clip-rule="evenodd" d="M1437.67 130.82C1438.45 130.537 1439.22 130.252 1440 129.963C1443.8 128.726 1451.89 124.132 1463.48 117.557C1497.28 98.3721 1560.82 62.3194 1634 43.5C1716.16 22.3721 1812.79 25.8208 1834.55 26.5977C1837.17 26.691 1838.7 26.7457 1839 26.7149V27.5C1838.16 27.6568 1834.78 30.2505 1829.2 34.5396C1806.51 51.9634 1747.39 97.3628 1674 121C1582.54 150.457 1470.91 145.623 1440 132V131.93L1438.92 131.414L1437.67 130.82ZM5.38721 26.2666C255.594 -27.311 375.435 9.52202 544.062 61.3501L544.07 61.3516C570.903 69.6001 598.973 78.2271 629 86.9302C844.171 149.295 965.752 122.514 1073.38 98.8062C1181.82 74.9205 1276.1 54.1534 1437.67 130.82C1321.02 173.366 1212.32 158.846 1100.86 143.958C1009.25 131.722 915.778 119.236 814.5 137.982C597.483 178.152 500.314 136.602 397.403 92.5957C303.413 52.4048 204.634 10.1661 5.38721 26.2666ZM5.38721 26.2666C3.59814 26.6499 1.80225 27.0376 0 27.4302V26.7144C1.80371 26.5606 3.59961 26.4112 5.38721 26.2666Z" fill="url(#paint0_linear)"/>
<defs>
<linearGradient id="paint0_linear" x1="1404.5" y1="-12" x2="1929" y2="176.5" gradientUnits="userSpaceOnUse">
<stop stop-color="#0470DC"/>
<stop offset="1" stop-color="#70DDFF"/>
</linearGradient>
</defs>
</svg>
