<svg width="2006" height="212" viewBox="0 0 2006 212" fill="none" xmlns="http://www.w3.org/2000/svg">
<g clip-path="url(#clip0)">
<path opacity="0.2" fill-rule="evenodd" clip-rule="evenodd" d="M1440 133V-712L1439.96 132.981C1276.99 55.0278 1182.33 75.8774 1073.38 99.8765C965.752 123.584 844.171 150.365 629 88C598.97 79.2964 570.898 70.6685 544.062 62.4199C374.229 10.2217 253.883 -26.7671 0 28.5V31.4629C35.4756 58.4541 169.879 136.737 460.181 117.934C487.679 116.153 503.187 116.9 520.603 117.74C547.174 119.02 578.187 120.515 663 113.57C748.875 106.539 845.105 132.891 944.237 160.038C1113.37 206.356 1290.96 254.987 1439.96 144.06L1439.96 132.981L1440 133ZM1531.46 103.762C1489.21 123.319 1458.67 137.457 1440 133.001V144.001C1444.79 141.084 1464.57 143.548 1493.61 147.166C1551.61 154.391 1646.58 166.22 1733 149C1815.6 132.323 1893.23 87.8394 1944.71 58.3462C1977.97 39.2856 2000.31 26.4863 2006 31.5V28.5015C1989.58 32.5942 1950.73 31.8252 1904.28 30.9062C1837.53 29.585 1755.08 27.9531 1701 39.9995C1631.96 57.2427 1575.38 83.4307 1531.46 103.762Z" fill="url(#paint0_linear)"/>
</g>
<defs>
<linearGradient id="paint0_linear" x1="1315" y1="-103.5" x2="2149.5" y2="292.5" gradientUnits="userSpaceOnUse">
<stop stop-color="#0470DC"/>
<stop offset="1" stop-color="#13F1FC"/>
</linearGradient>
<clipPath id="clip0">
<rect width="2006" height="212" fill="white"/>
</clipPath>
</defs>
</svg>
