<svg width="39" height="68" viewBox="0 0 39 68" fill="none" xmlns="http://www.w3.org/2000/svg">
<g id="road-flower2">
<path id="Vector" d="M10.9171 63.8978C12.4642 61.2975 10.7108 58.112 8.70995 55.7901C6.70908 53.4682 4.26472 51.0708 4.31629 48.1024C4.39365 43.8551 9.31846 41.3492 13.2532 39.0981C16.1735 37.4274 18.8671 35.4456 21.2773 33.1943C22.2887 32.3297 23.1235 31.3069 23.7423 30.174C24.557 28.5128 24.5364 26.6251 24.4849 24.8034C24.313 18.7439 23.9846 12.6907 23.4999 6.64371" stroke="#3F3D56" stroke-width="4" stroke-miterlimit="10"/>
<path id="Vector_2" d="M30.9826 6.30848C30.9277 5.19913 30.5682 4.12032 29.9373 3.17175C29.3064 2.22317 28.4243 1.43544 27.3727 0.881335L25.7535 3.8167L25.805 0.267837C24.3373 -0.126727 22.7705 -0.0844361 21.3307 0.388641C19.8908 0.861719 18.6525 1.74113 17.7941 2.89998C16.9358 4.05884 16.5019 5.43724 16.555 6.83637C16.6081 8.23551 17.1455 9.58302 18.0897 10.6846C19.0338 11.7861 20.3359 12.5847 21.8081 12.9652C23.2803 13.3457 24.8466 13.2884 26.2809 12.8016C27.7152 12.3147 28.9435 11.4235 29.7885 10.2565C30.6336 9.0895 31.0517 7.70703 30.9826 6.30848V6.30848Z" fill="#57B894"/>
<path id="Vector_3" d="M18.0903 51.1416C17.3311 52.4881 16.0893 53.555 14.5728 54.1633C13.0564 54.7716 11.3576 54.8845 9.76104 54.4829C8.1645 54.0814 6.7673 53.1898 5.80359 51.9577C4.83988 50.7256 4.36824 49.2278 4.46769 47.7153C4.56715 46.2028 5.23166 44.7676 6.34987 43.6501C7.46808 42.5326 8.97202 41.8008 10.6097 41.5774C12.2473 41.354 13.9191 41.6524 15.3448 42.4228C16.7706 43.1932 17.8637 44.3886 18.441 45.8088L13.9184 49.1736L18.8948 48.1165C18.896 49.1693 18.62 50.207 18.0903 51.1416V51.1416Z" fill="#57B894"/>
<path id="Vector_4" d="M14.4804 38.2814C13.5304 38.3238 12.5806 38.1941 11.6856 37.8996C10.7905 37.6052 9.96785 37.1518 9.26486 36.5654C8.56188 35.9791 7.99242 35.2715 7.58921 34.4831C7.18599 33.6948 6.95696 32.8413 6.91529 31.9717C6.85819 30.9354 7.07212 29.9016 7.53929 28.9561C7.97261 28.0708 8.61276 27.2833 9.41464 26.6489C10.2165 26.0146 11.1606 25.5488 12.1805 25.2845L12.1444 28.017L13.7791 25.0485C14.7291 25.006 15.6789 25.1358 16.574 25.4302C17.4691 25.7247 18.2917 26.1781 18.9947 26.7644C19.6977 27.3508 20.2671 28.0584 20.6704 28.8468C21.0736 29.6351 21.3026 30.4886 21.3443 31.3582C21.3866 32.1225 21.2819 32.8876 21.0348 33.6187C20.5993 34.9186 19.7362 36.0639 18.5632 36.8984C17.3902 37.7328 15.9644 38.2158 14.4804 38.2814V38.2814Z" fill="#57B894"/>
<path id="Vector_5" d="M32.0707 27.5829C30.9597 27.6203 29.8543 27.4223 28.8407 27.0046C27.827 26.5868 26.9325 25.9604 26.2269 25.1743C25.5212 24.3881 25.0234 23.4635 24.7724 22.4724C24.5213 21.4813 24.5238 20.4505 24.7795 19.4604C25.0353 18.4704 25.5374 17.5477 26.2468 16.7644C26.9562 15.9811 27.8537 15.3583 28.8693 14.9445C29.8849 14.5307 30.9913 14.3372 32.102 14.379C33.2128 14.4208 34.298 14.6967 35.2731 15.1854L33.9942 18.3945L36.6242 16.082C37.6875 16.9624 38.4402 18.1126 38.7864 19.386C39.1326 20.6594 39.0566 21.9983 38.5682 23.232C38.0797 24.4657 37.2009 25.5384 36.0437 26.3133C34.8865 27.0881 33.5034 27.5301 32.0707 27.5829V27.5829Z" fill="#57B894"/>
<path id="Vector_6" opacity="0.1" d="M30.0079 8.07345C28.3422 8.24334 26.7126 8.71999 25.0367 8.81438C23.3607 8.90876 21.5197 8.54066 20.4625 7.34669C19.8901 6.70486 19.6013 5.89315 19.1217 5.1947C18.6643 4.54264 18.0393 4.00306 17.3013 3.62317C16.8608 4.45878 16.6175 5.36993 16.5874 6.29729C16.5572 7.22466 16.7408 8.14745 17.1262 9.00558C17.5115 9.8637 18.0901 10.6379 18.8241 11.2779C19.5582 11.9178 20.4313 12.409 21.3866 12.7196C22.3419 13.0303 23.358 13.1533 24.3687 13.0807C25.3794 13.0082 26.362 12.7416 27.2527 12.2984C28.1433 11.8552 28.922 11.2453 29.538 10.5084C30.1539 9.7715 30.5934 8.92418 30.8278 8.02154C30.5545 8.03098 30.2812 8.04985 30.0079 8.07345Z" fill="black"/>
<path id="Vector_7" opacity="0.1" d="M32.0706 27.5829C30.8254 27.6326 29.5872 27.3876 28.4755 26.8717C27.3638 26.3558 26.4162 25.5864 25.7242 24.6377C25.0322 23.6889 24.6191 22.593 24.5249 21.4556C24.4307 20.3181 24.6584 19.1777 25.1862 18.1443C25.7634 18.4979 26.2592 18.9517 26.6456 19.4799C27.1613 20.1925 27.4707 21.0136 28.0792 21.6696C29.2034 22.8825 31.1321 23.2789 32.8751 23.2034C34.6182 23.1279 36.3096 22.6796 38.032 22.5333C38.2744 22.5333 38.5219 22.4955 38.7643 22.4908C38.4058 23.8904 37.5583 25.1448 36.3503 26.0638C35.1423 26.9827 33.6398 27.5161 32.0706 27.5829V27.5829Z" fill="black"/>
<path id="Vector_8" opacity="0.1" d="M14.4804 38.2816C13.5304 38.3241 12.5806 38.1944 11.6855 37.8999C10.7905 37.6054 9.96785 37.152 9.26486 36.5657C8.56188 35.9794 7.99242 35.2718 7.58921 34.4834C7.18599 33.6951 6.95696 32.8416 6.91529 31.972C6.85819 30.9357 7.07212 29.9019 7.53929 28.9564C8.1409 29.3139 8.66534 29.7699 9.08635 30.3014C9.64845 31.0281 9.99912 31.8635 10.6334 32.5336C11.8556 33.7795 13.908 34.2183 15.7594 34.1759C17.6107 34.1334 19.2763 33.737 21.0555 33.6143C20.6197 34.918 19.7538 36.0664 18.5766 36.902C17.3995 37.7376 15.9687 38.2195 14.4804 38.2816V38.2816Z" fill="black"/>
<path id="Vector_9" opacity="0.1" d="M18.0903 51.1415C17.7026 51.9342 17.1481 52.6492 16.4585 53.2457C15.7688 53.8423 14.9575 54.3086 14.0709 54.6182C13.1843 54.9279 12.2397 55.0746 11.2911 55.0502C10.3426 55.0257 9.40852 54.8305 8.54236 54.4757C7.67621 54.1209 6.89491 53.6134 6.24306 52.9823C5.5912 52.3512 5.08157 51.6087 4.74325 50.7974C4.40494 49.986 4.24457 49.1216 4.2713 48.2535C4.29803 47.3854 4.51134 46.5306 4.89904 45.738C5.49417 46.0963 6.0292 46.5318 6.48735 47.031C7.17322 47.8003 7.62702 48.6686 8.42118 49.3907C9.90121 50.7215 12.2888 51.2784 14.4186 51.3209C15.6453 51.3254 16.8712 51.2655 18.0903 51.1415V51.1415Z" fill="black"/>
<path id="Vector_10" d="M0 60.9057C0 60.9057 5.71382 60.7452 7.43621 59.622C9.15861 58.4988 16.2029 57.1586 16.6516 58.9613C17.1002 60.7641 25.2326 67.928 18.7865 67.9563C12.3404 67.9846 3.80061 67.036 2.08337 66.0686C0.366127 65.1011 0 60.9057 0 60.9057Z" fill="#656380"/>
<path id="Vector_11" opacity="0.2" d="M18.9 67.3286C12.4487 67.3758 3.91406 66.4083 2.19682 65.4409C0.886973 64.7141 0.366136 62.0949 0.190802 60.8868H0C0 60.8868 0.360982 65.1011 2.06275 66.078C3.76452 67.0549 12.3146 68.0034 18.7659 67.9657C20.6275 67.9657 21.267 67.3475 21.236 66.4461C20.9937 66.9794 20.2872 67.3191 18.9 67.3286Z" fill="black"/>
</g>
</svg>
