<svg width="245" height="255" viewBox="0 0 245 255" fill="none" xmlns="http://www.w3.org/2000/svg">
<g id="undraw_travelers_qlt1" clip-path="url(#clip0)">
<g id="baggage1">
<path id="Vector" d="M154.698 113.117H152.347V178.075H154.698V113.117Z" fill="#3F3D56"/>
<path id="Vector_2" d="M167.329 113.117H164.978V178.075H167.329V113.117Z" fill="#3F3D56"/>
<path id="Vector_3" d="M152.921 114.88L152.332 113.117C152.332 113.117 158.796 105.476 167.902 111.635L167.314 114.284H164.963C164.963 114.284 161.146 111.08 154.683 114.739L152.921 114.88Z" fill="#3F3D56"/>
</g>
<g id="baggage">
<path id="Vector_4" d="M174.085 245.967C177.004 245.967 179.371 243.599 179.371 240.678C179.371 237.757 177.004 235.389 174.085 235.389C171.165 235.389 168.798 237.757 168.798 240.678C168.798 243.599 171.165 245.967 174.085 245.967Z" fill="#3F3D56"/>
<path id="Vector_5" d="M146.472 245.967C149.392 245.967 151.758 243.599 151.758 240.678C151.758 237.757 149.392 235.389 146.472 235.389C143.552 235.389 141.186 237.757 141.186 240.678C141.186 243.599 143.552 245.967 146.472 245.967Z" fill="#3F3D56"/>
<path id="Vector_6" d="M151.466 173.96C151.466 173.96 143.532 174.253 142.359 183.364C141.185 192.475 142.359 234.8 142.359 234.8C142.359 234.8 151.466 241.56 162.631 240.678C173.796 239.797 191.714 236.563 191.714 236.563V186.934C191.714 179.527 185.539 173.486 178.142 173.912C177.968 173.912 177.772 173.935 177.613 173.953L151.466 173.96Z" fill="#3C354C"/>
<path id="Vector_7" d="M162.923 247.437C165.843 247.437 168.21 245.069 168.21 242.148C168.21 239.227 165.843 236.859 162.923 236.859C160.004 236.859 157.637 239.227 157.637 242.148C157.637 245.069 160.004 247.437 162.923 247.437Z" fill="#3F3D56"/>
<path id="Vector_8" d="M191.714 245.085C194.633 245.085 197 242.718 197 239.797C197 236.876 194.633 234.508 191.714 234.508C188.794 234.508 186.427 236.876 186.427 239.797C186.427 242.718 188.794 245.085 191.714 245.085Z" fill="#3F3D56"/>
</g>
<g id="main-people">
<path id="Vector_9" d="M77.5783 25.6737C85.691 25.6737 92.2677 20.5416 92.2677 14.2109C92.2677 7.88018 85.691 2.74811 77.5783 2.74811C69.4656 2.74811 62.8889 7.88018 62.8889 14.2109C62.8889 20.5416 69.4656 25.6737 77.5783 25.6737Z" fill="#3F3D56"/>
<path id="Vector_10" d="M106.957 74.1693C118.64 74.1693 128.11 64.6945 128.11 53.0066C128.11 41.3188 118.64 31.844 106.957 31.844C95.2746 31.844 85.8041 41.3188 85.8041 53.0066C85.8041 64.6945 95.2746 74.1693 106.957 74.1693Z" fill="#3F3D56"/>
<path id="Vector_11" d="M113.421 103.858H92.2677V130.898H113.421V103.858Z" fill="#FBBEBE"/>
<path id="Vector_12" d="M128.11 96.2134H121.646V109.147H128.11V96.2134Z" fill="#FBBEBE"/>
<path id="Vector_13" d="M95.059 235.389L92.4158 243.326C92.4158 243.326 91.2386 249.204 95.059 249.496C98.8794 249.789 105.054 248.615 105.054 248.615C105.054 248.615 105.935 245.971 105.054 243.619C104.173 241.267 101.53 234.8 101.53 234.8L95.059 235.389Z" fill="#3C354C"/>
<path id="Vector_14" d="M115.035 235.682C115.035 235.682 110.922 245.971 114.154 247.733C117.386 249.496 121.795 248.026 125.319 249.496C128.843 250.967 138.539 247.441 138.539 247.441C138.539 247.441 139.716 244.208 133.252 243.326C133.252 243.326 126.218 238.034 126.218 236.86C126.218 235.685 122.106 235.682 122.106 235.682H115.035Z" fill="#3C354C"/>
<path id="Vector_15" d="M114.154 118.409C114.154 118.409 90.0651 123.406 87.1294 121.935C84.1938 120.465 81.2544 141.935 81.2544 141.935C81.2544 141.935 80.0772 154.868 84.1901 172.209C88.303 189.549 84.1901 198.075 84.1901 198.075C84.1901 198.075 84.7787 214.534 89.1877 222.178C93.5968 229.823 93.5931 236.874 93.5931 236.874C93.5931 236.874 102.108 237.756 102.407 235.697C102.407 235.697 98.8795 227.467 99.4681 219.826C100.057 212.186 97.7059 197.486 97.7059 197.486C97.7059 197.486 101.526 178.968 100.938 171.931C100.349 164.894 102.996 149.887 104.462 152.531C105.928 155.176 109.752 168.109 109.752 170.757C109.752 173.405 111.233 191.034 112.103 192.212C112.973 193.39 112.688 196.916 112.395 198.679C112.103 200.442 112.103 213.667 113.569 220.723C115.035 227.778 113.865 235.711 114.157 236.889C114.45 238.067 122.972 237.182 123.264 235.123C123.264 235.123 124.442 222.486 125.03 220.723C125.619 218.96 125.896 196.59 125.896 196.59C125.896 196.59 126.481 179.249 127.07 177.486C127.659 175.723 128.551 137.805 124.719 133.413C120.888 129.02 122.368 117.835 122.368 117.835L114.154 118.409Z" fill="#3F3D56"/>
<path id="Vector_16" d="M94.3519 67.2064C93.2635 69.2582 92.1677 71.3286 91.4866 73.5545C90.8054 75.7804 90.5685 78.1914 91.2089 80.4284C91.6671 81.8257 92.3042 83.1578 93.1043 84.3914C93.7407 85.5703 94.5478 86.6486 95.4995 87.5913C97.7207 89.6209 100.949 90.0283 103.947 90.3468C104.462 90.4328 104.987 90.424 105.499 90.3209C105.908 90.2017 106.288 89.9944 106.609 89.7135C107.923 88.6024 108.519 86.9061 109.001 85.2691C110.145 81.3759 110.965 77.3944 111.451 73.3656C111.564 72.7286 111.564 72.0767 111.451 71.4397C111.192 70.3286 110.304 69.4656 109.66 68.5101C108.888 67.3683 108.447 66.0352 108.386 64.6583C108.36 63.988 108.386 63.2472 107.964 62.7361C107.683 62.4579 107.343 62.2476 106.968 62.1213C105.217 61.3806 103.47 60.6398 101.715 59.9287C100.656 59.4917 98.7535 58.3288 97.6429 59.188C96.6915 59.9287 97.1506 61.6472 96.7434 62.6769C96.1177 64.2398 95.1367 65.725 94.3519 67.2064Z" fill="#FBBEBE"/>
<path id="Vector_17" opacity="0.1" d="M94.3519 67.2064C93.2635 69.2582 92.1677 71.3286 91.4866 73.5545C90.8054 75.7804 90.5685 78.1914 91.2089 80.4284C91.6671 81.8257 92.3042 83.1578 93.1043 84.3914C93.7407 85.5703 94.5478 86.6486 95.4995 87.5913C97.7207 89.6209 100.949 90.0283 103.947 90.3468C104.462 90.4328 104.987 90.424 105.499 90.3209C105.908 90.2017 106.288 89.9944 106.609 89.7135C107.923 88.6024 108.519 86.9061 109.001 85.2691C110.145 81.3759 110.965 77.3944 111.451 73.3656C111.564 72.7286 111.564 72.0767 111.451 71.4397C111.192 70.3286 110.304 69.4656 109.66 68.5101C108.888 67.3683 108.447 66.0352 108.386 64.6583C108.36 63.988 108.386 63.2472 107.964 62.7361C107.683 62.4579 107.343 62.2476 106.968 62.1213C105.217 61.3806 103.47 60.6398 101.715 59.9287C100.656 59.4917 98.7535 58.3288 97.6429 59.188C96.6915 59.9287 97.1506 61.6472 96.7434 62.6769C96.1177 64.2398 95.1367 65.725 94.3519 67.2064Z" fill="black"/>
<path id="Vector_18" d="M105.928 67.8546C111.608 67.8546 116.212 63.2482 116.212 57.5658C116.212 51.8835 111.608 47.2771 105.928 47.2771C100.248 47.2771 95.6439 51.8835 95.6439 57.5658C95.6439 63.2482 100.248 67.8546 105.928 67.8546Z" fill="#FBBEBE"/>
<path id="Vector_19" d="M109.537 83.5136C107.59 84.2136 105.58 84.8173 103.511 84.8913C101.96 84.9069 100.414 84.7415 98.9017 84.3987C95.7777 83.7771 92.7097 82.9014 89.7282 81.7803C89.0915 83.0358 88.9212 84.4691 88.8657 85.8765C88.7065 90.132 89.5542 94.3542 89.88 98.6022C90.2909 104.002 89.88 109.521 91.2682 114.75C91.3484 113.861 91.6941 113.017 92.2604 112.328C92.7323 111.819 93.2963 111.405 93.9225 111.106C96.7243 109.657 99.9507 109.255 103.022 109.972C104.803 110.395 106.694 111.184 108.382 110.476C109.389 110.05 110.119 109.154 110.678 108.213C111.627 106.516 112.304 104.68 112.684 102.773C113.795 97.8689 113.943 92.7986 114.076 87.7691C114.113 86.4246 114.691 82.4284 113.576 81.4432C112.795 80.7581 112.566 81.7358 112.003 82.2469C111.271 82.8251 110.434 83.2553 109.537 83.5136V83.5136Z" fill="#F2F2F2"/>
<path id="Vector_20" d="M95.0627 65.851C94.3778 65.3139 93.3635 65.4806 92.6083 65.9361C91.8531 66.3917 91.2422 67.0213 90.4759 67.4361C88.351 68.588 85.4968 67.7435 83.4792 69.0842C81.5838 70.3472 81.2581 72.9471 81.11 75.2212C80.7398 80.9989 80.4214 86.8173 79.0332 92.4395C78.663 93.9209 78.2187 95.4394 78.3594 96.9653C78.4702 97.8371 78.6763 98.6941 78.9739 99.5208L80.7953 105.213C81.6393 107.858 82.4945 110.543 82.5833 113.317C82.6722 116.091 82.0206 118.728 81.3728 121.376C80.0924 126.593 79.2589 131.91 78.8814 137.268C78.7666 139.042 78.7185 140.894 79.4367 142.52C80.1771 144.22 81.6801 145.483 83.2645 146.442C84.849 147.402 86.5704 148.142 88.1215 149.161C91.2348 151.209 93.7337 154.435 97.3764 155.276C99.046 155.646 100.793 155.498 102.474 155.172C102.474 155.172 101.523 111.943 98.8757 105.769C96.2288 99.5949 93.8817 72.8509 93.8817 71.9694C93.8817 71.0879 95.0627 65.851 95.0627 65.851Z" fill="#7E7CFF"/>
<path id="Vector_21" d="M109.36 67.2657C109.36 67.2657 123.261 67.2657 125.319 74.6137C127.377 81.9618 119.444 94.0134 119.444 94.0134C119.444 94.0134 122.676 117.821 124.142 120.172C125.608 122.524 125.026 127.209 125.026 127.209C126.091 130.434 126.292 133.882 125.611 137.209C124.438 142.498 120.029 151.905 120.029 151.905C120.029 151.905 114.154 151.905 112.684 155.431C111.214 158.957 110.922 140.146 110.922 140.146C110.922 140.146 105.636 105.758 105.928 103.702C106.22 101.647 107.69 84.5951 108.279 79.8914C108.867 75.1878 110.148 69.0286 109.36 67.2657Z" fill="#7E7CFF"/>
<path id="Vector_22" d="M120.029 71.9694C120.029 71.9694 126.788 74.0249 126.788 76.3767C126.788 78.7285 128.858 91.3654 128.858 95.4801C128.858 99.5949 127.977 100.184 128.858 101.654C129.739 103.124 119.459 102.536 119.459 102.536L117.589 85.784L120.029 71.9694Z" fill="#6461FF"/>
<path id="Vector_23" d="M80.0734 93.132C80.0734 93.132 93.2968 94.0135 95.6476 92.2469C97.9983 90.4802 107.986 94.5987 108.867 96.9505C109.748 99.3023 94.7628 99.5949 92.4158 99.5949C90.0687 99.5949 78.8999 103.124 78.8999 103.124L80.0734 93.132Z" fill="#A0616A"/>
<path id="Vector_24" d="M52.8529 230.045C52.8529 230.045 46.6892 245.6 49.8913 247.452C53.0935 249.304 86.8591 247.985 86.8591 247.985C86.8591 247.985 92.4824 244.504 86.0558 242.089C86.0558 242.089 80.6954 241.822 77.2155 239.678C73.7357 237.534 69.7116 233.515 69.7116 233.515C69.7116 233.515 69.4451 227.619 67.3017 228.96C66.6605 229.382 66.1149 229.934 65.6998 230.58C65.2848 231.227 65.0095 231.952 64.8917 232.711L52.8529 230.045Z" fill="#3F3D56"/>
<path id="Vector_25" opacity="0.1" d="M52.8529 230.045C52.8529 230.045 46.6892 245.6 49.8913 247.452C53.0935 249.304 86.8591 247.985 86.8591 247.985C86.8591 247.985 92.4824 244.504 86.0558 242.089C86.0558 242.089 80.6954 241.822 77.2155 239.678C73.7357 237.534 69.7116 233.515 69.7116 233.515C69.7116 233.515 69.4451 227.619 67.3017 228.96C66.6605 229.382 66.1149 229.934 65.6998 230.58C65.2848 231.227 65.0095 231.952 64.8917 232.711L52.8529 230.045Z" fill="black"/>
<path id="Vector_26" d="M43.3426 234.8C43.3426 234.8 36.5866 251.837 40.1108 253.904C43.6351 255.97 80.6547 254.493 80.6547 254.493C80.6547 254.493 86.8259 250.674 79.7737 248.026C79.7737 248.026 73.8986 247.733 70.0782 245.382C66.2578 243.03 61.8525 238.611 61.8525 238.611C61.8525 238.611 61.56 232.145 59.2093 233.615C58.5058 234.078 57.9071 234.684 57.4519 235.392C56.9966 236.101 56.6949 236.897 56.5661 237.73L43.3426 234.8Z" fill="#3F3D56"/>
<path id="Vector_27" d="M78.0189 126.639L73.906 163.675C73.906 163.675 72.4252 181.312 68.031 185.131C68.031 185.131 68.031 190.716 66.5502 192.479L64.4919 215.701C64.4919 215.701 67.4313 224.219 67.1388 225.7C66.8464 227.182 68.3123 231.871 68.0199 232.46C67.7274 233.049 53.9154 232.46 53.9154 232.46L56.8548 185.138L65.9616 119.302L78.0189 126.639Z" fill="#3C354C"/>
<path id="Vector_28" opacity="0.1" d="M78.0189 126.639L73.906 163.675C73.906 163.675 72.4252 181.312 68.031 185.131C68.031 185.131 68.031 190.716 66.5502 192.479L64.4919 215.701C64.4919 215.701 67.4313 224.219 67.1388 225.7C66.8464 227.182 68.3123 231.871 68.0199 232.46C67.7274 233.049 53.9154 232.46 53.9154 232.46L56.8548 185.138L65.9616 119.302L78.0189 126.639Z" fill="black"/>
<path id="Vector_29" d="M70.6742 125.461C70.6742 125.461 67.4424 155.735 65.9727 162.201C65.0487 166.46 64.4595 170.784 64.2106 175.134C64.2106 175.134 63.9181 184.542 61.2712 187.186C60.4988 187.952 59.892 188.868 59.4882 189.877C59.0845 190.887 58.8925 191.969 58.9242 193.056C58.9242 193.056 56.2773 222.741 57.7469 226.271C59.2166 229.8 60.6863 232.737 59.2277 235.085C57.7692 237.434 41.599 237.437 41.599 235.674C41.599 233.911 41.599 232.441 40.7179 231.56C39.8368 230.678 40.7179 225.093 40.7179 225.093C40.7179 225.093 37.1936 198.934 40.4255 191.293C43.6573 183.653 45.127 162.775 45.127 162.775C45.127 162.775 42.7762 138.968 39.8368 135.146C36.8975 131.324 40.4255 117.806 40.4255 117.806L70.6742 125.461Z" fill="#3C354C"/>
<path id="Vector_30" d="M62.4041 31.4477C62.7446 32.2255 63.5628 32.6588 64.3069 33.0699C68.6197 35.4476 72.2291 38.8957 75.783 42.3031C74.8959 39.2925 75.0857 36.0667 76.3197 33.181C76.7418 32.1995 77.3007 31.1403 76.9972 30.1144C76.7714 29.3737 76.1309 28.8107 75.5164 28.3292C74.0653 27.2065 72.5485 26.1713 70.9741 25.2293C69.8635 24.57 67.6127 22.8182 66.3504 23.0071C66.2837 24.7145 66.2504 26.2404 65.5026 27.8218C65.3175 28.2144 62.5336 31.744 62.4041 31.4477Z" fill="#A0616A"/>
<path id="Vector_31" d="M77.4302 35.2254C84.0832 35.2254 89.4764 29.8297 89.4764 23.1737C89.4764 16.5178 84.0832 11.1221 77.4302 11.1221C70.7773 11.1221 65.384 16.5178 65.384 23.1737C65.384 29.8297 70.7773 35.2254 77.4302 35.2254Z" fill="#A0616A"/>
<path id="Vector_32" d="M78.0189 51.6882C78.0189 51.6882 80.0735 41.3994 74.1985 37.8735C68.3234 34.3477 61.5674 30.2329 61.5674 30.2329C61.5674 30.2329 59.5091 29.9366 58.628 34.3477C58.628 34.3477 41.884 37.581 40.1182 53.4511C38.3524 69.3212 41.2954 92.5431 41.2954 92.5431C41.2954 92.5431 38.6522 112.824 35.4204 123.698C35.4204 123.698 32.7735 126.05 44.5272 122.524C56.281 118.998 76.8417 132.524 76.8417 132.524C76.8417 132.524 78.9 130.465 78.9 128.994C78.9 127.524 81.2507 118.995 81.2507 118.995C81.2507 118.995 83.3053 82.8433 84.1864 78.7285C85.0674 74.6138 80.6621 52.277 78.0189 51.6882Z" fill="#6461FF"/>
<path id="Vector_33" d="M59.8052 71.9693C59.8052 71.9693 75.9606 62.562 72.7288 50.5104C69.497 38.4587 62.4484 34.6402 62.4484 34.6402C62.4484 34.6402 50.9909 30.8181 41.2954 43.1586L41.884 48.7437C41.884 48.7437 52.4605 27.2885 63.9181 40.8068C75.3757 54.3251 59.8052 71.9693 59.8052 71.9693Z" fill="#13F1FC"/>
<path id="Vector_34" d="M42.4689 43.7512V91.9467L39.4667 108.387L38.0636 116.05H27.7944L13.4011 110.758V75.2026C13.4011 75.2026 25.4436 51.3918 29.264 46.9844C33.0845 42.5771 42.4689 43.7512 42.4689 43.7512Z" fill="#13F1FC"/>
<path id="Vector_35" opacity="0.1" d="M39.463 108.391L38.0636 116.054H27.7796L13.3864 110.765L39.463 108.391Z" fill="black"/>
<path id="Vector_36" d="M38.9447 98.1245L64.2106 67.262L41.8804 99.3023L39.5296 99.8875L38.9447 98.1245Z" fill="#13F1FC"/>
<path id="Vector_37" d="M74.5909 24.4182C75.2758 23.9552 76.1346 23.87 76.9565 23.7886C77.7783 23.7071 78.6372 23.596 79.2924 23.0923C80.4289 22.2182 80.514 20.5294 81.347 19.3627C82.5501 17.6701 84.9527 17.4664 87.0295 17.5479C88.2993 17.5998 89.6653 17.6775 90.7315 16.9924C91.7976 16.3072 92.3233 14.9554 92.6935 13.7072C93.134 12.2258 93.4154 10.4184 92.3233 9.32211C91.5829 8.55916 90.3835 8.40731 89.5468 7.73695C88.7102 7.06659 88.3215 5.91475 87.8513 4.91107C87.3146 3.68496 86.4657 2.62118 85.3895 1.82592C83.8125 0.714829 81.7986 0.485203 79.8773 0.503722C77.956 0.52224 76.0273 0.777791 74.1208 0.540757C72.5585 0.348168 71 -0.170342 69.4452 0.0592847C67.4609 0.351873 65.821 1.85185 64.8399 3.60368C63.8589 5.3555 63.4443 7.35547 63.0371 9.31841L61.9265 14.6628C61.5859 16.322 61.2416 18.022 61.5045 19.6923C62.0524 23.1589 65.1176 25.9145 65.3286 29.4144C65.5301 28.4475 65.9685 27.5457 66.6042 26.7901C67.24 26.0344 68.0534 25.4485 68.9713 25.0848C69.201 24.9726 69.4615 24.94 69.7117 24.9923C70.0153 25.0923 70.193 25.396 70.3855 25.6515C70.8889 26.3219 72.4697 27.3367 73.347 26.8626C74.1837 26.4367 73.584 25.1034 74.5909 24.4182Z" fill="#3F3D56"/>
<path id="Vector_38" d="M44.2347 79.3173C44.2347 79.3173 42.1764 92.2468 50.6947 91.0727C50.6947 91.0727 55.1037 90.4838 55.6923 91.0727C56.2809 91.6616 78.0188 87.8394 80.9582 84.6061C80.9582 84.6061 84.4825 83.4321 86.2446 85.195C88.0067 86.9579 105.635 88.7209 100.353 83.4284C95.0701 78.1359 86.8406 76.9618 86.8406 76.9618L75.6755 77.547C75.6755 77.547 69.8005 79.3136 66.2762 77.547C62.752 75.7803 52.753 76.3914 52.753 76.3914L44.2347 79.3173Z" fill="#A0616A"/>
<path id="Vector_39" d="M56.2772 38.4624C56.2772 38.4624 43.0575 39.9439 43.0575 59.0362V83.4284C43.0575 83.4284 50.4022 80.1951 51.8719 80.4877C53.3416 80.7803 59.2166 76.6655 59.2166 76.6655C59.2166 76.6655 65.9727 60.7991 65.384 56.3918C64.7954 51.9844 65.0916 39.0476 56.2772 38.4624Z" fill="#3F3D56"/>
<path id="Vector_40" d="M116.797 85.7802L103.577 95.1875L111.803 96.069L123.261 86.3691L116.797 85.7802Z" fill="#3F3D56"/>
<path id="Vector_41" d="M127.081 99.8912C127.081 99.8912 130.313 109.891 125.907 112.824C121.502 115.758 114.154 102.536 114.154 102.536C114.154 102.536 106.22 93.132 111.511 91.0728C116.801 89.0136 118.959 97.9801 118.959 97.9801L125.896 104.006L127.081 99.8912Z" fill="#FBBEBE"/>
<path id="Vector_42" d="M106.957 57.4177C113.446 57.4177 118.707 54.0615 118.707 49.9215C118.707 45.7814 113.446 42.4253 106.957 42.4253C100.468 42.4253 95.207 45.7814 95.207 49.9215C95.207 54.0615 100.468 57.4177 106.957 57.4177Z" fill="#3F3D56"/>
<path id="Vector_43" d="M109.012 40.3698C113.716 40.3698 117.53 36.5543 117.53 31.8477C117.53 27.1411 113.716 23.3256 109.012 23.3256C104.307 23.3256 100.494 27.1411 100.494 31.8477C100.494 36.5543 104.307 40.3698 109.012 40.3698Z" fill="#3F3D56"/>
<path id="Vector_44" d="M77.4302 21.559C83.6763 21.559 88.7397 18.9274 88.7397 15.6813C88.7397 12.4351 83.6763 9.80359 77.4302 9.80359C71.1842 9.80359 66.1207 12.4351 66.1207 15.6813C66.1207 18.9274 71.1842 21.559 77.4302 21.559Z" fill="#3F3D56"/>
<path id="Vector_45" d="M66.8537 26.5551C69.0434 26.5551 70.8185 22.146 70.8185 16.7071C70.8185 11.2682 69.0434 6.85913 66.8537 6.85913C64.664 6.85913 62.8889 11.2682 62.8889 16.7071C62.8889 22.146 64.664 26.5551 66.8537 26.5551Z" fill="#3F3D56"/>
</g>
<g id="comment">
<g id="Group 12">
<g id="Rectangle" filter="url(#filter0_d)">
<path d="M137 28C137 26.8954 137.895 26 139 26H236C237.105 26 238 26.8954 238 28V61C238 62.1046 237.105 63 236 63H139C137.895 63 137 62.1046 137 61V28Z" fill="white"/>
</g>
<g id="Group 3.1">
<ellipse id="Ellipse" cx="154.638" cy="51.1188" rx="5.6383" ry="1.54777" fill="#F2F2F2"/>
<path id="Subtract" fill-rule="evenodd" clip-rule="evenodd" d="M154.421 48.2445C154.421 48.2445 158.542 44.7067 158.542 41.8323C158.542 39.5121 156.697 37.6312 154.421 37.6312C152.146 37.6312 150.301 39.5121 150.301 41.8323C150.301 44.9278 154.421 48.2445 154.421 48.2445ZM154.421 43.3801C155.499 43.3801 156.373 42.4891 156.373 41.3901C156.373 40.2911 155.499 39.4001 154.421 39.4001C153.344 39.4001 152.47 40.2911 152.47 41.3901C152.47 42.4891 153.344 43.3801 154.421 43.3801Z" fill="#13F1FC"/>
</g>
<path id="Vector 2" d="M145 63L131 78L162 63H145Z" fill="white"/>
<text id="CityApp" fill="#A5ADB1" xml:space="preserve" style="white-space: pre" font-family="Cabin" font-size="13" font-weight="600" letter-spacing="0.1em"><tspan x="167" y="47.545">CityApp</tspan></text>
</g>
</g>
</g>
<defs>
<filter id="filter0_d" x="95" y="-10" width="205" height="141" filterUnits="userSpaceOnUse" color-interpolation-filters="sRGB">
<feFlood flood-opacity="0" result="BackgroundImageFix"/>
<feColorMatrix in="SourceAlpha" type="matrix" values="0 0 0 0 0 0 0 0 0 0 0 0 0 0 0 0 0 0 127 0"/>
<feOffset dx="10" dy="16"/>
<feGaussianBlur stdDeviation="26"/>
<feColorMatrix type="matrix" values="0 0 0 0 0.739879 0 0 0 0 0.826463 0 0 0 0 0.873362 0 0 0 0.4 0"/>
<feBlend mode="normal" in2="BackgroundImageFix" result="effect1_dropShadow"/>
<feBlend mode="normal" in="SourceGraphic" in2="effect1_dropShadow" result="shape"/>
</filter>
<clipPath id="clip0">
<rect width="245" height="255" fill="white"/>
</clipPath>
</defs>
</svg>
