<svg width="123" height="143" viewBox="0 0 123 143" fill="none" xmlns="http://www.w3.org/2000/svg">
<path opacity="0.1" d="M0.574432 112.171L64.2343 1.89993C64.4127 1.59151 64.6691 1.33548 64.9778 1.15747C65.2864 0.979453 65.6364 0.885742 65.9927 0.885742C66.349 0.885742 66.6991 0.979453 67.0077 1.15747C67.3163 1.33548 67.5727 1.59151 67.7512 1.89993L122.739 97.1445C115.869 105.802 108.161 113.761 99.7284 120.905H90.7674C90.2286 120.905 89.7119 121.119 89.3309 121.5C88.9499 121.881 88.7359 122.398 88.7359 122.937C88.7359 123.476 88.9499 123.992 89.3309 124.373C89.7119 124.754 90.2286 124.968 90.7674 124.968H94.5482C89.9175 128.451 84.9882 131.518 79.8178 134.133V129.437C79.8178 128.898 79.6038 128.381 79.2228 128C78.8418 127.619 78.3251 127.405 77.7863 127.405H54.2299C53.6922 127.407 53.177 127.622 52.7973 128.003C52.4177 128.383 52.2045 128.899 52.2045 129.437V140.805C52.2055 141.1 52.1405 141.391 52.0142 141.658C51.8516 142.009 51.5918 142.307 51.2656 142.516C50.9394 142.725 50.5602 142.836 50.1729 142.836H25.3952C25.0807 142.838 24.7705 142.764 24.4899 142.622C24.2093 142.48 23.9663 142.274 23.7809 142.02C23.5082 141.67 23.3631 141.236 23.3697 140.792V117.253C23.3697 116.714 23.1557 116.197 22.7747 115.816C22.3937 115.435 21.877 115.221 21.3382 115.221H2.34821C1.98993 115.224 1.63727 115.132 1.32598 114.955C1.0147 114.777 0.755875 114.521 0.575768 114.211C0.39566 113.901 0.300682 113.549 0.300446 113.191C0.300209 112.833 0.394737 112.481 0.574432 112.171ZM42.6481 121.5C42.4613 121.308 42.2381 121.155 41.9916 121.05C41.745 120.944 41.48 120.889 41.2119 120.887H32.2755C31.7367 120.887 31.2199 121.101 30.8389 121.482C30.458 121.863 30.2439 122.379 30.2439 122.918C30.2439 123.457 30.458 123.974 30.8389 124.355C31.2199 124.736 31.7367 124.95 32.2755 124.95H41.2181C41.6198 124.95 42.0124 124.831 42.3464 124.607C42.6804 124.384 42.9407 124.067 43.0944 123.696C43.2481 123.325 43.2883 122.916 43.21 122.522C43.1316 122.128 42.9383 121.766 42.6543 121.482L42.6481 121.5ZM82.635 80.6945C83.1738 80.6945 83.6905 80.4804 84.0715 80.0994C84.4525 79.7184 84.6666 79.2016 84.6666 78.6628V63.2316C84.6666 62.6928 84.4525 62.176 84.0715 61.795C83.6905 61.414 83.1738 61.1999 82.635 61.1999H49.3382C48.8004 61.2016 48.2853 61.4163 47.9056 61.7972C47.5259 62.178 47.3128 62.6939 47.3128 63.2316V78.6628C47.3128 79.2005 47.5259 79.7164 47.9056 80.0972C48.2853 80.4781 48.8004 80.6928 49.3382 80.6945H82.635Z" fill="#70DDFF"/>
</svg>
