<svg width="133" height="143" viewBox="0 0 133 143" fill="none" xmlns="http://www.w3.org/2000/svg">
<path opacity="0.1" d="M1.09479 112.201L64.7547 1.93007C64.9319 1.62009 65.1878 1.36242 65.4966 1.18323C65.8054 1.00404 66.1561 0.909668 66.5131 0.909668C66.8702 0.909668 67.2208 1.00404 67.5297 1.18323C67.8385 1.36242 68.0944 1.62009 68.2716 1.93007L131.931 112.201C132.117 112.509 132.217 112.862 132.221 113.222C132.225 113.583 132.133 113.937 131.954 114.25C131.775 114.563 131.516 114.822 131.203 115.001C130.891 115.18 130.536 115.273 130.176 115.27H111.186C110.648 115.271 110.132 115.486 109.751 115.867C109.371 116.247 109.156 116.763 109.155 117.301V140.835C109.155 141.373 108.941 141.888 108.562 142.269C108.182 142.65 107.667 142.865 107.129 142.867H82.3514C81.8126 142.867 81.2958 142.652 80.9149 142.271C80.5339 141.89 80.3198 141.374 80.3198 140.835V129.461C80.3198 128.924 80.1064 128.409 79.7266 128.029C79.3467 127.649 78.8316 127.435 78.2944 127.435H54.738C54.2003 127.435 53.6845 127.649 53.3037 128.028C52.9228 128.408 52.7081 128.923 52.7065 129.461V140.835C52.7065 141.374 52.4924 141.89 52.1114 142.271C51.7304 142.652 51.2137 142.867 50.6749 142.867H25.9033C25.3645 142.867 24.8477 142.652 24.4667 142.271C24.0857 141.89 23.8717 141.374 23.8717 140.835V117.277C23.8717 116.738 23.6577 116.221 23.2767 115.84C22.8957 115.459 22.3789 115.245 21.8401 115.245H2.85016C2.49434 115.244 2.14505 115.15 1.8372 114.971C1.52936 114.793 1.27373 114.537 1.09599 114.228C0.918243 113.92 0.824615 113.57 0.824402 113.215C0.824188 112.859 0.917419 112.509 1.09479 112.201ZM89.87 124.403C90.0569 124.595 90.2801 124.749 90.5266 124.854C90.7732 124.959 91.0382 125.015 91.3063 125.017H100.224C100.763 125.017 101.28 124.803 101.661 124.422C102.042 124.041 102.256 123.524 102.256 122.985C102.256 122.446 102.042 121.93 101.661 121.549C101.28 121.168 100.763 120.954 100.224 120.954H91.2878C90.8861 120.954 90.4935 121.073 90.1595 121.296C89.8255 121.519 89.5652 121.837 89.4115 122.208C89.2578 122.579 89.2176 122.987 89.2959 123.381C89.3742 123.775 89.5676 124.137 89.8516 124.422L89.87 124.403ZM31.3903 124.403C31.5772 124.595 31.8004 124.749 32.0469 124.854C32.2934 124.959 32.5584 125.015 32.8265 125.017H41.7384C42.2773 125.017 42.794 124.803 43.175 124.422C43.556 124.041 43.77 123.524 43.77 122.985C43.77 122.446 43.556 121.93 43.175 121.549C42.794 121.168 42.2773 120.954 41.7384 120.954H32.7897C32.388 120.954 31.9954 121.073 31.6614 121.296C31.3274 121.519 31.0671 121.837 30.9134 122.208C30.7597 122.579 30.7195 122.987 30.7978 123.381C30.8761 123.775 31.0695 124.137 31.3535 124.422L31.3903 124.403Z" fill="#70DDFF"/>
</svg>
