<svg width="52" height="35" viewBox="0 0 52 35" fill="none" xmlns="http://www.w3.org/2000/svg">
<path opacity="0.1" d="M37.543 32.4932C35.1169 32.034 32.6091 32.3053 30.3374 33.2728C28.9772 33.8818 27.5037 34.1966 26.0134 34.1966C24.5231 34.1966 23.0496 33.8818 21.6894 33.2728C20.0798 32.5672 18.3361 32.2198 16.579 32.2548C14.8219 32.2898 13.0934 32.7062 11.5131 33.4753C10.6104 33.9513 9.60598 34.2019 8.58547 34.2058C4.46096 34.2058 1.02386 30.0503 0.31189 24.569C1.13569 23.9677 1.83587 23.2133 2.37414 22.347C4.7801 18.437 8.5425 15.9204 12.7591 15.9204C16.9757 15.9204 20.6644 18.3756 23.0826 22.2488C23.8054 23.4148 24.8166 24.3749 26.0186 25.0361C27.2206 25.6973 28.5728 26.0375 29.9445 26.0237H30.0489C33.3141 26.0237 36.162 28.6569 37.543 32.4932Z" fill="#70DDFF"/>
<path opacity="0.1" d="M50.1129 15.3066L43.4474 19.5173L47.4983 12.1516C46.3509 11.2384 44.9322 10.7331 43.4659 10.7153H43.3554C42.8929 10.7206 42.4308 10.6857 41.9744 10.611L39.7158 12.0411L40.6855 10.2856C39.0844 9.72404 37.6997 8.67423 36.7267 7.28411L32.682 9.84982L35.2414 5.20331C32.8722 2.36138 29.6868 0.618164 26.176 0.618164C21.9717 0.618164 18.1971 3.12249 15.8034 7.02017C15.0876 8.18482 14.0762 9.13913 12.872 9.78602C11.6678 10.4329 10.3138 10.7493 8.94763 10.703H8.72666C4.08045 10.703 0.318069 15.9633 0.318069 22.4574C0.318069 28.9515 4.08045 34.218 8.72666 34.218C9.74708 34.2134 10.7514 33.9629 11.6543 33.4876C13.2346 32.7178 14.9635 32.3015 16.7208 32.2676C18.4782 32.2337 20.2218 32.5829 21.8306 33.2911C23.1919 33.896 24.6649 34.2086 26.1546 34.2086C27.6442 34.2086 29.1173 33.896 30.4786 33.2911C32.076 32.5979 33.804 32.2566 35.5451 32.2905C37.2862 32.3244 38.9996 32.7326 40.5689 33.4876C41.4641 33.9522 42.4573 34.1963 43.4659 34.1996C48.1059 34.1996 51.8745 28.9392 51.8745 22.439C51.8898 19.952 51.2844 17.5005 50.1129 15.3066Z" fill="#70DDFF"/>
</svg>
