<svg width="75" height="49" viewBox="0 0 75 49" fill="none" xmlns="http://www.w3.org/2000/svg">
<path opacity="0.1" d="M21.2926 45.7753C24.7583 45.1154 28.342 45.5044 31.5855 46.8925C33.5401 47.7637 35.657 48.2114 37.797 48.2061C39.937 48.2008 42.0517 47.7427 44.002 46.8618C46.3008 45.8538 48.7911 45.3576 51.3007 45.4074C53.8102 45.4572 56.279 46.0519 58.536 47.1503C59.8268 47.8303 61.2629 48.1883 62.7219 48.1937C68.614 48.1937 73.518 42.2582 74.5369 34.4261C73.3595 33.5681 72.3591 32.4905 71.5908 31.2527C68.1353 25.6854 62.7832 22.1069 56.7745 22.1069C50.7657 22.1069 45.4811 25.6425 42.0441 31.1483C41.0135 32.8118 39.5707 34.1809 37.8556 35.123C36.1405 36.065 34.2111 36.548 32.2545 36.5253H32.101C27.3627 36.5253 23.2996 40.2879 21.2926 45.7753Z" fill="#70DDFF"/>
<path opacity="0.1" d="M3.37056 21.1922L12.8962 27.2321L7.11454 16.7176C8.75312 15.4095 10.7814 14.6859 12.8778 14.6613H13.0313C13.6931 14.671 14.3545 14.6217 15.0076 14.514L18.2237 16.5641L16.8366 14.0475C19.1254 13.2477 21.1021 11.7435 22.4833 9.75084L28.2649 13.4337L24.6253 6.78001C28.0072 2.72274 32.5613 0.236816 37.5696 0.236816C43.5784 0.236816 48.9305 3.80918 52.386 9.37642C53.4094 11.047 54.8576 12.4163 56.5827 13.3447C58.3078 14.2731 60.2483 14.7274 62.2063 14.6613H62.5315C69.1664 14.6613 74.543 22.1805 74.543 31.4612C74.543 40.742 69.1664 48.2612 62.5315 48.2612C61.0716 48.2573 59.6347 47.897 58.3457 47.2116C56.0882 46.1141 53.6193 45.5205 51.1097 45.4717C48.6002 45.423 46.11 45.9203 43.8117 46.9292C41.8667 47.7972 39.7608 48.2458 37.631 48.2458C35.5012 48.2458 33.3953 47.7972 31.4504 46.9292C29.1694 45.9374 26.7015 45.4486 24.2147 45.4963C21.7278 45.544 19.2805 46.1269 17.0392 47.2054C15.7623 47.8737 14.3435 48.2253 12.9024 48.2305C6.26754 48.2305 0.890953 40.7052 0.890953 31.4306C0.848808 27.8642 1.70132 24.3441 3.37056 21.1922Z" fill="#70DDFF"/>
</svg>
