<svg width="52" height="35" viewBox="0 0 52 35" fill="none" xmlns="http://www.w3.org/2000/svg">
<path opacity="0.1" d="M14.3461 32.7768C16.7722 32.3172 19.28 32.5885 21.5517 33.5563C22.913 34.1651 24.3875 34.4798 25.8788 34.4798C27.37 34.4798 28.8445 34.1651 30.2058 33.5563C31.8154 32.8507 33.5591 32.5034 35.3162 32.5383C37.0733 32.5733 38.8018 32.9898 40.3821 33.7589C41.2845 34.2356 42.2891 34.4862 43.3097 34.4893C47.4342 34.4893 50.8652 30.3338 51.5771 24.8525C50.7548 24.2497 50.0549 23.4955 49.5149 22.6305C47.0967 18.7328 43.3772 16.2285 39.1484 16.2285C34.9195 16.2285 31.237 18.6837 28.8187 22.5569C28.0982 23.7214 27.0889 24.6797 25.8887 25.339C24.6885 25.9983 23.3383 26.3361 21.9691 26.3195H21.8586C18.6056 26.3072 15.7639 28.9405 14.3461 32.7768Z" fill="#70DDFF"/>
<path opacity="0.1" d="M1.81298 15.5903L8.47847 19.8194L4.43373 12.4537C5.58069 11.5397 6.99969 11.0342 8.46618 11.0174H8.57055C9.03304 11.023 9.49513 10.9881 9.95152 10.913L12.2163 12.3432L11.2466 10.5877C12.8458 10.0257 14.2284 8.97587 15.1992 7.58619L19.2562 10.1396L16.7029 5.4931C19.066 2.65117 22.2268 0.907959 25.7621 0.907959C29.9664 0.907959 33.7411 3.41231 36.1348 7.30999C36.851 8.4742 37.8625 9.42814 39.0666 10.075C40.2707 10.7218 41.6245 11.0385 42.9905 10.9928H43.1931C47.8332 10.9928 51.6017 16.2532 51.6017 22.7473C51.6017 29.2413 47.8332 34.5078 43.1931 34.5078C42.1725 34.5047 41.1679 34.2541 40.2654 33.7774C38.6852 33.0076 36.9563 32.5913 35.1989 32.5574C33.4416 32.5235 31.6979 32.8728 30.0892 33.581C28.7268 34.186 27.2527 34.4986 25.7621 34.4986C24.2715 34.4986 22.7974 34.186 21.4351 33.581C19.8386 32.8878 18.1116 32.5466 16.3716 32.5805C14.6315 32.6144 12.9191 33.0226 11.3509 33.7774C10.4554 34.2413 9.46242 34.4854 8.45393 34.4894C3.80772 34.4894 0.04533 29.2291 0.04533 22.7288C0.0308342 20.2392 0.638447 17.7854 1.81298 15.5903Z" fill="#70DDFF"/>
</svg>
