<svg width="162" height="355" viewBox="0 0 162 355" fill="none" xmlns="http://www.w3.org/2000/svg">
<path d="M108.061 50.9708C95.9425 50.9708 86.1186 41.1463 86.1186 29.0271C86.1186 16.908 95.9425 7.0835 108.061 7.0835C120.179 7.0835 130.003 16.908 130.003 29.0271C130.003 41.1463 120.179 50.9708 108.061 50.9708Z" fill="#3F3D56"/>
<path d="M120.791 199.727C118.526 215.619 121.288 231.823 125.59 247.285C126.394 250.164 127.26 253.067 128.763 255.651C130.267 258.235 132.36 260.457 134.128 262.888C137.81 267.958 139.971 273.936 141.99 279.854C147.557 296.227 152.233 312.889 155.996 329.768C156.223 330.46 156.223 331.207 155.996 331.898C155.462 333.126 153.842 333.286 152.51 333.279L135.288 333.187C134.674 332.009 135.809 330.732 136.515 329.603C138.97 325.785 136.613 320.825 134.447 316.829C129.181 307.124 125.105 296.82 122.306 286.139C121.128 281.64 120.171 277.042 118.256 272.801C115.942 267.657 112.314 263.232 109.368 258.419C105.943 252.828 103.445 246.757 100.966 240.662C97.5041 232.204 94.0118 223.641 92.6493 214.606C91.3665 206.123 91.9986 197.481 92.8334 188.942C92.7946 188.688 92.8167 188.429 92.898 188.185C92.9793 187.941 93.1173 187.721 93.3008 187.541C93.4842 187.361 93.7078 187.227 93.9531 187.151C94.1984 187.074 94.4584 187.057 94.7115 187.101L117.82 185.91C122.583 185.665 123.712 184.621 122.988 189.298C122.484 192.791 121.294 196.192 120.791 199.727Z" fill="#3F3D56"/>
<path opacity="0.1" d="M120.791 199.727C118.526 215.619 121.288 231.823 125.59 247.285C126.394 250.164 127.26 253.067 128.763 255.651C130.267 258.235 132.36 260.457 134.128 262.888C137.81 267.958 139.971 273.936 141.99 279.854C147.557 296.227 152.233 312.889 155.996 329.768C156.223 330.46 156.223 331.207 155.996 331.898C155.462 333.126 153.842 333.286 152.51 333.279L135.288 333.187C134.674 332.009 135.809 330.732 136.515 329.603C138.97 325.785 136.613 320.825 134.447 316.829C129.181 307.124 125.105 296.82 122.306 286.139C121.128 281.64 120.171 277.042 118.256 272.801C115.942 267.657 112.314 263.232 109.368 258.419C105.943 252.828 103.445 246.757 100.966 240.662C97.5041 232.204 94.0118 223.641 92.6493 214.606C91.3665 206.123 91.9986 197.481 92.8334 188.942C92.7946 188.688 92.8167 188.429 92.898 188.185C92.9793 187.941 93.1173 187.721 93.3008 187.541C93.4842 187.361 93.7078 187.227 93.9531 187.151C94.1984 187.074 94.4584 187.057 94.7115 187.101L117.82 185.91C122.583 185.665 123.712 184.621 122.988 189.298C122.484 192.791 121.294 196.192 120.791 199.727Z" fill="black"/>
<path d="M116.248 161.094C120.944 167.846 125.866 175.617 124.307 183.701C123.123 189.839 118.446 194.596 114.033 199.046C96.3931 216.76 79.048 236.439 73.0453 260.715C71.4986 266.988 70.7499 273.427 69.418 279.743C66.9997 291.221 62.6666 302.196 58.3702 313.104L46.8559 342.167C43.2849 342.255 39.7733 341.242 36.7977 339.265C33.8221 337.289 31.5267 334.445 30.2228 331.119C31.7327 331.002 33.7029 329.541 34.5867 328.314C39.4968 321.519 40.5034 312.778 41.7617 304.492C43.1549 295.334 45.0146 286.249 46.8804 277.171L55.1295 237.004C56.0808 232.369 57.0322 227.729 58.272 223.162C63.0716 205.472 72.1676 188.789 73.5732 170.498C73.7818 167.809 73.9108 164.857 75.7336 162.862C77.6486 160.756 80.7911 160.407 83.6328 160.241C95.1287 159.504 105.047 158.381 116.248 161.094Z" fill="#3F3D56"/>
<path d="M147.262 329.357C148.514 329.06 149.794 328.895 151.08 328.866C152.313 328.91 153.518 329.241 154.601 329.832C155.683 330.423 156.613 331.259 157.316 332.273C158.033 333.422 158.596 334.66 158.991 335.956L160.655 340.731C161.146 342.131 161.624 343.745 160.894 345.028C160.351 345.825 159.568 346.429 158.66 346.753C154.634 348.545 150.067 348.643 145.709 349.073C141.45 349.49 137.227 350.239 133.023 351.025C131.574 351.301 130.132 351.577 128.665 351.724C125.388 352.056 122.086 351.724 118.808 351.43L115.426 351.104C114.294 351.056 113.174 350.849 112.1 350.491C111.563 350.308 111.068 350.019 110.646 349.641C110.224 349.262 109.883 348.801 109.645 348.287C108.81 346.219 110.602 343.769 112.793 343.34C113.683 343.168 114.634 343.248 115.506 343.131C116.529 342.956 117.526 342.657 118.477 342.241C122.773 340.541 127.174 338.822 130.979 336.146C132.035 335.403 133.14 334.366 133.023 333.077C132.913 332.525 132.729 331.99 132.477 331.487C131.961 330.17 131.943 328.71 132.428 327.381C132.636 326.816 133.041 326.221 133.612 326.153C135.232 325.957 135.036 328.32 135.275 329.222C135.601 330.45 136.19 330.56 137.344 330.45C140.658 330.149 143.973 329.983 147.262 329.357Z" fill="#F2F2F2"/>
<path d="M50.3668 345.85C50.3372 348.249 49.5126 350.569 48.0222 352.449C47.5666 353.009 46.9977 353.467 46.3528 353.793C45.3819 354.193 44.3307 354.359 43.2839 354.278C40.3623 354.214 37.4753 353.63 34.7587 352.553C33.8016 352.12 32.8176 351.748 31.8126 351.442C30.5479 351.183 29.269 350.999 27.9827 350.89C22.9069 350.159 18.4509 347.164 13.5469 345.648C12.0817 345.285 10.6455 344.813 9.25052 344.236C7.31102 343.321 5.73978 341.781 4.19923 340.289C3.2909 339.484 2.50879 338.546 1.87917 337.509C0.976929 335.833 0.921696 333.826 0.884869 331.929C0.851765 331.632 0.902843 331.333 1.0322 331.064C1.17236 330.87 1.36359 330.719 1.58457 330.628C3.07603 329.891 4.84368 330.259 6.49471 330.548C12.4605 331.61 18.5675 331.413 24.6254 331.217C25.2001 331.296 25.7848 331.183 26.2887 330.896C26.7926 330.608 27.1874 330.162 27.4119 329.627L29.7135 325.944C30.3703 324.889 31.4137 323.679 32.6044 324.042C33.5557 324.33 33.9424 325.496 33.9056 326.497C33.8688 327.497 33.5619 328.492 33.7521 329.468C33.8878 330.005 34.1321 330.509 34.4699 330.948C34.8077 331.387 35.2318 331.752 35.7162 332.021C36.683 332.547 37.7148 332.943 38.785 333.2C42.173 334.157 46.1134 335.244 48.7342 337.736C50.6614 339.503 50.4834 343.462 50.3668 345.85Z" fill="#F2F2F2"/>
<path d="M113.45 57.4097C113.689 60.6751 115.046 64.0143 117.746 65.8986C110.099 68.5748 102.555 71.5252 95.1165 74.7497C96.5527 73.3687 96.9885 71.2511 97.056 69.2623C97.2463 64.0634 95.448 58.9503 92.821 54.4696C92.4031 53.9012 92.1619 53.2223 92.1275 52.5176C92.2134 51.069 93.9319 50.4 95.3436 50.0624C100.16 48.894 105.075 48.1809 110.025 47.9325C112.142 47.865 114.653 47.1959 114.174 49.8905C113.72 52.4071 113.259 54.8624 113.45 57.4097Z" fill="#FBBEBE"/>
<path d="M98.658 59.1589C88.7498 59.1589 80.7176 51.1261 80.7176 41.2172C80.7176 31.3084 88.7498 23.2756 98.658 23.2756C108.566 23.2756 116.598 31.3084 116.598 41.2172C116.598 51.1261 108.566 59.1589 98.658 59.1589Z" fill="#FBBEBE"/>
<path d="M80.8955 89.6774C81.5219 88.3302 82.2849 87.0508 83.1726 85.8595C86.4255 81.1884 89.7644 76.5235 93.9381 72.6565C97.0996 69.8368 100.521 67.3233 104.157 65.1496C106.119 63.8047 108.276 62.7696 110.553 62.0806C111.904 61.7812 113.277 61.5944 114.659 61.522L119.317 61.1415C119.726 61.0873 120.14 61.0997 120.545 61.1783C121.809 61.4975 122.386 63.0688 122.116 64.3394C121.846 65.61 120.889 66.6412 120.042 67.6049C119.833 77.1127 124.062 86.4917 124.633 95.9873C125.633 112.591 115.5 128.034 114.69 144.65C114.606 145.401 114.686 146.161 114.923 146.878C115.058 147.222 115.26 147.535 115.414 147.872C115.892 148.916 115.874 150.101 115.96 151.248C116.294 155.342 118.087 159.18 121.011 162.064C120.251 163.007 119.274 163.753 118.163 164.237C116.205 165.09 113.867 165.163 111.786 165.759C106.361 167.342 100.8 168.938 95.1594 168.601C94.4587 167.076 94.0248 165.442 93.8767 163.77C93.0788 163.273 92.1581 164.335 92.0354 165.268C91.9126 166.201 92.0906 167.287 91.4216 167.962C90.7526 168.638 89.9056 168.533 89.0893 168.429C85.6461 167.993 82.3378 166.833 78.9621 166.053C75.5864 165.274 71.9775 164.9 68.6938 166.017C68.031 165.176 68.3133 163.93 68.8534 163.009C69.3935 162.088 70.1607 161.278 70.4676 160.253C70.622 159.662 70.6882 159.052 70.664 158.442C70.664 153.194 69.5838 147.891 70.6088 142.741C70.9095 141.231 71.3882 139.758 71.6951 138.242C72.3089 135.302 72.2168 132.269 72.137 129.268C72.0573 126.266 72.4194 123.019 72.4808 119.975C72.4827 118.717 72.5647 117.46 72.7263 116.212C72.935 114.905 73.34 113.628 73.4505 112.308C73.782 108.957 72.4317 105.63 72.6342 102.267C72.9718 97.1597 78.9069 94.3853 80.8955 89.6774Z" fill="#6461FF"/>
<path d="M121.386 87.2714C125.731 98.7987 127.855 111.026 129.978 123.167L134.889 151.684C136.282 159.744 137.681 167.852 137.626 176.028C137.626 178.324 137.479 180.662 138.08 182.878C138.866 185.788 140.818 188.212 142.297 190.858C145.298 196.26 146.298 202.548 145.12 208.615C144.617 211.162 143.242 214.053 140.658 214.348C138.534 214.581 136.699 212.893 135.459 211.15C132.611 207.154 131.2 202.33 129.935 197.579C125.865 182.053 123.019 166.231 121.423 150.26C121.271 148.239 120.986 146.229 120.569 144.245C120.027 142.199 119.334 140.197 118.495 138.254C116.617 133.597 114.737 128.941 112.854 124.284C108.515 113.524 104.151 102.715 98.1915 92.7588C104.084 91.0647 110.215 89.0759 116.107 87.4002C117.807 86.8969 119.63 87.1977 121.386 87.2714Z" fill="#FBBEBE"/>
<path d="M111.173 96.0302C115.297 95.1402 119.563 95.4164 123.773 95.3121C124.371 95.3555 124.967 95.2002 125.467 94.8701C126.32 94.1397 125.958 92.7709 125.529 91.7336L123.491 86.8231C123.156 85.808 122.599 84.8809 121.858 84.1101C120.821 83.1894 119.36 82.9623 117.985 82.7965C113.511 82.2809 108.908 82.1091 104.568 83.3183C100.229 84.5275 96.1476 87.2773 94.2081 91.3469C93.3979 93.041 93.0234 95.177 94.0975 96.7177C95.6933 99.0072 99.2716 101.567 101.942 100.315C105.139 98.7985 107.588 96.7913 111.173 96.0302Z" fill="#7E7CFF"/>
<path d="M89.2427 13.3506C92.7879 13.3126 96.2663 14.3156 99.2471 16.2355C102.069 13.5612 105.551 11.6848 109.336 10.7983C113.121 9.91173 117.074 10.0469 120.79 11.19C121.185 8.92694 122.193 6.81573 123.705 5.08671C125.217 3.3577 127.176 2.07732 129.366 1.3853C131.556 0.693283 133.894 0.616218 136.125 1.16251C138.356 1.70881 140.395 2.85748 142.017 4.48316C143.64 6.10884 144.785 8.14907 145.328 10.3812C145.87 12.6133 145.789 14.9516 145.094 17.1408C144.398 19.3301 143.114 21.2861 141.383 22.7956C139.651 24.305 137.539 25.3098 135.275 25.7004C136.085 28.466 136.342 31.364 136.032 34.2289C135.721 37.0939 134.85 39.8697 133.467 42.3978C132.084 44.9259 130.217 47.1568 127.971 48.9632C125.726 50.7696 123.148 52.1161 120.382 52.9258C117.617 53.7355 114.719 53.9926 111.854 53.6823C108.989 53.372 106.214 52.5004 103.686 51.1174C101.158 49.7343 98.9271 47.8669 97.1208 45.6217C95.3145 43.3764 93.9681 40.7974 93.1585 38.0318C91.8638 38.2968 90.5457 38.4305 89.2242 38.4308C80.5701 38.4308 73.5486 32.8144 73.5486 25.8907C73.5486 18.9669 80.6008 13.3506 89.2427 13.3506Z" fill="#3F3D56"/>
<path opacity="0.1" d="M86.1186 32.1576C87.4403 32.1612 88.7588 32.0275 90.0529 31.7586C90.6676 34.0037 91.6373 36.1359 92.9253 38.0747C91.7116 38.3086 90.4787 38.4278 89.2427 38.4307C81.1532 38.4307 74.5123 33.5203 73.6591 27.2349C76.5377 30.2302 81.0489 32.1576 86.1186 32.1576Z" fill="black"/>
<path opacity="0.1" d="M111.197 47.8342C114.63 47.8293 118.015 47.0198 121.079 45.4708C124.142 43.9219 126.801 41.6764 128.84 38.9146C130.88 36.1528 132.244 32.9514 132.823 29.5672C133.403 26.183 133.181 22.7102 132.176 19.4272C135.08 18.9162 137.711 17.398 139.607 15.1394C141.503 12.8808 142.542 10.0263 142.542 7.07735C142.544 6.32389 142.476 5.5719 142.34 4.83081C143.871 6.48479 144.927 8.5208 145.399 10.7247C145.871 12.9285 145.74 15.2188 145.02 17.3545C144.3 19.4902 143.018 21.3924 141.309 22.8611C139.599 24.3297 137.526 25.3105 135.306 25.7003C136.996 31.2491 136.42 37.2412 133.705 42.3666C130.989 47.4921 126.355 51.3339 120.816 53.0522C115.276 54.7704 109.281 54.2253 104.142 51.536C99.0034 48.8466 95.1383 44.2319 93.3918 38.7007C95.4206 41.5285 98.0939 43.8319 101.19 45.4203C104.287 47.0087 107.717 47.8362 111.197 47.8342Z" fill="black"/>
</svg>
