<svg width="83" height="148" viewBox="0 0 83 148" fill="none" xmlns="http://www.w3.org/2000/svg">
<path d="M41.7763 8.55029C52.6826 8.55029 63.1423 12.8831 70.8542 20.5956C78.5662 28.308 82.8987 38.7684 82.8987 49.6754C82.8987 72.3863 39.8122 147.602 39.8122 147.602C39.8122 147.602 0.653931 72.417 0.653931 49.6754C0.653931 38.7684 4.98645 28.308 12.6984 20.5956C20.4103 12.8831 30.87 8.55029 41.7763 8.55029ZM41.7763 77.1004C46.0372 77.1004 50.2023 75.8368 53.7451 73.4694C57.2878 71.1021 60.0491 67.7373 61.6796 63.8005C63.3102 59.8637 63.7368 55.5318 62.9056 51.3526C62.0743 47.1733 60.0225 43.3344 57.0097 40.3213C53.9968 37.3083 50.1581 35.2563 45.9792 34.425C41.8002 33.5937 37.4686 34.0204 33.5321 35.651C29.5956 37.2817 26.231 40.0431 23.8638 43.5861C21.4966 47.1291 20.2331 51.2946 20.2331 55.5557C20.2299 58.3868 20.7848 61.1907 21.866 63.8071C22.9473 66.4235 24.5338 68.8011 26.5346 70.8038C28.5355 72.8065 30.9116 74.3951 33.5269 75.4787C36.1422 76.5623 38.9454 77.1196 41.7763 77.1188V77.1004Z" fill="#70DDFF"/>
<path opacity="0.1" d="M41.7763 8.55029C52.6826 8.55029 63.1423 12.8831 70.8542 20.5956C78.5662 28.308 82.8987 38.7684 82.8987 49.6754C82.8987 72.3863 39.8122 147.602 39.8122 147.602C39.8122 147.602 0.653931 72.417 0.653931 49.6754C0.653931 38.7684 4.98645 28.308 12.6984 20.5956C20.4103 12.8831 30.87 8.55029 41.7763 8.55029ZM41.7763 77.1004C46.0372 77.1004 50.2023 75.8368 53.7451 73.4694C57.2878 71.1021 60.0491 67.7373 61.6796 63.8005C63.3102 59.8637 63.7368 55.5318 62.9056 51.3526C62.0743 47.1733 60.0225 43.3344 57.0097 40.3213C53.9968 37.3083 50.1581 35.2563 45.9792 34.425C41.8002 33.5937 37.4686 34.0204 33.5321 35.651C29.5956 37.2817 26.231 40.0431 23.8638 43.5861C21.4966 47.1291 20.2331 51.2946 20.2331 55.5557C20.2299 58.3868 20.7848 61.1907 21.866 63.8071C22.9473 66.4235 24.5338 68.8011 26.5346 70.8038C28.5355 72.8065 30.9116 74.3951 33.5269 75.4787C36.1422 76.5623 38.9454 77.1196 41.7763 77.1188V77.1004Z" fill="black"/>
<path d="M41.7763 0C52.6826 0 63.1423 4.33281 70.8542 12.0453C78.5662 19.7577 82.8987 30.2181 82.8987 41.1251C82.8987 63.836 39.8122 147.621 39.8122 147.621C39.8122 147.621 0.653931 63.8483 0.653931 41.1313C0.65313 35.7301 1.71621 30.3817 3.78244 25.3915C5.84867 20.4012 8.87757 15.8669 12.6962 12.0474C16.5149 8.22797 21.0484 5.19817 26.038 3.13105C31.0276 1.06394 36.3755 -6.01598e-08 41.7763 0ZM41.7763 68.5501C46.0372 68.5501 50.2023 67.2865 53.7451 64.9191C57.2878 62.5518 60.0491 59.187 61.6796 55.2502C63.3102 51.3134 63.7368 46.9815 62.9056 42.8022C62.0743 38.623 60.0225 34.7841 57.0097 31.771C53.9968 28.758 50.1581 26.706 45.9792 25.8747C41.8002 25.0434 37.4686 25.4701 33.5321 27.1007C29.5956 28.7314 26.231 31.4928 23.8638 35.0358C21.4966 38.5788 20.2331 42.7443 20.2331 47.0054C20.2331 49.8347 20.7903 52.6363 21.873 55.2502C22.9556 57.8641 24.5425 60.2392 26.5429 62.2398C28.5434 64.2404 30.9183 65.8273 33.5321 66.9101C36.1458 67.9928 38.9472 68.5501 41.7763 68.5501Z" fill="#70DDFF"/>
</svg>
