<svg width="50" height="68" viewBox="0 0 50 68" fill="none" xmlns="http://www.w3.org/2000/svg">
<path d="M25.5576 31.3281C24.2359 30.3181 23.1017 29.084 22.2064 27.682C21.4351 26.1002 20.9509 24.3939 20.7763 22.6427L19.8127 16.5537C19.2787 13.1962 18.6527 9.64222 16.4125 7.08264C14.1722 4.52305 9.71013 3.60848 7.43305 6.13737C6.43875 7.23608 6.04592 8.74604 5.80041 10.213C5.10014 14.5876 5.38829 19.0634 6.64367 23.312C7.89904 27.5606 10.0898 31.4741 13.0551 34.7654C15.811 37.7853 19.1928 40.1853 22.1082 43.0395C24.6492 45.4948 26.8526 48.3121 29.1972 50.9822C34.8671 57.432 41.3613 63.1074 48.5125 67.8619C48.4265 63.2952 47.8435 58.397 48.5125 53.861C49.0096 50.5832 50.3538 48.8155 47.1806 46.6733C39.8154 41.6646 32.3827 37.1347 25.5576 31.3281Z" fill="#FBBEBE"/>
<path d="M5.15489 13.8311C5.08795 13.7373 5.10858 13.6078 5.20102 13.5418C5.29346 13.4758 5.42269 13.4984 5.48963 13.5923L7.22227 16.0205C7.28921 16.1143 7.26854 16.2439 7.1761 16.3098C7.08366 16.3758 6.95447 16.3532 6.88753 16.2594L5.15489 13.8311Z" fill="#3A3768"/>
<path d="M14.8551 3.51948C14.8177 3.46705 14.8298 3.39422 14.8822 3.3568C14.9347 3.31939 15.0075 3.33157 15.0449 3.384L15.5582 4.10349C15.5957 4.15592 15.5835 4.22876 15.5311 4.26617C15.4786 4.30358 15.4058 4.2914 15.3684 4.23897L14.8551 3.51948Z" fill="#3A3768"/>
<path d="M16.047 5.21415C16.0057 5.1562 16.0191 5.0757 16.0771 5.03435C16.135 4.993 16.2155 5.00645 16.2569 5.0644L17.2372 6.43844C17.2786 6.49638 17.2651 6.5769 17.2072 6.61825C17.1492 6.6596 17.0687 6.64614 17.0274 6.58819L16.047 5.21415Z" fill="#3A3768"/>
<path d="M17.5696 7.34557C17.5302 7.29038 17.543 7.21372 17.5982 7.17434C17.6534 7.13496 17.73 7.14776 17.7694 7.20295L18.7676 8.60199C18.807 8.65718 18.7942 8.73384 18.739 8.77322C18.6838 8.8126 18.6071 8.7998 18.5678 8.74461L17.5696 7.34557Z" fill="#3A3768"/>
<path d="M2.1803 8.61847L10.8936 2.40063C11.5889 1.90443 12.5548 2.06592 13.051 2.76131L27.5428 23.072C28.039 23.7674 27.8776 24.7334 27.1822 25.2296L18.4689 31.4474C17.7736 31.9436 16.8077 31.7821 16.3115 31.0867L1.81965 10.776C1.32348 10.0806 1.48496 9.11467 2.1803 8.61847Z" fill="#3A3768"/>
<path opacity="0.1" d="M2.1803 8.61847L10.8936 2.40063C11.5889 1.90443 12.5548 2.06592 13.051 2.76131L27.5428 23.072C28.039 23.7674 27.8776 24.7334 27.1822 25.2296L18.4689 31.4474C17.7736 31.9436 16.8077 31.7821 16.3115 31.0867L1.81965 10.776C1.32348 10.0806 1.48496 9.11467 2.1803 8.61847Z" fill="black"/>
<path d="M2.74889 7.47418L11.4622 1.25634C12.1575 0.760144 13.1234 0.921644 13.6196 1.61703L28.1115 21.9277C28.6076 22.6231 28.4462 23.5891 27.7508 24.0853L19.0375 30.3031C18.3422 30.7993 17.3763 30.6378 16.8801 29.9424L2.38825 9.63175C1.89208 8.93637 2.05355 7.97038 2.74889 7.47418Z" fill="#3A3768"/>
<path d="M3.53552 7.84368L4.81831 6.92297L4.92879 7.07642C5.06553 7.26452 5.27004 7.39209 5.4991 7.43218C5.72816 7.47227 5.96383 7.42173 6.15632 7.29126L10.2563 4.36339C10.4507 4.22414 10.5819 4.01338 10.621 3.77744C10.6602 3.54149 10.6041 3.29966 10.465 3.10509L10.3545 2.95164L11.582 2.09232C11.6988 2.00814 11.831 1.94786 11.9711 1.91494C12.1112 1.88203 12.2565 1.87712 12.3985 1.9005C12.5405 1.92389 12.6765 1.97509 12.7986 2.0512C12.9208 2.12731 13.0267 2.22681 13.1103 2.34398L27.2761 22.2006C27.4445 22.437 27.5125 22.7304 27.4654 23.0167C27.4182 23.3031 27.2597 23.5591 27.0244 23.729L18.9595 29.4804C18.8424 29.5642 18.7099 29.6241 18.5695 29.6566C18.4292 29.689 18.2838 29.6934 18.1418 29.6694C17.9997 29.6455 17.8638 29.5936 17.7419 29.517C17.6199 29.4403 17.5144 29.3402 17.4312 29.2226L3.2655 9.37206C3.18225 9.25419 3.12314 9.12101 3.09164 8.98018C3.06015 8.83936 3.05687 8.69368 3.08198 8.55158C3.10709 8.40948 3.16012 8.27376 3.23797 8.15225C3.31581 8.03075 3.41692 7.92588 3.53552 7.84368Z" fill="#70DDFF"/>
<path d="M7.27017 5.28446L8.5192 4.39314C8.60749 4.33013 8.73016 4.35064 8.79316 4.43894C8.85616 4.52725 8.83565 4.6499 8.74735 4.71291L7.49833 5.60423C7.41003 5.66724 7.28738 5.64675 7.22438 5.55845C7.16137 5.47014 7.18188 5.34747 7.27017 5.28446Z" fill="#E6E8EC"/>
<path d="M6.83761 6.09428C6.71558 6.09428 6.61667 5.99536 6.61667 5.87332C6.61667 5.75129 6.71558 5.65234 6.83761 5.65234C6.95964 5.65234 7.05859 5.75129 7.05859 5.87332C7.05859 5.99536 6.95964 6.09428 6.83761 6.09428Z" fill="#E6E8EC"/>
</svg>
