<svg width="442" height="22" viewBox="0 0 442 22" fill="none" xmlns="http://www.w3.org/2000/svg">
<path d="M441.781 3.7025C433.471 8.98125 421.497 3.64111 413.131 8.84007C410.97 10.1782 409.227 12.1485 406.993 13.3638C404.311 14.8308 401.156 15.0948 398.106 15.2053C372.561 16.1935 346.586 9.06718 321.68 14.8247C314.713 16.4329 307.901 19.0477 300.762 19.4283C288.432 20.0973 276.617 14.082 264.274 13.7505C245.554 13.2472 227.16 25.775 209.096 20.8339C203.155 19.2073 197.705 15.7393 191.573 15.1562C184.742 14.5423 178.175 17.5193 171.534 19.2564C147.984 25.3945 123.458 15.4508 99.1094 14.7081C83.2312 14.2232 67.5065 17.6851 51.6407 18.483C40.3596 19.0477 29.054 18.2559 17.7853 17.4702C13.4889 17.1695 8.99002 16.8012 5.39334 14.4441C1.79666 12.0871 -0.412903 7.02318 1.80893 3.34033L441.781 3.7025Z" fill="#3F3D56"/>
<path opacity="0.1" d="M441.781 3.7025C433.471 8.98125 421.497 3.64111 413.131 8.84007C410.97 10.1782 409.227 12.1485 406.993 13.3638C404.311 14.8308 401.156 15.0948 398.106 15.2053C372.561 16.1935 346.586 9.06718 321.68 14.8247C314.713 16.4329 307.901 19.0477 300.762 19.4283C288.432 20.0973 276.617 14.082 264.274 13.7505C245.554 13.2472 227.16 25.775 209.096 20.8339C203.155 19.2073 197.705 15.7393 191.573 15.1562C184.742 14.5423 178.175 17.5193 171.534 19.2564C147.984 25.3945 123.458 15.4508 99.1094 14.7081C83.2312 14.2232 67.5065 17.6851 51.6407 18.483C40.3596 19.0477 29.054 18.2559 17.7853 17.4702C13.4889 17.1695 8.99002 16.8012 5.39334 14.4441C1.79666 12.0871 -0.412903 7.02318 1.80893 3.34033L441.781 3.7025Z" fill="black"/>
<path d="M441.781 0.633403C433.471 5.91215 421.497 0.572019 413.131 5.77097C410.97 7.10907 409.227 9.07939 406.993 10.2947C404.311 11.7617 401.156 12.0257 398.106 12.1362C372.561 13.1244 346.586 5.99808 321.68 11.7556C314.713 13.3638 307.901 15.9786 300.762 16.3592C288.432 17.0282 276.617 11.0129 264.274 10.6814C245.554 10.1781 227.16 22.7059 209.096 17.7648C203.155 16.1382 197.705 12.6702 191.573 12.087C184.742 11.4732 178.175 14.4502 171.534 16.1873C147.984 22.3253 123.458 12.3817 99.1094 11.639C83.2312 11.1541 67.5065 14.616 51.6407 15.4139C40.3596 15.9786 29.054 15.1868 17.7853 14.4011C13.4889 14.1003 8.99002 13.7321 5.39334 11.375C1.79666 9.01802 -0.412903 3.95409 1.80893 0.27124L441.781 0.633403Z" fill="#3F3D56"/>
</svg>
