<svg width="57" height="45" viewBox="0 0 57 45" fill="none" xmlns="http://www.w3.org/2000/svg">
<path d="M15.9651 20.8948L4.21758 13.9833C5.80751 11.2704 7.83824 8.84126 10.2264 6.79567L32.3895 13.6887L15.0199 3.48109C19.3196 1.12555 24.1586 -0.0696661 29.0605 0.0130529C33.9624 0.0957719 38.7582 1.45356 42.976 3.95283C47.1938 6.4521 50.6882 10.0067 53.1152 14.2667C55.5422 18.5267 56.8181 23.3454 56.8174 28.2483C56.8174 43.839 44.1799 44.3792 28.5841 44.3792C12.9883 44.3792 0.350861 43.839 0.350861 28.2483C0.345249 24.3005 1.17132 20.3957 2.77525 16.7885L15.9651 20.8948Z" fill="#70DDFF"/>
<path opacity="0.1" d="M12.976 36.0498C14.2264 34.7975 15.6237 33.701 17.1374 32.7843C19.2733 31.3664 21.4767 29.9178 23.9931 29.4391C26.2027 29.0155 28.4798 29.3715 30.7446 29.2426C34.6515 29.0041 38.3296 27.3192 41.062 24.5163C42.6639 22.859 43.9283 20.8334 45.8555 19.5506C47.9362 18.1879 50.5754 17.8933 53.0427 18.2309C53.7588 18.333 54.468 18.4785 55.1664 18.6667C56.2746 21.7394 56.8396 24.9817 56.8358 28.2483C56.8358 43.839 44.1983 44.3792 28.6025 44.3792C21.0348 44.3792 14.1667 44.2502 9.09703 42.3413L9.94403 40.7577C10.7533 39.0674 11.7719 37.4857 12.976 36.0498Z" fill="black"/>
</svg>
