<svg width="56" height="139" viewBox="0 0 56 139" fill="none" xmlns="http://www.w3.org/2000/svg">
<path d="M33.0848 136.967C36.0044 136.967 38.3712 134.599 38.3712 131.678C38.3712 128.757 36.0044 126.389 33.0848 126.389C30.1652 126.389 27.7984 128.757 27.7984 131.678C27.7984 134.599 30.1652 136.967 33.0848 136.967Z" fill="#3F3D56"/>
<path d="M5.47189 136.967C8.39148 136.967 10.7583 134.599 10.7583 131.678C10.7583 128.757 8.39148 126.389 5.47189 126.389C2.55229 126.389 0.185486 128.757 0.185486 131.678C0.185486 134.599 2.55229 136.967 5.47189 136.967Z" fill="#3F3D56"/>
<path d="M13.6977 4.11688H11.3469V69.0752H13.6977V4.11688Z" fill="#3F3D56"/>
<path d="M26.3288 4.11688H23.978V69.0752H26.3288V4.11688Z" fill="#3F3D56"/>
<path d="M11.9207 5.87981L11.3321 4.11687C11.3321 4.11687 17.7957 -3.52377 26.9026 2.6354L26.314 5.28351H23.9632C23.9632 5.28351 20.1465 2.07986 13.6829 5.73907L11.9207 5.87981Z" fill="#3F3D56"/>
<path d="M10.4658 64.9605C10.4658 64.9605 2.53252 65.2531 1.359 74.3641C0.185476 83.475 1.359 125.8 1.359 125.8C1.359 125.8 10.4658 132.56 21.631 131.678C32.7961 130.797 50.7136 127.563 50.7136 127.563V77.9344C50.7136 70.5271 44.5387 64.4864 37.1422 64.9123C36.9682 64.9123 36.772 64.9346 36.6128 64.9531L10.4658 64.9605Z" fill="#3C354C"/>
<path d="M21.9234 138.437C24.843 138.437 27.2098 136.069 27.2098 133.148C27.2098 130.227 24.843 127.859 21.9234 127.859C19.0038 127.859 16.637 130.227 16.637 133.148C16.637 136.069 19.0038 138.437 21.9234 138.437Z" fill="#3F3D56"/>
<path d="M50.7136 136.085C53.6332 136.085 56 133.718 56 130.797C56 127.876 53.6332 125.508 50.7136 125.508C47.794 125.508 45.4272 127.876 45.4272 130.797C45.4272 133.718 47.794 136.085 50.7136 136.085Z" fill="#3F3D56"/>
</svg>
