<svg width="107" height="52" viewBox="0 0 107 52" fill="none" xmlns="http://www.w3.org/2000/svg">
<path d="M6 2C6 0.895432 6.89543 0 8 0H105C106.105 0 107 0.89543 107 2V35C107 36.1046 106.105 37 105 37H8C6.89543 37 6 36.1046 6 35V2Z" fill="white"/>
<ellipse cx="23.6383" cy="25.1188" rx="5.6383" ry="1.54777" fill="#F2F2F2"/>
<path fill-rule="evenodd" clip-rule="evenodd" d="M23.4214 22.2445C23.4214 22.2445 27.5417 18.7067 27.5417 15.8323C27.5417 13.5121 25.697 11.6312 23.4214 11.6312C21.1459 11.6312 19.3011 13.5121 19.3011 15.8323C19.3011 18.9278 23.4214 22.2445 23.4214 22.2445ZM23.4214 17.3801C24.4993 17.3801 25.3732 16.4891 25.3732 15.3901C25.3732 14.2911 24.4993 13.4001 23.4214 13.4001C22.3435 13.4001 21.4697 14.2911 21.4697 15.3901C21.4697 16.4891 22.3435 17.3801 23.4214 17.3801Z" fill="#13F1FC"/>
<path d="M14 37L0 52L31 37H14Z" fill="white"/>
<path d="M41.109 22.182C40.2077 22.182 39.406 21.987 38.704 21.597C38.002 21.207 37.4517 20.6567 37.053 19.946C36.663 19.2267 36.468 18.3947 36.468 17.45C36.468 16.5053 36.6673 15.6777 37.066 14.967C37.4733 14.2477 38.0323 13.693 38.743 13.303C39.4537 12.913 40.2597 12.718 41.161 12.718C41.6117 12.718 42.0407 12.7657 42.448 12.861C42.8553 12.9563 43.2193 13.0863 43.54 13.251L43.384 14.681C42.63 14.3257 41.8847 14.148 41.148 14.148C40.5067 14.148 39.9563 14.291 39.497 14.577C39.0463 14.8543 38.704 15.2443 38.47 15.747C38.236 16.241 38.119 16.8087 38.119 17.45C38.119 18.0913 38.2317 18.6633 38.457 19.166C38.691 19.66 39.0333 20.05 39.484 20.336C39.9347 20.6133 40.4807 20.752 41.122 20.752C41.5293 20.752 41.9107 20.7087 42.266 20.622C42.63 20.5353 43.0027 20.4053 43.384 20.232L43.54 21.649C42.812 22.0043 42.0017 22.182 41.109 22.182ZM46.027 12.9H47.483V14.395H46.027V12.9ZM46.027 15.552H47.483V22H46.027V15.552ZM52.4681 22.13C51.9047 22.13 51.4757 21.9697 51.1811 21.649C50.8951 21.3283 50.7521 20.9427 50.7521 20.492V16.722H49.7771L49.9071 15.552H50.7521V14.07L52.2081 13.914V15.552H53.7291V16.722H52.2081V19.816C52.2081 20.1973 52.2297 20.4617 52.2731 20.609C52.3164 20.7477 52.4074 20.8387 52.5461 20.882C52.6934 20.9253 52.9534 20.947 53.3261 20.947H53.7161L53.5861 22.13H52.4681ZM58.0167 21.623L55.3257 15.552H56.9377L58.7187 19.933L60.4477 15.552H62.0727L58.0557 25.146H56.5607L58.0167 21.623ZM68.6039 19.738H65.2239L64.4309 22H62.9229L66.1729 12.9H67.6549L70.8919 22H69.3969L68.6039 19.738ZM68.1229 18.399L66.9139 14.941L65.6919 18.399H68.1229ZM76.3658 15.435C76.9638 15.435 77.4795 15.5823 77.9128 15.877C78.3461 16.1717 78.6755 16.5747 78.9008 17.086C79.1261 17.5887 79.2388 18.152 79.2388 18.776C79.2388 19.4 79.1261 19.9677 78.9008 20.479C78.6841 20.9903 78.3591 21.3933 77.9258 21.688C77.4925 21.9827 76.9725 22.13 76.3658 22.13C75.9498 22.13 75.5901 22.078 75.2868 21.974C74.9921 21.87 74.7235 21.7053 74.4808 21.48V25.146H73.0248V15.552H74.1818L74.3378 16.241C74.6151 15.981 74.9141 15.7817 75.2348 15.643C75.5641 15.5043 75.9411 15.435 76.3658 15.435ZM76.1188 20.908C76.6301 20.908 77.0288 20.7173 77.3148 20.336C77.6008 19.9547 77.7438 19.4347 77.7438 18.776C77.7438 18.126 77.6008 17.6103 77.3148 17.229C77.0288 16.8477 76.6301 16.657 76.1188 16.657C75.5728 16.657 75.1481 16.8433 74.8448 17.216C74.5501 17.5887 74.4028 18.1087 74.4028 18.776C74.4028 19.452 74.5501 19.9763 74.8448 20.349C75.1481 20.7217 75.5728 20.908 76.1188 20.908ZM85.0418 15.435C85.6398 15.435 86.1555 15.5823 86.5888 15.877C87.0221 16.1717 87.3515 16.5747 87.5768 17.086C87.8021 17.5887 87.9148 18.152 87.9148 18.776C87.9148 19.4 87.8021 19.9677 87.5768 20.479C87.3601 20.9903 87.0351 21.3933 86.6018 21.688C86.1685 21.9827 85.6485 22.13 85.0418 22.13C84.6258 22.13 84.2661 22.078 83.9628 21.974C83.6681 21.87 83.3995 21.7053 83.1568 21.48V25.146H81.7008V15.552H82.8578L83.0138 16.241C83.2911 15.981 83.5901 15.7817 83.9108 15.643C84.2401 15.5043 84.6171 15.435 85.0418 15.435ZM84.7948 20.908C85.3061 20.908 85.7048 20.7173 85.9908 20.336C86.2768 19.9547 86.4198 19.4347 86.4198 18.776C86.4198 18.126 86.2768 17.6103 85.9908 17.229C85.7048 16.8477 85.3061 16.657 84.7948 16.657C84.2488 16.657 83.8241 16.8433 83.5208 17.216C83.2261 17.5887 83.0788 18.1087 83.0788 18.776C83.0788 19.452 83.2261 19.9763 83.5208 20.349C83.8241 20.7217 84.2488 20.908 84.7948 20.908Z" fill="#A5ADB1"/>
</svg>
