<svg width="126" height="255" viewBox="0 0 126 255" fill="none" xmlns="http://www.w3.org/2000/svg">
<path d="M64.5783 25.6737C72.6911 25.6737 79.2677 20.5416 79.2677 14.2109C79.2677 7.88018 72.6911 2.74811 64.5783 2.74811C56.4656 2.74811 49.8889 7.88018 49.8889 14.2109C49.8889 20.5416 56.4656 25.6737 64.5783 25.6737Z" fill="#3F3D56"/>
<path d="M93.9571 74.1693C105.64 74.1693 115.11 64.6945 115.11 53.0066C115.11 41.3188 105.64 31.844 93.9571 31.844C82.2746 31.844 72.8041 41.3188 72.8041 53.0066C72.8041 64.6945 82.2746 74.1693 93.9571 74.1693Z" fill="#3F3D56"/>
<path d="M100.421 103.858H79.2678V130.898H100.421V103.858Z" fill="#FBBEBE"/>
<path d="M115.11 96.2134H108.647V109.147H115.11V96.2134Z" fill="#FBBEBE"/>
<path d="M82.059 235.389L79.4158 243.326C79.4158 243.326 78.2386 249.204 82.059 249.496C85.8794 249.789 92.0543 248.615 92.0543 248.615C92.0543 248.615 92.9354 245.971 92.0543 243.619C91.1733 241.267 88.53 234.8 88.53 234.8L82.059 235.389Z" fill="#3C354C"/>
<path d="M102.035 235.682C102.035 235.682 97.922 245.971 101.154 247.733C104.386 249.496 108.795 248.026 112.319 249.496C115.843 250.967 125.539 247.441 125.539 247.441C125.539 247.441 126.716 244.208 120.252 243.326C120.252 243.326 113.218 238.034 113.218 236.86C113.218 235.685 109.106 235.682 109.106 235.682H102.035Z" fill="#3C354C"/>
<path d="M101.154 118.409C101.154 118.409 77.0651 123.406 74.1294 121.935C71.1938 120.465 68.2544 141.935 68.2544 141.935C68.2544 141.935 67.0772 154.868 71.1901 172.209C75.3029 189.549 71.1901 198.075 71.1901 198.075C71.1901 198.075 71.7787 214.534 76.1877 222.178C80.5967 229.823 80.593 236.874 80.593 236.874C80.593 236.874 89.1075 237.756 89.4074 235.697C89.4074 235.697 85.8794 227.467 86.468 219.826C87.0567 212.186 84.7059 197.486 84.7059 197.486C84.7059 197.486 88.5263 178.968 87.9377 171.931C87.3491 164.894 89.996 149.887 91.462 152.531C92.928 155.176 96.7521 168.109 96.7521 170.757C96.7521 173.405 98.2329 191.034 99.1028 192.212C99.9728 193.39 99.6878 196.916 99.3953 198.679C99.1029 200.442 99.1029 213.667 100.569 220.723C102.035 227.778 100.865 235.711 101.157 236.889C101.45 238.067 109.972 237.182 110.264 235.123C110.264 235.123 111.441 222.486 112.03 220.723C112.619 218.96 112.896 196.59 112.896 196.59C112.896 196.59 113.481 179.249 114.07 177.486C114.658 175.723 115.551 137.805 111.719 133.413C107.888 129.02 109.368 117.835 109.368 117.835L101.154 118.409Z" fill="#3F3D56"/>
<path d="M81.3519 67.2064C80.2636 69.2582 79.1678 71.3286 78.4866 73.5545C77.8055 75.7804 77.5685 78.1914 78.209 80.4284C78.6672 81.8257 79.3043 83.1578 80.1044 84.3914C80.7408 85.5703 81.5479 86.6486 82.4996 87.5913C84.7207 89.6209 87.9489 90.0283 90.9475 90.3468C91.4618 90.4328 91.9874 90.424 92.4986 90.3209C92.9086 90.2017 93.2876 89.9944 93.6092 89.7135C94.9234 88.6024 95.5194 86.9061 96.0006 85.2691C97.1453 81.3759 97.965 77.3944 98.4513 73.3656C98.5642 72.7286 98.5642 72.0767 98.4513 71.4397C98.1922 70.3286 97.3037 69.4656 96.6596 68.5101C95.8881 67.3683 95.4473 66.0352 95.3861 64.6583C95.3602 63.988 95.3861 63.2472 94.9641 62.7361C94.6833 62.4579 94.3427 62.2476 93.9682 62.1213C92.2172 61.3806 90.4699 60.6398 88.7152 59.9287C87.6564 59.4917 85.7536 58.3288 84.643 59.188C83.6916 59.9287 84.1506 61.6472 83.7434 62.6769C83.1178 64.2398 82.1368 65.725 81.3519 67.2064Z" fill="#FBBEBE"/>
<path opacity="0.1" d="M81.3519 67.2064C80.2636 69.2582 79.1678 71.3286 78.4866 73.5545C77.8055 75.7804 77.5685 78.1914 78.209 80.4284C78.6672 81.8257 79.3043 83.1578 80.1044 84.3914C80.7408 85.5703 81.5479 86.6486 82.4996 87.5913C84.7207 89.6209 87.9489 90.0283 90.9475 90.3468C91.4618 90.4328 91.9874 90.424 92.4986 90.3209C92.9086 90.2017 93.2876 89.9944 93.6092 89.7135C94.9234 88.6024 95.5194 86.9061 96.0006 85.2691C97.1453 81.3759 97.965 77.3944 98.4513 73.3656C98.5642 72.7286 98.5642 72.0767 98.4513 71.4397C98.1922 70.3286 97.3037 69.4656 96.6596 68.5101C95.8881 67.3683 95.4473 66.0352 95.3861 64.6583C95.3602 63.988 95.3861 63.2472 94.9641 62.7361C94.6833 62.4579 94.3427 62.2476 93.9682 62.1213C92.2172 61.3806 90.4699 60.6398 88.7152 59.9287C87.6564 59.4917 85.7536 58.3288 84.643 59.188C83.6916 59.9287 84.1506 61.6472 83.7434 62.6769C83.1178 64.2398 82.1368 65.725 81.3519 67.2064Z" fill="black"/>
<path d="M92.928 67.8546C98.6077 67.8546 103.212 63.2482 103.212 57.5658C103.212 51.8835 98.6077 47.2771 92.928 47.2771C87.2483 47.2771 82.6439 51.8835 82.6439 57.5658C82.6439 63.2482 87.2483 67.8546 92.928 67.8546Z" fill="#FBBEBE"/>
<path d="M96.5374 83.5136C94.5902 84.2136 92.58 84.8173 90.5106 84.8913C88.9604 84.9069 87.4136 84.7415 85.9017 84.3987C82.7777 83.7771 79.7097 82.9014 76.7282 81.7803C76.0914 83.0358 75.9212 84.4691 75.8656 85.8765C75.7064 90.132 76.5542 94.3542 76.88 98.6022C77.2909 104.002 76.88 109.521 78.2682 114.75C78.3484 113.861 78.6941 113.017 79.2603 112.328C79.7323 111.819 80.2963 111.405 80.9225 111.106C83.7242 109.657 86.9506 109.255 90.0219 109.972C91.8026 110.395 93.6943 111.184 95.3824 110.476C96.3893 110.05 97.1186 109.154 97.6776 108.213C98.6266 106.516 99.3037 104.68 99.6841 102.773C100.795 97.8689 100.943 92.7986 101.076 87.7691C101.113 86.4246 101.691 82.4284 100.576 81.4432C99.7951 80.7581 99.5656 81.7358 99.0029 82.2469C98.2709 82.8251 97.4335 83.2553 96.5374 83.5136Z" fill="#F2F2F2"/>
<path d="M82.0627 65.851C81.3779 65.3139 80.3635 65.4806 79.6083 65.9361C78.8531 66.3917 78.2423 67.0213 77.476 67.4361C75.3511 68.588 72.4968 67.7435 70.4793 69.0842C68.5839 70.3472 68.2581 72.9471 68.11 75.2212C67.7398 80.9989 67.4215 86.8173 66.0332 92.4395C65.663 93.9209 65.2188 95.4394 65.3595 96.9653C65.4703 97.8371 65.6763 98.6941 65.974 99.5208L67.7954 105.213C68.6394 107.858 69.4946 110.543 69.5834 113.317C69.6723 116.091 69.0207 118.728 68.3729 121.376C67.0925 126.593 66.259 131.91 65.8814 137.268C65.7667 139.042 65.7186 140.894 66.4367 142.52C67.1771 144.22 68.6801 145.483 70.2646 146.442C71.849 147.402 73.5704 148.142 75.1216 149.161C78.2349 151.209 80.7337 154.435 84.3765 155.276C86.046 155.646 87.7933 155.498 89.474 155.172C89.474 155.172 88.5226 111.943 85.8757 105.769C83.2288 99.5949 80.8818 72.8509 80.8818 71.9694C80.8818 71.0879 82.0627 65.851 82.0627 65.851Z" fill="#7E7CFF"/>
<path d="M96.3597 67.2657C96.3597 67.2657 110.261 67.2657 112.319 74.6137C114.377 81.9618 106.444 94.0134 106.444 94.0134C106.444 94.0134 109.676 117.821 111.142 120.172C112.608 122.524 112.026 127.209 112.026 127.209C113.091 130.434 113.292 133.882 112.611 137.209C111.438 142.498 107.029 151.905 107.029 151.905C107.029 151.905 101.154 151.905 99.684 155.431C98.2144 158.957 97.9219 140.146 97.9219 140.146C97.9219 140.146 92.6355 105.758 92.928 103.702C93.2204 101.647 94.6901 84.5951 95.2787 79.8914C95.8673 75.1878 97.1482 69.0286 96.3597 67.2657Z" fill="#7E7CFF"/>
<path d="M107.029 71.9694C107.029 71.9694 113.789 74.0249 113.789 76.3767C113.789 78.7285 115.858 91.3654 115.858 95.4801C115.858 99.5949 114.977 100.184 115.858 101.654C116.739 103.124 106.459 102.536 106.459 102.536L104.589 85.784L107.029 71.9694Z" fill="#6461FF"/>
<path d="M67.0734 93.132C67.0734 93.132 80.2969 94.0135 82.6476 92.2469C84.9984 90.4802 94.9863 94.5987 95.8673 96.9505C96.7484 99.3023 81.7629 99.5949 79.4158 99.5949C77.0688 99.5949 65.8999 103.124 65.8999 103.124L67.0734 93.132Z" fill="#A0616A"/>
<path d="M39.8529 230.045C39.8529 230.045 33.6892 245.6 36.8913 247.452C40.0935 249.304 73.8591 247.985 73.8591 247.985C73.8591 247.985 79.4824 244.504 73.0558 242.089C73.0558 242.089 67.6954 241.822 64.2155 239.678C60.7357 237.534 56.7116 233.515 56.7116 233.515C56.7116 233.515 56.4451 227.619 54.3017 228.96C53.6605 229.382 53.1149 229.934 52.6998 230.58C52.2848 231.227 52.0095 231.952 51.8917 232.711L39.8529 230.045Z" fill="#3F3D56"/>
<path opacity="0.1" d="M39.8529 230.045C39.8529 230.045 33.6892 245.6 36.8913 247.452C40.0935 249.304 73.8591 247.985 73.8591 247.985C73.8591 247.985 79.4824 244.504 73.0558 242.089C73.0558 242.089 67.6954 241.822 64.2155 239.678C60.7357 237.534 56.7116 233.515 56.7116 233.515C56.7116 233.515 56.4451 227.619 54.3017 228.96C53.6605 229.382 53.1149 229.934 52.6998 230.58C52.2848 231.227 52.0095 231.952 51.8917 232.711L39.8529 230.045Z" fill="black"/>
<path d="M30.3426 234.8C30.3426 234.8 23.5865 251.837 27.1108 253.904C30.635 255.97 67.6547 254.493 67.6547 254.493C67.6547 254.493 73.8258 250.674 66.7736 248.026C66.7736 248.026 60.8986 247.733 57.0782 245.382C53.2577 243.03 48.8524 238.611 48.8524 238.611C48.8524 238.611 48.5599 232.145 46.2092 233.615C45.5057 234.078 44.9071 234.684 44.4518 235.392C43.9966 236.101 43.6948 236.897 43.566 237.73L30.3426 234.8Z" fill="#3F3D56"/>
<path d="M65.0189 126.639L60.906 163.675C60.906 163.675 59.4252 181.312 55.031 185.131C55.031 185.131 55.031 190.716 53.5502 192.479L51.4919 215.701C51.4919 215.701 54.4313 224.219 54.1388 225.7C53.8464 227.182 55.3123 231.871 55.0199 232.46C54.7274 233.049 40.9154 232.46 40.9154 232.46L43.8548 185.138L52.9616 119.302L65.0189 126.639Z" fill="#3C354C"/>
<path opacity="0.1" d="M65.0189 126.639L60.906 163.675C60.906 163.675 59.4252 181.312 55.031 185.131C55.031 185.131 55.031 190.716 53.5502 192.479L51.4919 215.701C51.4919 215.701 54.4313 224.219 54.1388 225.7C53.8464 227.182 55.3123 231.871 55.0199 232.46C54.7274 233.049 40.9154 232.46 40.9154 232.46L43.8548 185.138L52.9616 119.302L65.0189 126.639Z" fill="black"/>
<path d="M57.6742 125.461C57.6742 125.461 54.4424 155.735 52.9727 162.201C52.0487 166.46 51.4595 170.784 51.2106 175.134C51.2106 175.134 50.9181 184.542 48.2712 187.186C47.4988 187.952 46.892 188.868 46.4882 189.877C46.0845 190.887 45.8925 191.969 45.9242 193.056C45.9242 193.056 43.2773 222.741 44.7469 226.271C46.2166 229.8 47.6863 232.737 46.2277 235.085C44.7692 237.434 28.599 237.437 28.599 235.674C28.599 233.911 28.599 232.441 27.7179 231.56C26.8368 230.678 27.7179 225.093 27.7179 225.093C27.7179 225.093 24.1936 198.934 27.4255 191.293C30.6573 183.653 32.127 162.775 32.127 162.775C32.127 162.775 29.7762 138.968 26.8368 135.146C23.8975 131.324 27.4255 117.806 27.4255 117.806L57.6742 125.461Z" fill="#3C354C"/>
<path d="M49.404 31.4477C49.7446 32.2255 50.5627 32.6588 51.3068 33.0699C55.6196 35.4476 59.229 38.8957 62.7829 42.3031C61.8958 39.2925 62.0857 36.0667 63.3197 33.181C63.7417 32.1995 64.3007 31.1403 63.9971 30.1144C63.7713 29.3737 63.1309 28.8107 62.5163 28.3292C61.0652 27.2065 59.5484 26.1713 57.974 25.2293C56.8635 24.57 54.6127 22.8182 53.3503 23.0071C53.2837 24.7145 53.2503 26.2404 52.5025 27.8218C52.3174 28.2144 49.5336 31.744 49.404 31.4477Z" fill="#A0616A"/>
<path d="M64.4303 35.2254C71.0832 35.2254 76.4765 29.8297 76.4765 23.1737C76.4765 16.5178 71.0832 11.1221 64.4303 11.1221C57.7774 11.1221 52.3841 16.5178 52.3841 23.1737C52.3841 29.8297 57.7774 35.2254 64.4303 35.2254Z" fill="#A0616A"/>
<path d="M65.0189 51.6882C65.0189 51.6882 67.0734 41.3994 61.1984 37.8735C55.3234 34.3477 48.5673 30.2329 48.5673 30.2329C48.5673 30.2329 46.509 29.9366 45.628 34.3477C45.628 34.3477 28.884 37.581 27.1182 53.4511C25.3523 69.3212 28.2954 92.5431 28.2954 92.5431C28.2954 92.5431 25.6522 112.824 22.4204 123.698C22.4204 123.698 19.7735 126.05 31.5272 122.524C43.2809 118.998 63.8416 132.524 63.8416 132.524C63.8416 132.524 65.8999 130.465 65.8999 128.994C65.8999 127.524 68.2507 118.995 68.2507 118.995C68.2507 118.995 70.3053 82.8433 71.1863 78.7285C72.0674 74.6138 67.6621 52.277 65.0189 51.6882Z" fill="#6461FF"/>
<path d="M46.8052 71.9693C46.8052 71.9693 62.9606 62.562 59.7288 50.5104C56.497 38.4587 49.4484 34.6402 49.4484 34.6402C49.4484 34.6402 37.9909 30.8181 28.2954 43.1586L28.884 48.7437C28.884 48.7437 39.4605 27.2885 50.9181 40.8068C62.3757 54.3251 46.8052 71.9693 46.8052 71.9693Z" fill="#13F1FC"/>
<path d="M29.4689 43.7512V91.9467L26.4666 108.387L25.0636 116.05H14.7943L0.401093 110.758V75.2026C0.401093 75.2026 12.4436 51.3918 16.264 46.9844C20.0844 42.5771 29.4689 43.7512 29.4689 43.7512Z" fill="#13F1FC"/>
<path opacity="0.1" d="M26.463 108.391L25.0636 116.054H14.7796L0.386322 110.765L26.463 108.391Z" fill="black"/>
<path d="M25.9446 98.1245L51.2105 67.262L28.8803 99.3023L26.5296 99.8875L25.9446 98.1245Z" fill="#13F1FC"/>
<path d="M61.5908 24.4182C62.2757 23.9552 63.1346 23.8701 63.9564 23.7886C64.7782 23.7071 65.6371 23.596 66.2923 23.0923C67.4288 22.2182 67.514 20.5294 68.3469 19.3627C69.5501 17.6701 71.9527 17.4664 74.0295 17.5479C75.2992 17.5998 76.6653 17.6775 77.7314 16.9924C78.7976 16.3072 79.3233 14.9554 79.6935 13.7072C80.134 12.2258 80.4153 10.4184 79.3233 9.32211C78.5829 8.55916 77.3834 8.40731 76.5468 7.73695C75.7101 7.06659 75.3214 5.91475 74.8513 4.91107C74.3145 3.68496 73.4657 2.62118 72.3895 1.82592C70.8124 0.714829 68.7986 0.485203 66.8773 0.503722C64.9559 0.52224 63.0272 0.777791 61.1207 0.540757C59.5585 0.348168 58 -0.170342 56.4451 0.0592847C54.4609 0.351873 52.8209 1.85185 51.8399 3.60368C50.8589 5.3555 50.4442 7.35547 50.037 9.31841L48.9264 14.6628C48.5859 16.322 48.2416 18.022 48.5044 19.6923C49.0523 23.159 52.1175 25.9145 52.3285 29.4144C52.5301 28.4475 52.9684 27.5457 53.6042 26.7901C54.24 26.0344 55.0533 25.4485 55.9713 25.0848C56.2009 24.9726 56.4614 24.94 56.7117 24.9923C57.0152 25.0923 57.1929 25.396 57.3854 25.6515C57.8889 26.3219 59.4696 27.3367 60.347 26.8626C61.1836 26.4367 60.5839 25.1034 61.5908 24.4182Z" fill="#3F3D56"/>
<path d="M31.2348 79.3173C31.2348 79.3173 29.1765 92.2468 37.6947 91.0727C37.6947 91.0727 42.1037 90.4838 42.6923 91.0727C43.2809 91.6616 65.0189 87.8394 67.9582 84.6061C67.9582 84.6061 71.4825 83.4321 73.2446 85.195C75.0068 86.9579 92.6355 88.7209 87.3528 83.4284C82.0701 78.1359 73.8407 76.9618 73.8407 76.9618L62.6755 77.547C62.6755 77.547 56.8005 79.3136 53.2763 77.547C49.752 75.7803 39.753 76.3914 39.753 76.3914L31.2348 79.3173Z" fill="#A0616A"/>
<path d="M43.2773 38.4624C43.2773 38.4624 30.0576 39.9439 30.0576 59.0362V83.4284C30.0576 83.4284 37.4023 80.1951 38.8719 80.4877C40.3416 80.7803 46.2166 76.6655 46.2166 76.6655C46.2166 76.6655 52.9727 60.7991 52.3841 56.3918C51.7955 51.9844 52.0916 39.0476 43.2773 38.4624Z" fill="#3F3D56"/>
<path d="M103.797 85.7802L90.5772 95.1875L98.803 96.069L110.261 86.3691L103.797 85.7802Z" fill="#3F3D56"/>
<path d="M114.081 99.8912C114.081 99.8912 117.313 109.891 112.907 112.824C108.502 115.758 101.154 102.536 101.154 102.536C101.154 102.536 93.2204 93.132 98.5105 91.0728C103.801 89.0136 105.959 97.9801 105.959 97.9801L112.896 104.006L114.081 99.8912Z" fill="#FBBEBE"/>
<path d="M93.9571 57.4177C100.446 57.4177 105.707 54.0615 105.707 49.9215C105.707 45.7814 100.446 42.4253 93.9571 42.4253C87.4678 42.4253 82.2071 45.7814 82.2071 49.9215C82.2071 54.0615 87.4678 57.4177 93.9571 57.4177Z" fill="#3F3D56"/>
<path d="M96.0117 40.3698C100.716 40.3698 104.53 36.5543 104.53 31.8477C104.53 27.1411 100.716 23.3256 96.0117 23.3256C91.3072 23.3256 87.4935 27.1411 87.4935 31.8477C87.4935 36.5543 91.3072 40.3698 96.0117 40.3698Z" fill="#3F3D56"/>
<path d="M64.4303 21.559C70.6763 21.559 75.7398 18.9274 75.7398 15.6813C75.7398 12.4351 70.6763 9.80359 64.4303 9.80359C58.1842 9.80359 53.1208 12.4351 53.1208 15.6813C53.1208 18.9274 58.1842 21.559 64.4303 21.559Z" fill="#3F3D56"/>
<path d="M53.8537 26.5551C56.0434 26.5551 57.8186 22.146 57.8186 16.7071C57.8186 11.2682 56.0434 6.85913 53.8537 6.85913C51.664 6.85913 49.8889 11.2682 49.8889 16.7071C49.8889 22.146 51.664 26.5551 53.8537 26.5551Z" fill="#3F3D56"/>
</svg>
