<svg width="19" height="18" viewBox="0 0 19 18" fill="none" xmlns="http://www.w3.org/2000/svg">
<path d="M18.054 0.567464C18.054 0.567464 -1.71116 -0.680697 0.617468 13.8157C0.617468 13.8157 0.147982 16.3784 2.37333 17.5405C2.37333 17.5405 2.40854 16.4668 4.40149 16.8329C5.11102 16.956 5.83182 16.9923 6.54937 16.941C7.51733 16.8744 8.43839 16.4803 9.17377 15.8182C9.17377 15.8182 14.7301 13.4152 16.8897 3.91146C16.8897 3.91146 18.4883 1.83774 18.4249 1.30457L15.0892 2.79598C15.0892 2.79598 16.2301 5.31442 15.324 7.4078C15.324 7.4078 15.216 2.88689 14.5752 2.98517C14.4461 3.00483 12.8428 3.85741 12.8428 3.85741C12.8428 3.85741 14.8029 8.24318 13.324 11.4324C13.324 11.4324 13.885 6.02695 12.2301 4.17436L9.88269 5.60926C9.88269 5.60926 12.1738 10.14 10.6198 13.8378C10.6198 13.8378 11.0188 8.16701 9.38739 5.95816L7.26064 7.69527C7.26064 7.69527 9.41322 12.1597 8.10102 15.226C8.10102 15.226 7.92964 8.62648 6.80054 8.1277C6.80054 8.1277 4.93904 9.84761 4.655 10.5503C4.655 10.5503 6.12918 13.7936 5.21369 15.5037C5.21369 15.5037 4.65266 11.1056 4.19257 11.081C4.19257 11.081 2.33811 13.9951 2.14562 15.9951C2.14562 15.9951 2.22543 13.0245 3.74421 10.8059C3.74421 10.8059 1.95079 11.1277 0.903846 12.3439C0.903846 12.3439 1.19257 10.285 4.20195 10.1031C4.20195 10.1031 5.73482 7.89183 6.14327 7.75915C6.14327 7.75915 3.15266 7.49625 1.33811 8.339C1.33811 8.339 2.93436 6.39551 6.69257 7.28003L8.79349 5.48395C8.79349 5.48395 4.85454 4.9213 3.18319 5.54292C3.18319 5.54292 5.10572 3.82301 9.35922 5.07609L11.6456 3.64611C11.6456 3.64611 8.28645 2.88935 6.28646 3.1547C6.28646 3.1547 8.39913 1.96305 12.317 3.25544L13.9601 2.4864C13.9601 2.4864 11.5001 1.98025 10.7794 1.89917C10.0587 1.81809 10.0212 1.6117 10.0212 1.6117C11.5798 1.33967 13.1799 1.52595 14.6432 2.14978C14.6432 2.14978 18.1127 0.795967 18.054 0.567464Z" fill="#13F1FC"/>
</svg>
