<svg width="25" height="23" viewBox="0 0 25 23" fill="none" xmlns="http://www.w3.org/2000/svg">
<path d="M23.7454 0.573922C23.7454 0.573922 -2.37742 -1.00249 0.674818 17.35C0.674818 17.35 0.0629976 20.5923 2.99837 22.0654C2.99837 22.0654 3.04648 20.6887 5.68625 21.1637C6.62388 21.3217 7.57691 21.3679 8.52539 21.3013C9.80768 21.2164 11.0269 20.7136 11.997 19.8695C11.997 19.8695 19.3526 16.8268 22.2124 4.79375C22.2124 4.79375 24.3228 2.17098 24.2403 1.49636L19.8269 3.38255C19.8269 3.38255 21.3325 6.56979 20.1501 9.22009C20.1501 9.22009 20.0057 3.49958 19.1601 3.63037C18.9883 3.63037 16.8641 4.73868 16.8641 4.73868C16.8641 4.73868 19.4626 10.294 17.5034 14.3279C17.5034 14.3279 18.2458 7.48536 16.0529 5.13795L12.9456 6.98283C12.9456 6.98283 15.9773 12.7171 13.9218 17.3982C13.9218 17.3982 14.4512 10.2183 12.2926 7.4234L9.48095 9.62624C9.48095 9.62624 12.327 15.2779 10.5946 19.1604C10.5946 19.1604 10.3609 10.8034 8.86911 10.1701C8.86911 10.1701 6.40807 12.3454 6.02998 13.2403C6.02998 13.2403 7.98232 17.3706 6.77242 19.5115C6.77242 19.5115 6.02999 13.9425 5.39754 13.9149C5.39754 13.9149 2.94337 17.6047 2.68902 20.1104C2.81184 17.7741 3.54169 15.5104 4.80635 13.5432C3.39014 13.8118 2.08313 14.4889 1.04602 15.4913C1.04602 15.4913 1.43101 12.8823 5.4113 12.6552C5.4113 12.6552 7.47362 9.85341 7.98233 9.68131C7.98233 9.68131 4.02266 9.35089 1.62349 10.4179C1.62349 10.4179 3.73393 7.96034 8.70413 9.07553L11.4539 6.80385C11.4539 6.80385 6.23623 6.11546 4.02954 6.87957C4.02954 6.87957 6.57308 4.70426 12.2032 6.28756L15.228 4.47709C15.228 4.47709 10.7802 3.52023 8.13355 3.86442C8.13355 3.86442 10.9315 2.35685 16.1148 3.98833L18.2802 3.01771C18.2802 3.01771 15.0217 2.3775 14.0662 2.27425C13.1106 2.17099 13.0625 1.9094 13.0625 1.9094C15.1262 1.56563 17.2447 1.80399 19.1807 2.59779C19.1807 2.59779 23.8279 0.863046 23.7454 0.573922Z" fill="#6C63FF"/>
</svg>
