<svg width="54" height="49" viewBox="0 0 54 49" fill="none" xmlns="http://www.w3.org/2000/svg">
<path d="M52.0484 0.615997C52.0484 0.615997 -5.83417 -2.88102 0.985256 37.734C0.985256 37.734 -0.389641 44.9139 6.12731 48.17C6.12731 48.17 6.23043 45.1617 12.0668 46.1874C14.1447 46.5323 16.2555 46.634 18.3569 46.4903C21.1916 46.3037 23.8889 45.1996 26.0425 43.3444C26.0425 43.3444 42.3142 36.6119 48.6387 9.98499C48.6387 9.98499 53.3202 4.17497 53.1346 2.68117L43.366 6.8597C43.366 6.8597 46.707 13.9157 44.0535 19.7808C44.0535 19.7808 43.7372 7.11441 41.8605 7.38976C41.4824 7.44483 36.7872 9.83355 36.7872 9.83355C36.7872 9.83355 42.5274 22.1213 38.1965 31.0566C38.1965 31.0566 39.8394 15.912 34.993 10.7216L28.1186 14.7418C28.1186 14.7418 34.828 27.4357 30.2771 37.7959C30.2771 37.7959 31.4458 21.9079 26.6681 15.7193L20.4398 20.5862C20.4398 20.5862 26.7437 33.0942 22.9009 41.6853C22.9009 41.6853 22.399 23.1952 19.0924 21.7978C19.0924 21.7978 13.641 26.6165 12.8092 28.5853C12.8092 28.5853 17.1264 37.672 14.4453 42.4632C14.4453 42.4632 12.8024 30.1411 11.455 30.0722C11.455 30.0722 6.02417 38.2365 5.46047 43.84C5.46047 43.84 5.69419 35.5174 10.1419 29.3012C10.1419 29.3012 4.8899 30.203 1.82391 33.6105C1.82391 33.6105 2.66946 27.8418 11.4825 27.3324C11.4825 27.3324 15.9715 21.1369 17.1676 20.7652C17.1676 20.7652 8.40959 20.0286 3.09566 22.3898C3.09566 22.3898 7.77031 16.9446 18.7762 19.4228L24.9288 14.3907C24.9288 14.3907 13.3936 12.8143 8.49899 14.5559C8.49899 14.5559 14.1291 9.73717 26.5856 13.248L33.2813 9.24153C33.2813 9.24153 23.4439 7.12129 17.5869 7.86475C17.5869 7.86475 23.7739 4.52605 35.2473 8.14699L40.0594 5.99233C40.0594 5.99233 32.855 4.57425 30.7446 4.34708C28.6341 4.11991 28.5242 3.54165 28.5242 3.54165C33.0884 2.77951 37.7744 3.30142 42.0599 5.04923C42.0599 5.04923 52.2203 1.2562 52.0484 0.615997Z" fill="#13F1FC"/>
</svg>
