<svg width="1490" height="205" viewBox="0 0 1490 205" fill="none" xmlns="http://www.w3.org/2000/svg">
<path fill-rule="evenodd" clip-rule="evenodd" d="M1440 0H0V188.395C17.4475 179.267 32.5044 177.598 51.6582 175.475C85.4519 171.729 131.998 166.569 226.927 116.54C276.402 90.4658 349.865 92.8237 432.671 95.4814C521.113 98.3201 620.215 101.501 712.135 70.7485C802.74 40.436 848.885 79.4746 888.796 113.24C927.286 145.802 959.979 173.461 1021.16 129.281C1091.83 78.2559 1155.73 113.802 1219.97 149.53C1269.02 176.814 1318.27 204.205 1370.86 193.227C1401.27 186.878 1423.33 190.486 1440 199.338V0Z" fill="white"/>
<path d="M1440 0H1490V188.398C1473.19 205.388 1462.28 208.024 1440 199.336V0Z" fill="white"/>
</svg>
