<svg width="1542" height="257" viewBox="0 0 1542 257" fill="none" xmlns="http://www.w3.org/2000/svg">
<g clip-path="url(#clip0)">
<path fill-rule="evenodd" clip-rule="evenodd" d="M0 174.095C29.5 137.429 114 66.7954 184 77.5954C219.918 83.1371 249.095 108.225 277.516 132.662C318.332 167.756 357.586 201.508 413 174.095C451.876 154.864 478.693 129.732 502.825 107.117C537.042 75.05 565.86 48.0431 616 50.0956C648.953 51.4446 684.432 79.5322 722.407 109.596C782.962 157.536 849.865 210.502 923 168.096C954.463 149.852 985.087 124.968 1015.89 99.9397C1101.59 30.3047 1188.66 -40.4479 1299 27.5956C1374.66 74.2554 1407.33 126.259 1430.49 163.133C1453.24 199.36 1466.82 220.985 1503 208.596V208.597C1516.93 200.177 1529.27 190.335 1542 174.097V733.46H1503V733H0V174.095Z" fill="white"/>
</g>
<defs>
<clipPath id="clip0">
<rect width="1542" height="257" fill="white"/>
</clipPath>
</defs>
</svg>
