<svg width="1077" height="383" viewBox="0 0 1077 383" fill="none" xmlns="http://www.w3.org/2000/svg">
<g filter="url(#filter0_d)">
<path d="M1009.31 134.743C1019.48 134.743 1027.72 126.919 1027.72 117.268C1027.72 107.617 1019.48 99.7932 1009.31 99.7932C999.141 99.7932 990.898 107.617 990.898 117.268C990.898 126.919 999.141 134.743 1009.31 134.743Z" fill="#FFEB3B"/>
</g>
<path d="M72.5161 84.2959H66.6211V104.806H72.5161V84.2959Z" fill="#70DDFF"/>
<path d="M72.5161 78.7009H17.5074V84.2959H72.5161V78.7009Z" fill="#70DDFF"/>
<path d="M68.1393 139.295C79.1729 139.295 88.1174 130.806 88.1174 120.334C88.1174 109.861 79.1729 101.372 68.1393 101.372C57.1056 101.372 48.1611 109.861 48.1611 120.334C48.1611 130.806 57.1056 139.295 68.1393 139.295Z" fill="url(#paint0_linear)"/>
<path d="M68.1392 134.743C78.3077 134.743 86.5508 126.919 86.5508 117.268C86.5508 107.617 78.3077 99.7932 68.1392 99.7932C57.9708 99.7932 49.7277 107.617 49.7277 117.268C49.7277 126.919 57.9708 134.743 68.1392 134.743Z" fill="#FFEB3B"/>
<path d="M23.4024 24.6216H17.5074V302.469H23.4024V24.6216Z" fill="#70DDFF"/>
<path d="M20.0108 27.9328C28.1099 27.9328 34.6755 21.7013 34.6755 14.0144C34.6755 6.32743 28.1099 0.0959473 20.0108 0.0959473C11.9117 0.0959473 5.34613 6.32743 5.34613 14.0144C5.34613 21.7013 11.9117 27.9328 20.0108 27.9328Z" fill="#4F79A4"/>
<path d="M96.0958 99.2107H41.0872V104.806H96.0958V99.2107Z" fill="#70DDFF"/>
<path d="M19.6716 382.668C9.35142 382.668 0.920837 385.013 0.920837 375.218V304.017C0.933608 299.299 2.91273 294.778 6.42594 291.441C9.93916 288.103 14.701 286.221 19.6716 286.205C24.6421 286.221 29.404 288.103 32.9172 291.441C36.4304 294.778 38.4095 299.299 38.4223 304.017V375.218C38.4223 385.013 29.9917 382.668 19.6716 382.668Z" fill="#70DDFF"/>
<path d="M1010.84 84.2959H1004.95V104.806H1010.84V84.2959Z" fill="#70DDFF"/>
<path d="M1059.96 78.7009H1004.95V84.2959H1059.96V78.7009Z" fill="#70DDFF"/>
<path d="M1059.96 24.6216H1054.06V302.469H1059.96V24.6216Z" fill="#70DDFF"/>
<path d="M1057.45 27.9328C1065.55 27.9328 1072.12 21.7013 1072.12 14.0144C1072.12 6.32743 1065.55 0.0959473 1057.45 0.0959473C1049.36 0.0959473 1042.79 6.32743 1042.79 14.0144C1042.79 21.7013 1049.36 27.9328 1057.45 27.9328Z" fill="#4F79A4"/>
<path d="M1036.38 99.2107H981.369V104.806H1036.38V99.2107Z" fill="#70DDFF"/>
<path d="M1057.78 382.668C1068.1 382.668 1076.53 385.013 1076.53 375.218V304.017C1076.52 299.299 1074.54 294.778 1071.02 291.441C1067.51 288.103 1062.75 286.221 1057.78 286.205C1052.81 286.221 1048.04 288.103 1044.53 291.441C1041.02 294.778 1039.04 299.299 1039.03 304.017V375.218C1039.03 385.013 1047.39 382.668 1057.78 382.668Z" fill="#70DDFF"/>
<defs>
<filter id="filter0_d" x="969.898" y="82.7932" width="78.8234" height="76.9493" filterUnits="userSpaceOnUse" color-interpolation-filters="sRGB">
<feFlood flood-opacity="0" result="BackgroundImageFix"/>
<feColorMatrix in="SourceAlpha" type="matrix" values="0 0 0 0 0 0 0 0 0 0 0 0 0 0 0 0 0 0 127 0"/>
<feOffset dy="4"/>
<feGaussianBlur stdDeviation="10.5"/>
<feColorMatrix type="matrix" values="0 0 0 0 1 0 0 0 0 0.921569 0 0 0 0 0.231373 0 0 0 0.25 0"/>
<feBlend mode="normal" in2="BackgroundImageFix" result="effect1_dropShadow"/>
<feBlend mode="normal" in="SourceGraphic" in2="effect1_dropShadow" result="shape"/>
</filter>
<linearGradient id="paint0_linear" x1="10145.5" y1="5501.99" x2="10145.5" y2="4563.4" gradientUnits="userSpaceOnUse">
<stop stop-color="#808080" stop-opacity="0.25"/>
<stop offset="0.54" stop-color="#808080" stop-opacity="0.12"/>
<stop offset="1" stop-color="#808080" stop-opacity="0.1"/>
</linearGradient>
</defs>
</svg>
